<svg width="80" height="80" viewBox="0 0 80 80" fill="none" xmlns="http://www.w3.org/2000/svg">
<g clip-path="url(#clip0_1_345)">
<path d="M11.25 79.9899C11.5815 79.9899 11.8995 79.8582 12.1339 79.6238C12.3683 79.3894 12.5 79.0714 12.5 78.7399V64.9324C12.5 62.1999 13.9575 59.6249 16.3025 58.2199L26.0875 52.3474L31.4575 59.0599C31.5676 59.1971 31.7052 59.3096 31.8616 59.3901C32.0179 59.4707 32.1894 59.5174 32.365 59.5274L32.435 59.5299C32.765 59.5299 33.085 59.3999 33.32 59.1649L35.725 56.7599V58.2824C35.725 58.6139 35.8567 58.9319 36.0911 59.1663C36.3255 59.4007 36.6435 59.5324 36.975 59.5324H37.0925L35.0075 78.6074C34.9867 78.7721 34.9989 78.9393 35.0434 79.0992C35.0879 79.259 35.1639 79.4085 35.2667 79.5387C35.3696 79.669 35.4974 79.7774 35.6426 79.8578C35.7879 79.9381 35.9476 79.9887 36.1126 80.0066C36.2776 80.0246 36.4446 80.0095 36.6037 79.9622C36.7628 79.9149 36.9109 79.8364 37.0393 79.7313C37.1678 79.6262 37.274 79.4966 37.3518 79.35C37.4296 79.2033 37.4774 79.0427 37.4925 78.8774L39.6075 59.5324H40.3925L42.5075 78.8774C42.5433 79.2073 42.7087 79.5094 42.9672 79.7173C43.2258 79.9253 43.5564 80.022 43.8863 79.9862C44.2161 79.9504 44.5182 79.785 44.7262 79.5264C44.9341 79.2679 45.0308 78.9373 44.995 78.6074L42.91 59.5324H43.0275C43.359 59.5324 43.677 59.4007 43.9114 59.1663C44.1458 58.9319 44.2775 58.6139 44.2775 58.2824V56.7599L46.6825 59.1649C46.7988 59.2809 46.9368 59.3729 47.0887 59.4355C47.2405 59.4981 47.4032 59.5302 47.5675 59.5299L47.6375 59.5274C47.8131 59.5174 47.9846 59.4707 48.1409 59.3901C48.2973 59.3096 48.4349 59.1971 48.545 59.0599L53.915 52.3474L63.7025 58.2199C64.858 58.9192 65.8142 59.904 66.4792 61.0795C67.1442 62.255 67.4958 63.5818 67.5 64.9324V78.7399C67.5 79.0714 67.6317 79.3894 67.8661 79.6238C68.1005 79.8582 68.4185 79.9899 68.75 79.9899C69.0815 79.9899 69.3995 79.8582 69.6339 79.6238C69.8683 79.3894 70 79.0714 70 78.7399V64.9324C70 61.3249 68.0775 57.9324 64.985 56.0774L54.42 49.7399L50.46 45.3399C50.2951 45.1638 50.0818 45.0403 49.8469 44.9852C49.612 44.93 49.3661 44.9456 49.14 45.0299V40.1199C50.959 38.7236 52.4327 36.9279 53.4475 34.8715C54.4623 32.8151 54.9909 30.5531 54.9925 28.2599V22.5799L57.405 11.4149C57.5871 10.4278 57.5696 9.41423 57.3536 8.43397C57.1376 7.45372 56.7275 6.52664 56.1475 5.70743C55.5723 4.88466 54.8382 4.18537 53.9885 3.65081C53.1388 3.11625 52.1907 2.75723 51.2 2.59493L36.305 0.112426C35.2387 -0.0657303 34.1463 -0.00928222 33.1041 0.277839C32.0618 0.56496 31.0947 1.07585 30.27 1.77493C28.8628 2.9695 27.9525 4.64658 27.7175 6.47743C26.2425 6.75243 24.9075 7.53993 23.945 8.72993C23.3419 9.47703 22.9153 10.3507 22.6971 11.2858C22.479 12.2208 22.4748 13.1931 22.685 14.1299L24.9925 22.5549V28.2574C24.9925 33.0849 27.2925 37.3749 30.845 40.1199V45.0274C30.6202 44.947 30.3769 44.9338 30.1448 44.9893C29.9126 45.0447 29.7016 45.1666 29.5375 45.3399L25.58 49.7374L15.015 56.0774C13.489 56.9985 12.2259 58.297 11.3476 59.848C10.4692 61.399 10.0051 63.15 10 64.9324V78.7399C10 79.0714 10.1317 79.3894 10.3661 79.6238C10.6005 79.8582 10.9185 79.9899 11.25 79.9899ZM41.775 54.4974V57.0299H38.225V54.4974C38.225 54.4274 38.195 54.3649 38.185 54.2974L40 52.4824L41.8175 54.2999C41.805 54.3649 41.775 54.4274 41.775 54.4974ZM51.98 50.7624L47.4625 56.4099L42.135 51.0824L49.2275 47.7049L51.98 50.7624ZM25.8875 10.3024C26.2487 9.85394 26.706 9.49235 27.2257 9.2444C27.7454 8.99645 28.3142 8.86847 28.89 8.86993C29.58 8.86993 30.14 8.14243 30.14 7.45243C30.1387 6.80321 30.2655 6.16012 30.5133 5.56003C30.7611 4.95995 31.1249 4.41468 31.5838 3.9555C32.0428 3.49632 32.5878 3.13225 33.1878 2.88419C33.7878 2.63612 34.4308 2.50894 35.08 2.50993C35.3531 2.51013 35.6256 2.53271 35.895 2.57743L50.79 5.05993C52.14 5.28493 53.315 6.02493 54.1025 7.14243C54.89 8.26243 55.19 9.61993 54.9525 10.9249L53.08 19.5874L50.72 16.6549V13.9374C50.72 13.6059 50.5883 13.288 50.3539 13.0535C50.1195 12.8191 49.8015 12.6874 49.47 12.6874H30.515C30.1835 12.6874 29.8655 12.8191 29.6311 13.0535C29.3967 13.288 29.265 13.6059 29.265 13.9374V16.6574L26.8075 19.7199L25.1125 13.5374C24.87 12.3924 25.1525 11.2124 25.8875 10.3024ZM27.4925 28.2574V22.8624L31.4925 17.8799C31.6702 17.6578 31.7672 17.3819 31.7675 17.0974V15.1874H48.2225V17.0974C48.2224 17.382 48.3194 17.658 48.4975 17.8799L52.495 22.8424V28.2549C52.495 35.1474 46.8875 40.7549 39.995 40.7549C33.1025 40.7549 27.4925 35.1499 27.4925 28.2574ZM39.9925 43.2574C42.3825 43.2574 44.635 42.6824 46.64 41.6849V46.1674L40 49.3299L33.345 46.1599V41.6824C35.3525 42.6799 37.605 43.2574 39.9925 43.2574ZM30.7725 47.7049L37.865 51.0824L32.5375 56.4099L28.02 50.7624L30.7725 47.7049Z" fill="#005CCE"/>
<path d="M23.7499 79.99C24.0814 79.99 24.3994 79.8583 24.6338 79.6239C24.8682 79.3895 24.9999 79.0716 24.9999 78.74V72.885C25.0025 70.307 24.0381 67.8217 22.2974 65.92L20.4049 63.8475C20.2941 63.7262 20.1605 63.6279 20.0117 63.5582C19.8629 63.4886 19.7018 63.4489 19.5377 63.4415C19.3736 63.434 19.2096 63.459 19.0551 63.515C18.9007 63.5709 18.7587 63.6567 18.6374 63.7675C18.5161 63.8783 18.4178 64.0119 18.3481 64.1607C18.2784 64.3095 18.2388 64.4706 18.2313 64.6347C18.2239 64.7988 18.2489 64.9628 18.3048 65.1173C18.3608 65.2718 18.4466 65.4137 18.5574 65.535L20.4499 67.6075C21.7701 69.0479 22.5017 70.9312 22.4999 72.885V78.74C22.4999 79.0716 22.6316 79.3895 22.866 79.6239C23.1004 79.8583 23.4184 79.99 23.7499 79.99ZM59.5949 63.8475L57.7024 65.9225C55.9618 67.8233 54.9975 70.3077 54.9999 72.885V78.74C54.9999 79.0716 55.1316 79.3895 55.366 79.6239C55.6004 79.8583 55.9184 79.99 56.2499 79.99C56.5814 79.99 56.8994 79.8583 57.1338 79.6239C57.3682 79.3895 57.4999 79.0716 57.4999 78.74V72.885C57.4999 70.9275 58.2274 69.0525 59.5474 67.6075L61.4399 65.535C61.5507 65.4139 61.6366 65.2721 61.6926 65.1178C61.7486 64.9635 61.7736 64.7996 61.7663 64.6356C61.759 64.4716 61.7195 64.3106 61.6499 64.1619C61.5804 64.0132 61.4823 63.8796 61.3612 63.7688C61.24 63.658 61.0982 63.5721 60.9439 63.5161C60.7896 63.4601 60.6257 63.435 60.4617 63.4423C60.2977 63.4497 60.1367 63.4892 59.988 63.5587C59.8393 63.6282 59.7057 63.7264 59.5949 63.8475Z" fill="#005CCE"/>
</g>
<defs>
<clipPath id="clip0_1_345">
<rect width="80" height="80" fill="white"/>
</clipPath>
</defs>
</svg>
