<svg width="80" height="80" viewBox="0 0 80 80" fill="none" xmlns="http://www.w3.org/2000/svg">
<path d="M69.24 33.107C69.1278 32.9429 68.9773 32.8087 68.8015 32.716C68.6257 32.6233 68.4299 32.5749 68.2312 32.575H57.404V25.1822C57.4041 25.0217 57.3725 24.8627 57.3111 24.7143C57.2497 24.566 57.1597 24.4312 57.0462 24.3176C56.9326 24.2041 56.7978 24.1141 56.6495 24.0527C56.5011 23.9913 56.3421 23.9597 56.1816 23.9598H13.804C13.4798 23.9601 13.169 24.0889 12.9398 24.3181C12.7106 24.5473 12.5818 24.8581 12.5816 25.1822V31.8766H3.32636C1.69676 31.8766 1.69676 34.3214 3.32636 34.3214H12.5816V36.2278H8.68156C7.05196 36.2278 7.05196 38.6726 8.68156 38.6726H12.5816V40.5766H3.32636C1.69676 40.5766 1.69676 43.0214 3.32636 43.0214H12.5816V44.9278H8.68156C7.05196 44.9278 7.05196 47.3726 8.68156 47.3726H12.5816V58.5374C12.5818 58.8616 12.7106 59.1724 12.9398 59.4016C13.169 59.6308 13.4798 59.7596 13.804 59.7598H18.648C18.8615 60.9516 19.3859 62.0659 20.168 62.9902H3.32636C1.69676 62.9902 1.69676 65.435 3.32636 65.435H76.672C78.3016 65.435 78.3016 62.9902 76.672 62.9902H71.6856C72.4684 62.0664 72.9928 60.9519 73.2056 59.7598H76.668C76.9922 59.7598 77.3031 59.6311 77.5323 59.4018C77.7616 59.1726 77.8904 58.8616 77.8904 58.5374V46.1374C77.891 45.8916 77.8174 45.6512 77.6792 45.4478L69.24 33.107ZM29.5448 60.2398C29.1792 61.1227 28.5394 61.8646 27.7199 62.3559C26.9003 62.8472 25.9445 63.0619 24.9936 62.9683C24.0426 62.8747 23.147 62.4777 22.439 61.836C21.731 61.1943 21.2482 60.3419 21.0618 59.4047C20.8755 58.4675 20.9955 57.4952 21.4041 56.6315C21.8128 55.7678 22.4884 55.0583 23.3312 54.6081C24.174 54.1578 25.1392 53.9905 26.0844 54.1309C27.0295 54.2713 27.9045 54.712 28.58 55.3878C29.2025 56.0106 29.6264 56.8039 29.7982 57.6675C29.9699 58.5312 29.8817 59.4263 29.5448 60.2398ZM25.4304 51.639C23.8129 51.6389 22.247 52.208 21.0069 53.2465C19.7669 54.2849 18.9318 55.7267 18.648 57.319H15.0264V47.375H23.3512C24.9808 47.375 24.9808 44.9302 23.3512 44.9302H15.0264V43.0214H17.9992C19.6296 43.0214 19.6296 40.5766 17.9992 40.5766H15.0264V38.6726H23.3512C24.9808 38.6726 24.9808 36.2278 23.3512 36.2278H15.0264V34.3198H17.9992C19.6296 34.3198 19.6296 31.875 17.9992 31.875H15.0264V26.403H54.9592V57.315H32.2136C31.9283 55.7235 31.0926 54.283 29.8526 53.2454C28.6125 52.2078 27.0472 51.6392 25.4304 51.639ZM30.6904 62.9902C31.4732 62.0664 31.9976 60.9519 32.2104 59.7598H59.6432C59.8573 60.9515 60.3815 62.0657 61.1632 62.9902H30.6904ZM70.5408 60.2398C70.1752 61.1227 69.5354 61.8646 68.7159 62.3559C67.8963 62.8472 66.9405 63.0619 65.9896 62.9683C65.0386 62.8747 64.143 62.4777 63.435 61.836C62.727 61.1943 62.2442 60.3419 62.0578 59.4047C61.8715 58.4675 61.9915 57.4952 62.4001 56.6315C62.8088 55.7678 63.4844 55.0583 64.3272 54.6081C65.17 54.1578 66.1352 53.9905 67.0804 54.1309C68.0255 54.2713 68.9005 54.712 69.576 55.3878C70.1985 56.0106 70.6224 56.8039 70.7942 57.6675C70.9659 58.5312 70.8777 59.4263 70.5408 60.2398ZM75.4496 57.3142H73.2096C72.9244 55.7227 72.0887 54.2821 70.8487 53.2445C69.6087 52.2068 68.0433 51.6383 66.4264 51.6383C64.8095 51.6383 63.2441 52.2068 62.004 53.2445C60.764 54.2821 59.9283 55.7227 59.6432 57.3142H57.4032V35.0198H67.5864L75.4496 46.5142V57.3142Z" fill="#005CCE"/>
<path d="M66.1348 36.2711H59.9932C59.6691 36.2713 59.3583 36.4002 59.1291 36.6294C58.8999 36.8586 58.7711 37.1694 58.7708 37.4935V45.3527C58.7711 45.6768 58.8999 45.9876 59.1291 46.2168C59.3583 46.446 59.6691 46.5749 59.9932 46.5751H71.694C71.9182 46.5751 72.1381 46.5135 72.3296 46.3969C72.521 46.2804 72.6768 46.1134 72.7798 45.9143C72.8828 45.7152 72.929 45.4916 72.9135 45.2679C72.8979 45.0443 72.8212 44.8293 72.6916 44.6463L67.1332 36.7879C67.0202 36.6283 66.8706 36.498 66.6969 36.4081C66.5232 36.3182 66.3304 36.2712 66.1348 36.2711ZM61.2156 44.1303V38.7199H65.5028L69.3316 44.1343L61.2156 44.1303Z" fill="#005CCE"/>
</svg>
