<svg width="80" height="80" viewBox="0 0 80 80" fill="none" xmlns="http://www.w3.org/2000/svg">
<g clip-path="url(#clip0_1_348)">
<path d="M15 33.3334H51.6667C52.1087 33.3334 52.5326 33.1578 52.8452 32.8452C53.1577 32.5327 53.3333 32.1087 53.3333 31.6667C53.3333 31.2247 53.1577 30.8008 52.8452 30.4882C52.5326 30.1756 52.1087 30 51.6667 30H15C14.558 30 14.1341 30.1756 13.8215 30.4882C13.5089 30.8008 13.3333 31.2247 13.3333 31.6667C13.3333 32.1087 13.5089 32.5327 13.8215 32.8452C14.1341 33.1578 14.558 33.3334 15 33.3334ZM41.6667 38.3334H15C14.558 38.3334 14.1341 38.509 13.8215 38.8215C13.5089 39.1341 13.3333 39.558 13.3333 40C13.3333 40.4421 13.5089 40.866 13.8215 41.1786C14.1341 41.4911 14.558 41.6667 15 41.6667H41.6667C42.1087 41.6667 42.5326 41.4911 42.8452 41.1786C43.1577 40.866 43.3333 40.4421 43.3333 40C43.3333 39.558 43.1577 39.1341 42.8452 38.8215C42.5326 38.509 42.1087 38.3334 41.6667 38.3334ZM15 25H51.6667C52.1087 25 52.5326 24.8244 52.8452 24.5119C53.1577 24.1993 53.3333 23.7754 53.3333 23.3334C53.3333 22.8913 53.1577 22.4674 52.8452 22.1549C52.5326 21.8423 52.1087 21.6667 51.6667 21.6667H15C14.558 21.6667 14.1341 21.8423 13.8215 22.1549C13.5089 22.4674 13.3333 22.8913 13.3333 23.3334C13.3333 23.7754 13.5089 24.1993 13.8215 24.5119C14.1341 24.8244 14.558 25 15 25ZM15 16.6667H51.6667C52.1087 16.6667 52.5326 16.4911 52.8452 16.1786C53.1577 15.866 53.3333 15.4421 53.3333 15C53.3333 14.558 53.1577 14.1341 52.8452 13.8215C52.5326 13.509 52.1087 13.3334 51.6667 13.3334H15C14.558 13.3334 14.1341 13.509 13.8215 13.8215C13.5089 14.1341 13.3333 14.558 13.3333 15C13.3333 15.4421 13.5089 15.866 13.8215 16.1786C14.1341 16.4911 14.558 16.6667 15 16.6667ZM38.3333 66.6667C37.4667 66.6667 36.7667 63.3334 33.6667 63.3334C30.5667 63.3334 29.85 66.6667 28.9833 66.6667C28.1167 66.6667 27.4333 63.3334 24.3333 63.3334C21.2333 63.3334 20.5167 66.6667 19.6667 66.6667C18.8167 66.6667 18.1167 63.3334 15 63.3334C14.558 63.3334 14.1341 63.509 13.8215 63.8215C13.5089 64.1341 13.3333 64.558 13.3333 65C13.3333 65.4421 13.5089 65.866 13.8215 66.1786C14.1341 66.4911 14.558 66.6667 15 66.6667C15.8667 66.6667 16.55 70 19.6667 70C22.7833 70 23.4667 66.6667 24.3333 66.6667C25.2 66.6667 25.8833 70 28.9833 70C32.0833 70 32.8 66.6667 33.6667 66.6667C34.5333 66.6667 35.2167 70 38.3333 70C38.7754 70 39.1993 69.8244 39.5119 69.5119C39.8244 69.1993 40 68.7754 40 68.3334C40 67.8913 39.8244 67.4674 39.5119 67.1549C39.1993 66.8423 38.7754 66.6667 38.3333 66.6667Z" fill="#005CCE"/>
<path d="M75 16.6667C75.442 16.6667 75.866 16.4911 76.1785 16.1785C76.4911 15.8659 76.6667 15.442 76.6667 15V8.33333C76.6667 6.1232 75.7887 4.00358 74.2259 2.44078C72.6631 0.877974 70.5435 0 68.3333 0L11.6667 0C9.45654 0 7.33692 0.877974 5.77412 2.44078C4.21132 4.00358 3.33334 6.1232 3.33334 8.33333V78.3333C3.33334 78.7754 3.50894 79.1993 3.8215 79.5118C4.13406 79.8244 4.55798 80 5.00001 80H61.6667C62.1087 80 62.5326 79.8244 62.8452 79.5118C63.1577 79.1993 63.3333 78.7754 63.3333 78.3333V51.6667L75.8833 30C76.2877 29.336 76.5552 28.5978 76.6702 27.829C76.7852 27.0601 76.7454 26.2759 76.553 25.5227C76.3606 24.7694 76.0196 24.0622 75.55 23.4426C75.0804 22.823 74.4917 22.3035 73.8185 21.9147C73.1453 21.5259 72.4011 21.2756 71.6298 21.1784C70.8584 21.0813 70.0755 21.1394 69.3269 21.3492C68.5783 21.559 67.8792 21.9163 67.2706 22.4001C66.6621 22.884 66.1564 23.4846 65.7833 24.1667L63.3333 28.3333V16.6667H75ZM73.3333 8.33333V13.3333H63.3333V8.33333C63.3333 7.00725 63.8601 5.73548 64.7978 4.7978C65.7355 3.86012 67.0073 3.33333 68.3333 3.33333C69.6594 3.33333 70.9312 3.86012 71.8689 4.7978C72.8066 5.73548 73.3333 7.00725 73.3333 8.33333ZM60 76.6667H6.66668V8.33333C6.66668 7.00725 7.19346 5.73548 8.13114 4.7978C9.06882 3.86012 10.3406 3.33333 11.6667 3.33333H61.6667C59.35 6.36667 60 6.03333 60 34.05L47.0333 56.5167C46.75 57 46.8667 56.5167 46.25 66.5167C46.2364 66.7438 46.2694 66.9713 46.347 67.1852C46.4246 67.3991 46.5452 67.5949 46.7014 67.7604C46.8575 67.9259 47.0459 68.0577 47.2549 68.1476C47.4639 68.2376 47.6891 68.2837 47.9167 68.2833C48.6333 68.2833 48.2833 68.2833 56.6167 62.8667C57.05 62.5833 56.8833 62.75 59.95 57.35L60 76.6667ZM50 58.7333C51.4352 58.9426 52.7356 59.6941 53.6333 60.8333L49.7167 63.4167L50 58.7333ZM55.6667 58.1C54.4887 56.8724 52.9857 56.0053 51.3333 55.6L64.85 32.2667L69.1833 34.7667L55.6667 58.1ZM68.6667 25.7C68.9982 25.1254 69.5444 24.706 70.1852 24.5341C70.8259 24.3621 71.5087 24.4518 72.0833 24.7833C72.658 25.1149 73.0774 25.6611 73.2493 26.3018C73.4212 26.9426 73.3315 27.6254 73 28.2L70.9167 31.8167L66.6667 29.3167L68.6667 25.7Z" fill="#005CCE"/>
</g>
<defs>
<clipPath id="clip0_1_348">
<rect width="80" height="80" fill="white"/>
</clipPath>
</defs>
</svg>
