<svg width="80" height="80" viewBox="0 0 80 80" fill="none" xmlns="http://www.w3.org/2000/svg">
<path d="M40 78.75C18.75 78.75 1.25 61.25 1.25 40C1.25 18.75 18.625 1.25 40 1.25C61.375 1.25 78.75 18.625 78.75 40C78.75 61.375 61.25 78.75 40 78.75ZM40 3.5C19.875 3.5 3.5 19.875 3.5 40C3.5 60.125 19.875 76.5 40 76.5C60.125 76.5 76.5 60.125 76.5 40C76.5 19.875 60.125 3.5 40 3.5Z" fill="#005CCE"/>
<path d="M40 11.875C39.375 11.875 38.75 11.375 38.75 10.625V6.375C38.75 5.75 39.25 5.125 40 5.125C40.75 5.125 41.25 5.625 41.25 6.375V10.75C41.25 11.375 40.625 11.875 40 11.875ZM25.375 15.875C25 15.875 24.5 15.625 24.375 15.25L22.25 11.5C21.875 10.875 22.125 10.125 22.625 9.75C23.25 9.5 24 9.625 24.375 10.25L26.5 14C26.875 14.625 26.625 15.375 26 15.625C25.875 15.75 25.625 15.875 25.375 15.875ZM14.75 26.5C14.5 26.5 14.375 26.5 14.125 26.375L10.375 24.25C9.75005 23.875 9.62505 23.125 9.87505 22.625C10.25 22 11 21.75 11.5 22.125L15.25 24.25C15.875 24.625 16 25.375 15.75 25.875C15.5 26.375 15 26.5 14.75 26.5ZM10.875 41.25H6.37505C5.75005 41.25 5.12505 40.75 5.12505 40C5.12505 39.25 5.62505 38.75 6.37505 38.75H10.75C11.375 38.75 12 39.25 12 40C11.875 40.75 11.375 41.25 10.875 41.25ZM11 57.875C10.625 57.875 10.125 57.625 10 57.25C9.62505 56.75 9.75005 56 10.375 55.625L14.125 53.5C14.75 53.125 15.5 53.375 15.75 54C16.125 54.625 15.875 55.375 15.25 55.625L11.5 57.75C11.25 57.875 11 57.875 11 57.875ZM23.125 70.25C22.875 70.25 22.75 70.25 22.5 70.125C21.875 69.75 21.75 69 22 68.5L24.125 64.75C24.5 64.125 25.25 64 25.75 64.25C26.375 64.625 26.5 65.375 26.25 65.875L24.25 69.625C24 70 23.625 70.25 23.125 70.25ZM40 74.75C39.375 74.75 38.75 74.25 38.75 73.5V69.125C38.75 68.5 39.25 67.875 40 67.875C40.75 67.875 41.25 68.375 41.25 69.125V73.5C41.25 74.25 40.625 74.75 40 74.75ZM56.875 70.25C56.5 70.25 56 70 55.875 69.625L53.75 65.875C53.375 65.25 53.625 64.5 54.25 64.25C54.875 63.875 55.625 64.125 55.875 64.75L58 68.5C58.375 69.125 58.125 69.875 57.5 70.125C57.25 70.25 57 70.25 56.875 70.25ZM69.125 57.875C68.875 57.875 68.75 57.875 68.5 57.75L64.75 55.625C64.125 55.25 64 54.5 64.25 54C64.625 53.375 65.375 53.25 65.875 53.5L69.625 55.625C70.25 56 70.375 56.75 70.125 57.25C69.875 57.75 69.5 57.875 69.125 57.875ZM73.625 41.25H69.25C68.625 41.25 68 40.75 68 40C68 39.25 68.5 38.75 69.25 38.75H73.625C74.25 38.75 74.875 39.25 74.875 40C74.875 40.75 74.25 41.25 73.625 41.25ZM65.25 26.5C64.875 26.5 64.375 26.25 64.25 25.875C63.875 25.25 64.125 24.5 64.75 24.25L68.5 22.125C69.125 21.75 69.875 22 70.125 22.625C70.5 23.25 70.25 24 69.625 24.25L65.875 26.375C65.625 26.5 65.5 26.5 65.25 26.5ZM54.625 15.875C54.375 15.875 54.25 15.875 54 15.75C53.375 15.375 53.25 14.625 53.5 14.125L55.625 10.25C56 9.625 56.75 9.5 57.25 9.75C57.875 10.125 58.125 10.875 57.75 11.375L55.625 15.125C55.375 15.625 55 15.875 54.625 15.875ZM40 44.375C38.125 44.375 36.75 42.875 36.75 41.125C36.75 39.375 38.25 37.875 40 37.875C41.75 37.875 43.25 39.375 43.25 41.125C43.25 42.875 41.875 44.375 40 44.375ZM40 40C39.5 40 39 40.5 39 41C39 41.5 39.5 42 40 42C40.5 42 41 41.5 41 41C41 40.5 40.5 40 40 40Z" fill="#005CCE"/>
<path d="M55.125 42.125H42.125C41.5 42.125 40.875 41.625 40.875 40.875C40.875 40.125 41.375 39.625 42.125 39.625H55.25C55.875 39.625 56.5 40.125 56.5 40.875C56.5 41.75 55.875 42.125 55.125 42.125ZM40 40C39.375 40 38.75 39.5 38.75 38.75V17.125C38.75 16.5 39.25 15.875 40 15.875C40.625 15.875 41.25 16.375 41.25 17.125V38.75C41.25 39.5 40.625 40 40 40Z" fill="#005CCE"/>
</svg>
