<svg width="60" height="60" viewBox="0 0 60 60" fill="none" xmlns="http://www.w3.org/2000/svg">
<g clip-path="url(#clip0_1_449)">
<path d="M58.75 60H1.25C0.56 60 0 59.4412 0 58.75V51.25C0 50.5587 0.56 50 1.25 50H58.75C59.44 50 60 50.5587 60 51.25V58.75C60 59.4412 59.44 60 58.75 60ZM2.5 57.5H57.5V52.5H2.5V57.5ZM13.75 16.25H6.25C5.81625 16.25 5.415 16.025 5.18625 15.6562C4.9575 15.2875 4.9375 14.8275 5.13125 14.44L8.88125 6.93998C9.305 6.09248 10.6938 6.09248 11.1175 6.93998L14.8675 14.44C15.0612 14.8275 15.04 15.2875 14.8125 15.6562C14.585 16.025 14.1838 16.25 13.75 16.25ZM8.2725 13.75H11.7275L10 10.295L8.2725 13.75Z" fill="white"/>
<path d="M10 52.5C9.31 52.5 8.75 51.9412 8.75 51.25V15C8.75 14.3088 9.31 13.75 10 13.75C10.69 13.75 11.25 14.3088 11.25 15V51.25C11.25 51.9412 10.69 52.5 10 52.5ZM21.25 52.5C20.56 52.5 20 51.9412 20 51.25V15C20 14.3088 20.56 13.75 21.25 13.75C21.94 13.75 22.5 14.3088 22.5 15V51.25C22.5 51.9412 21.94 52.5 21.25 52.5ZM1.25 60C0.56 60 0 59.4412 0 58.75V1.25C0 0.55875 0.56 0 1.25 0C1.94 0 2.5 0.55875 2.5 1.25V58.75C2.5 59.4412 1.94 60 1.25 60ZM30 52.4987C29.31 52.4987 28.75 51.94 28.75 51.2487V1.25C28.75 0.55875 29.31 0 30 0C30.69 0 31.25 0.55875 31.25 1.25V51.2487C31.25 51.94 30.69 52.4987 30 52.4987Z" fill="white"/>
<path d="M1.25 24.9984C0.56 24.9984 0 24.4396 0 23.7484C0 23.0571 0.56 22.4984 1.25 22.4984C20.1437 22.4984 28.75 1.01336 28.835 0.795863C29.0863 0.153363 29.8088 -0.161637 30.4525 0.0858629C31.0962 0.335863 31.415 1.05961 31.1637 1.70336C31.0737 1.93586 21.8662 24.9984 1.25 24.9984ZM53.75 16.2496H46.25C45.8162 16.2496 45.415 16.0246 45.1862 15.6559C44.9575 15.2871 44.9375 14.8271 45.1312 14.4396L48.8812 6.93961C49.305 6.09211 50.6938 6.09211 51.1175 6.93961L54.8675 14.4396C55.0613 14.8271 55.04 15.2871 54.8125 15.6559C54.585 16.0246 54.1838 16.2496 53.75 16.2496ZM48.2725 13.7496H51.7275L50 10.2946L48.2725 13.7496Z" fill="white"/>
<path d="M50 52.5C49.31 52.5 48.75 51.9412 48.75 51.25V15C48.75 14.3088 49.31 13.75 50 13.75C50.69 13.75 51.25 14.3088 51.25 15V51.25C51.25 51.9412 50.69 52.5 50 52.5ZM38.75 52.5C38.06 52.5 37.5 51.9412 37.5 51.25V15C37.5 14.3088 38.06 13.75 38.75 13.75C39.44 13.75 40 14.3088 40 15V51.25C40 51.9412 39.44 52.5 38.75 52.5ZM58.75 60C58.06 60 57.5 59.4412 57.5 58.75V1.25C57.5 0.55875 58.06 0 58.75 0C59.44 0 60 0.55875 60 1.25V58.75C60 59.4412 59.44 60 58.75 60Z" fill="white"/>
<path d="M58.75 24.9988C38.1338 24.9988 28.9263 1.93626 28.835 1.70251C28.585 1.05876 28.9038 0.335007 29.5463 0.0850072C30.1875 -0.162493 30.9125 0.153757 31.1638 0.795007C31.25 1.01376 39.8563 22.4988 58.75 22.4988C59.44 22.4988 60 23.0575 60 23.7488C60 24.44 59.44 24.9988 58.75 24.9988Z" fill="white"/>
</g>
<defs>
<clipPath id="clip0_1_449">
<rect width="60" height="60" fill="white"/>
</clipPath>
</defs>
</svg>
