<svg width="60" height="60" viewBox="0 0 60 60" fill="none" xmlns="http://www.w3.org/2000/svg">
<g clip-path="url(#clip0_1_464)">
<path d="M57.1875 17.8125H59.0625C59.3111 17.8124 59.5496 17.7137 59.7254 17.5378C59.9012 17.362 60 17.1236 60 16.875V11.25C60 11.0013 59.9012 10.7629 59.7254 10.5871C59.5496 10.4112 59.3111 10.3125 59.0625 10.3125C59.0625 10.3125 56.3754 10.2909 56.3635 10.2818L43.6441 0.204092C43.4865 0.0782551 43.2924 0.00678262 43.0909 0.00035313C42.8893 -0.00607635 42.6911 0.0528823 42.5258 0.168421C42.5258 0.168421 28.0064 10.2909 27.981 10.3125H16.875C16.6264 10.3125 16.3879 10.4112 16.2121 10.5871C16.0363 10.7629 15.9375 11.0013 15.9375 11.25V16.875C15.9375 17.1236 16.0363 17.362 16.2121 17.5379C16.3879 17.7137 16.6264 17.8124 16.875 17.8125H21.0938V20.9971C20.3384 21.2223 19.6894 21.7118 19.2654 22.3762C18.8413 23.0406 18.6706 23.8354 18.7844 24.6153C18.8982 25.3952 19.2889 26.1081 19.8851 26.6236C20.4813 27.1391 21.2431 27.4228 22.0312 27.4228C22.8194 27.4228 23.5812 27.1391 24.1774 26.6236C24.7736 26.1081 25.1643 25.3952 25.2781 24.6153C25.3919 23.8354 25.2212 23.0406 24.7971 22.3762C24.3731 21.7118 23.7241 21.2223 22.9688 20.9971V17.8125H49.6875V58.1245H47.8125C47.5638 58.1245 47.3253 58.2233 47.1494 58.3991C46.9736 58.575 46.8748 58.8135 46.8748 59.0622C46.8748 59.3109 46.9736 59.5494 47.1494 59.7253C47.3253 59.9012 47.5638 60 47.8125 60H59.0625C59.3112 60 59.5497 59.9012 59.7256 59.7253C59.9014 59.5494 60.0002 59.3109 60.0002 59.0622C60.0002 58.8135 59.9014 58.575 59.7256 58.3991C59.5497 58.2233 59.3112 58.1245 59.0625 58.1245H57.1875V17.8125ZM23.4375 24.1401C23.4376 24.4183 23.3552 24.6902 23.2007 24.9215C23.0463 25.1528 22.8267 25.3331 22.5697 25.4396C22.3128 25.5462 22.03 25.5741 21.7572 25.5199C21.4844 25.4657 21.2338 25.3318 21.037 25.1351C20.8403 24.9385 20.7064 24.6879 20.6521 24.4151C20.5978 24.1423 20.6256 23.8595 20.732 23.6025C20.8384 23.3456 21.0187 23.1259 21.2499 22.9714C21.4812 22.8168 21.7531 22.7343 22.0312 22.7343C22.404 22.7348 22.7613 22.8831 23.0249 23.1466C23.2885 23.4101 23.4369 23.7674 23.4375 24.1401ZM32.8587 12.1875V15.2242L28.2653 12.1875H32.8587ZM49.6875 12.1875V15.3163L44.9547 12.1875H49.6875ZM41.2038 15.2247L36.6097 12.1875H41.2038V15.2247ZM24.8438 12.1875V15.4431L19.9207 12.1875H24.8438ZM26.7188 13.4129L30.5383 15.9375H26.7188V13.4129ZM34.7337 13.1941L38.8834 15.9375H34.7337V13.1941ZM43.0788 13.1941L47.2284 15.9375H43.0788V13.1941ZM51.5625 13.2865L55.573 15.9375H51.5625V13.2865ZM55.3125 49.6875H52.1837L55.3125 44.9556V49.6875ZM52.2757 32.8591L55.3125 28.2655V32.8591H52.2757ZM51.5625 30.5378V26.2504H54.3979L51.5625 30.5378ZM51.5625 47.2275V43.0787H54.3059L51.5625 47.2275ZM51.5625 34.7337H54.3059L51.5625 38.8829V34.7337ZM55.3125 24.375H52.3677L55.3125 19.9209V24.375ZM51.5625 51.5625H54.2139L51.5625 55.5715V51.5625ZM55.3125 41.2037H52.2752L55.3125 36.6105V41.2037ZM58.125 15.378L53.2993 12.1875H58.125V15.378ZM44.0625 10.3125V2.92687L53.3844 10.3125H44.0625ZM42.1875 2.68884V10.3125H31.2433L42.1875 2.68884ZM17.8125 13.0417L22.1935 15.9375H17.8125V13.0417ZM54.4588 17.8125L51.5625 22.1932V17.8125H54.4588ZM52.1223 58.1245L55.3125 53.3001V58.1245H52.1223ZM8.4375 25.3125C8.4375 25.0638 8.33873 24.8254 8.16291 24.6495C7.9871 24.4737 7.74864 24.375 7.5 24.375C7.25136 24.375 7.0129 24.4737 6.83709 24.6495C6.66127 24.8254 6.5625 25.0638 6.5625 25.3125V27.1875C6.5625 27.4361 6.66127 27.6745 6.83709 27.8504C7.0129 28.0262 7.25136 28.125 7.5 28.125C7.74864 28.125 7.9871 28.0262 8.16291 27.8504C8.33873 27.6745 8.4375 27.4361 8.4375 27.1875V25.3125ZM11.25 28.125C11.4986 28.1249 11.7371 28.0262 11.9129 27.8504C12.0887 27.6745 12.1875 27.4361 12.1875 27.1875V25.3125C12.1875 25.0638 12.0887 24.8254 11.9129 24.6495C11.7371 24.4737 11.4986 24.375 11.25 24.375C11.0014 24.375 10.7629 24.4737 10.5871 24.6495C10.4113 24.8254 10.3125 25.0638 10.3125 25.3125V27.1875C10.3125 27.4361 10.4113 27.6745 10.5871 27.8504C10.7629 28.0262 11.0014 28.1249 11.25 28.125ZM8.4375 14.0625C8.4375 13.8138 8.33873 13.5754 8.16291 13.3995C7.9871 13.2237 7.74864 13.125 7.5 13.125C7.25136 13.125 7.0129 13.2237 6.83709 13.3995C6.66127 13.5754 6.5625 13.8138 6.5625 14.0625V15.9375C6.5625 16.1861 6.66127 16.4245 6.83709 16.6004C7.0129 16.7762 7.25136 16.875 7.5 16.875C7.74864 16.875 7.9871 16.7762 8.16291 16.6004C8.33873 16.4245 8.4375 16.1861 8.4375 15.9375V14.0625ZM11.25 16.875C11.4986 16.8749 11.7371 16.7762 11.9129 16.6004C12.0887 16.4245 12.1875 16.1861 12.1875 15.9375V14.0625C12.1875 13.8138 12.0887 13.5754 11.9129 13.3995C11.7371 13.2237 11.4986 13.125 11.25 13.125C11.0014 13.125 10.7629 13.2237 10.5871 13.3995C10.4113 13.5754 10.3125 13.8138 10.3125 14.0625V15.9375C10.3125 16.1861 10.4113 16.4245 10.5871 16.6004C10.7629 16.7762 11.0014 16.8749 11.25 16.875ZM8.4375 19.6875C8.4375 19.4388 8.33873 19.2004 8.16291 19.0245C7.9871 18.8487 7.74864 18.75 7.5 18.75C7.25136 18.75 7.0129 18.8487 6.83709 19.0245C6.66127 19.2004 6.5625 19.4388 6.5625 19.6875V21.5625C6.5625 21.8111 6.66127 22.0495 6.83709 22.2254C7.0129 22.4012 7.25136 22.5 7.5 22.5C7.74864 22.5 7.9871 22.4012 8.16291 22.2254C8.33873 22.0495 8.4375 21.8111 8.4375 21.5625V19.6875ZM11.25 22.5C11.4986 22.4999 11.7371 22.4012 11.9129 22.2254C12.0887 22.0495 12.1875 21.8111 12.1875 21.5625V19.6875C12.1875 19.4388 12.0887 19.2004 11.9129 19.0245C11.7371 18.8487 11.4986 18.75 11.25 18.75C11.0014 18.75 10.7629 18.8487 10.5871 19.0245C10.4113 19.2004 10.3125 19.4388 10.3125 19.6875V21.5625C10.3125 21.8111 10.4113 22.0495 10.5871 22.2254C10.7629 22.4012 11.0014 22.4999 11.25 22.5ZM8.4375 8.43745C8.4375 8.18881 8.33873 7.95036 8.16291 7.77454C7.9871 7.59872 7.74864 7.49995 7.5 7.49995C7.25136 7.49995 7.0129 7.59872 6.83709 7.77454C6.66127 7.95036 6.5625 8.18881 6.5625 8.43745V10.3125C6.5625 10.5611 6.66127 10.7995 6.83709 10.9754C7.0129 11.1512 7.25136 11.25 7.5 11.25C7.74864 11.25 7.9871 11.1512 8.16291 10.9754C8.33873 10.7995 8.4375 10.5611 8.4375 10.3125V8.43745ZM11.25 11.25C11.4986 11.2499 11.7371 11.1512 11.9129 10.9754C12.0887 10.7995 12.1875 10.5611 12.1875 10.3125V8.43745C12.1875 8.18881 12.0887 7.95036 11.9129 7.77454C11.7371 7.59872 11.4986 7.49995 11.25 7.49995C11.0014 7.49995 10.7629 7.59872 10.5871 7.77454C10.4113 7.95036 10.3125 8.18881 10.3125 8.43745V10.3125C10.3125 10.5611 10.4113 10.7995 10.5871 10.9754C10.7629 11.1512 11.0014 11.2499 11.25 11.25ZM8.4375 30.9375C8.4375 30.6888 8.33873 30.4504 8.16291 30.2745C7.9871 30.0987 7.74864 30 7.5 30C7.25136 30 7.0129 30.0987 6.83709 30.2745C6.66127 30.4504 6.5625 30.6888 6.5625 30.9375V32.8125C6.5625 33.0611 6.66127 33.2995 6.83709 33.4754C7.0129 33.6512 7.25136 33.75 7.5 33.75C7.74864 33.75 7.9871 33.6512 8.16291 33.4754C8.33873 33.2995 8.4375 33.0611 8.4375 32.8125V30.9375ZM11.25 33.75C11.4986 33.7499 11.7371 33.6512 11.9129 33.4754C12.0887 33.2995 12.1875 33.0611 12.1875 32.8125V30.9375C12.1875 30.6888 12.0887 30.4504 11.9129 30.2745C11.7371 30.0987 11.4986 30 11.25 30C11.0014 30 10.7629 30.0987 10.5871 30.2745C10.4113 30.4504 10.3125 30.6888 10.3125 30.9375V32.8125C10.3125 33.0611 10.4113 33.2995 10.5871 33.4754C10.7629 33.6512 11.0014 33.7499 11.25 33.75ZM8.4375 36.5625C8.4375 36.3138 8.33873 36.0754 8.16291 35.8995C7.9871 35.7237 7.74864 35.625 7.5 35.625C7.25136 35.625 7.0129 35.7237 6.83709 35.8995C6.66127 36.0754 6.5625 36.3138 6.5625 36.5625V38.4375C6.5625 38.6861 6.66127 38.9245 6.83709 39.1004C7.0129 39.2762 7.25136 39.375 7.5 39.375C7.74864 39.375 7.9871 39.2762 8.16291 39.1004C8.33873 38.9245 8.4375 38.6861 8.4375 38.4375V36.5625ZM11.25 39.375C11.4986 39.3749 11.7371 39.2762 11.9129 39.1004C12.0887 38.9245 12.1875 38.6861 12.1875 38.4375V36.5625C12.1875 36.3138 12.0887 36.0754 11.9129 35.8995C11.7371 35.7237 11.4986 35.625 11.25 35.625C11.0014 35.625 10.7629 35.7237 10.5871 35.8995C10.4113 36.0754 10.3125 36.3138 10.3125 36.5625V38.4375C10.3125 38.6861 10.4113 38.9245 10.5871 39.1004C10.7629 39.2762 11.0014 39.3749 11.25 39.375ZM8.4375 42.1875C8.4375 41.9388 8.33873 41.7004 8.16291 41.5245C7.9871 41.3487 7.74864 41.25 7.5 41.25C7.25136 41.25 7.0129 41.3487 6.83709 41.5245C6.66127 41.7004 6.5625 41.9388 6.5625 42.1875V44.0625C6.5625 44.3111 6.66127 44.5495 6.83709 44.7254C7.0129 44.9012 7.25136 45 7.5 45C7.74864 45 7.9871 44.9012 8.16291 44.7254C8.33873 44.5495 8.4375 44.3111 8.4375 44.0625V42.1875ZM11.25 45C11.4986 44.9999 11.7371 44.9012 11.9129 44.7254C12.0887 44.5495 12.1875 44.3111 12.1875 44.0625V42.1875C12.1875 41.9388 12.0887 41.7004 11.9129 41.5245C11.7371 41.3487 11.4986 41.25 11.25 41.25C11.0014 41.25 10.7629 41.3487 10.5871 41.5245C10.4113 41.7004 10.3125 41.9388 10.3125 42.1875V44.0625C10.3125 44.3111 10.4113 44.5495 10.5871 44.7254C10.7629 44.9012 11.0014 44.9999 11.25 45ZM8.4375 47.8125C8.4375 47.5638 8.33873 47.3254 8.16291 47.1495C7.9871 46.9737 7.74864 46.875 7.5 46.875C7.25136 46.875 7.0129 46.9737 6.83709 47.1495C6.66127 47.3254 6.5625 47.5638 6.5625 47.8125V49.6875C6.5625 49.9361 6.66127 50.1745 6.83709 50.3504C7.0129 50.5262 7.25136 50.625 7.5 50.625C7.74864 50.625 7.9871 50.5262 8.16291 50.3504C8.33873 50.1745 8.4375 49.9361 8.4375 49.6875V47.8125ZM11.25 50.625C11.4986 50.6249 11.7371 50.5262 11.9129 50.3504C12.0887 50.1745 12.1875 49.9361 12.1875 49.6875V47.8125C12.1875 47.5638 12.0887 47.3254 11.9129 47.1495C11.7371 46.9737 11.4986 46.875 11.25 46.875C11.0014 46.875 10.7629 46.9737 10.5871 47.1495C10.4113 47.3254 10.3125 47.5638 10.3125 47.8125V49.6875C10.3125 49.9361 10.4113 50.1745 10.5871 50.3504C10.7629 50.5262 11.0014 50.6249 11.25 50.625ZM7.5 52.5C7.25136 52.5 7.01291 52.5987 6.8371 52.7746C6.66129 52.9504 6.56251 53.1888 6.5625 53.4375V55.3125C6.5625 55.5611 6.66127 55.7995 6.83709 55.9754C7.0129 56.1512 7.25136 56.25 7.5 56.25C7.74864 56.25 7.9871 56.1512 8.16291 55.9754C8.33873 55.7995 8.4375 55.5611 8.4375 55.3125V53.4375C8.43749 53.1888 8.33871 52.9504 8.1629 52.7746C7.98709 52.5987 7.74864 52.5 7.5 52.5ZM11.25 56.25C11.4986 56.2499 11.7371 56.1512 11.9129 55.9754C12.0887 55.7995 12.1875 55.5611 12.1875 55.3125V53.4375C12.1875 53.1888 12.0887 52.9504 11.9129 52.7745C11.7371 52.5987 11.4986 52.5 11.25 52.5C11.0014 52.5 10.7629 52.5987 10.5871 52.7745C10.4113 52.9504 10.3125 53.1888 10.3125 53.4375V55.3125C10.3125 55.5611 10.4113 55.7995 10.5871 55.9754C10.7629 56.1512 11.0014 56.2499 11.25 56.25ZM20.625 33.75C20.8736 33.7499 21.1121 33.6512 21.2879 33.4754C21.4637 33.2995 21.5625 33.0611 21.5625 32.8125V30.9375C21.5625 30.6888 21.4637 30.4504 21.2879 30.2745C21.1121 30.0987 20.8736 30 20.625 30C20.3764 30 20.1379 30.0987 19.9621 30.2745C19.7863 30.4504 19.6875 30.6888 19.6875 30.9375V32.8125C19.6875 33.0611 19.7863 33.2995 19.9621 33.4754C20.1379 33.6512 20.3764 33.7499 20.625 33.75Z" fill="white"/>
<path d="M24.375 33.75C24.6236 33.75 24.8621 33.6512 25.0379 33.4754C25.2137 33.2996 25.3125 33.0611 25.3125 32.8125V30.9375C25.3125 30.6889 25.2137 30.4504 25.0379 30.2746C24.8621 30.0988 24.6236 30 24.375 30C24.1264 30 23.8879 30.0988 23.7121 30.2746C23.5363 30.4504 23.4375 30.6889 23.4375 30.9375V32.8125C23.4375 33.0611 23.5363 33.2996 23.7121 33.4754C23.8879 33.6512 24.1264 33.75 24.375 33.75ZM19.6875 38.4375C19.6875 38.6861 19.7863 38.9246 19.9621 39.1004C20.1379 39.2762 20.3764 39.375 20.625 39.375C20.8736 39.375 21.1121 39.2762 21.2879 39.1004C21.4637 38.9246 21.5625 38.6861 21.5625 38.4375V36.5625C21.5625 36.3139 21.4637 36.0754 21.2879 35.8996C21.1121 35.7238 20.8736 35.625 20.625 35.625C20.3764 35.625 20.1379 35.7238 19.9621 35.8996C19.7863 36.0754 19.6875 36.3139 19.6875 36.5625V38.4375ZM23.4375 38.4375C23.4375 38.6861 23.5363 38.9246 23.7121 39.1004C23.8879 39.2762 24.1264 39.375 24.375 39.375C24.6236 39.375 24.8621 39.2762 25.0379 39.1004C25.2137 38.9246 25.3125 38.6861 25.3125 38.4375V36.5625C25.3125 36.3139 25.2137 36.0754 25.0379 35.8996C24.8621 35.7238 24.6236 35.625 24.375 35.625C24.1264 35.625 23.8879 35.7238 23.7121 35.8996C23.5363 36.0754 23.4375 36.3139 23.4375 36.5625V38.4375ZM19.6875 44.0625C19.6875 44.3111 19.7863 44.5496 19.9621 44.7254C20.1379 44.9012 20.3764 45 20.625 45C20.8736 45 21.1121 44.9012 21.2879 44.7254C21.4637 44.5496 21.5625 44.3111 21.5625 44.0625V42.1875C21.5625 41.9389 21.4637 41.7004 21.2879 41.5246C21.1121 41.3488 20.8736 41.25 20.625 41.25C20.3764 41.25 20.1379 41.3488 19.9621 41.5246C19.7863 41.7004 19.6875 41.9389 19.6875 42.1875V44.0625ZM23.4375 44.0625C23.4375 44.3111 23.5363 44.5496 23.7121 44.7254C23.8879 44.9012 24.1264 45 24.375 45C24.6236 45 24.8621 44.9012 25.0379 44.7254C25.2137 44.5496 25.3125 44.3111 25.3125 44.0625V42.1875C25.3125 41.9389 25.2137 41.7004 25.0379 41.5246C24.8621 41.3488 24.6236 41.25 24.375 41.25C24.1264 41.25 23.8879 41.3488 23.7121 41.5246C23.5363 41.7004 23.4375 41.9389 23.4375 42.1875V44.0625ZM19.6875 49.6875C19.6875 49.9361 19.7863 50.1746 19.9621 50.3504C20.1379 50.5262 20.3764 50.625 20.625 50.625C20.8736 50.625 21.1121 50.5262 21.2879 50.3504C21.4637 50.1746 21.5625 49.9361 21.5625 49.6875V47.8125C21.5625 47.5639 21.4637 47.3254 21.2879 47.1496C21.1121 46.9738 20.8736 46.875 20.625 46.875C20.3764 46.875 20.1379 46.9738 19.9621 47.1496C19.7863 47.3254 19.6875 47.5639 19.6875 47.8125V49.6875ZM23.4375 49.6875C23.4375 49.9361 23.5363 50.1746 23.7121 50.3504C23.8879 50.5262 24.1264 50.625 24.375 50.625C24.6236 50.625 24.8621 50.5262 25.0379 50.3504C25.2137 50.1746 25.3125 49.9361 25.3125 49.6875V47.8125C25.3125 47.5639 25.2137 47.3254 25.0379 47.1496C24.8621 46.9738 24.6236 46.875 24.375 46.875C24.1264 46.875 23.8879 46.9738 23.7121 47.1496C23.5363 47.3254 23.4375 47.5639 23.4375 47.8125V49.6875ZM19.6875 55.3125C19.6875 55.5611 19.7863 55.7996 19.9621 55.9754C20.1379 56.1512 20.3764 56.25 20.625 56.25C20.8736 56.25 21.1121 56.1512 21.2879 55.9754C21.4637 55.7996 21.5625 55.5611 21.5625 55.3125V53.4375C21.5625 53.1889 21.4637 52.9504 21.2879 52.7746C21.1121 52.5988 20.8736 52.5 20.625 52.5C20.3764 52.5 20.1379 52.5988 19.9621 52.7746C19.7863 52.9504 19.6875 53.1889 19.6875 53.4375V55.3125ZM23.4375 55.3125C23.4375 55.5611 23.5363 55.7996 23.7121 55.9754C23.8879 56.1512 24.1264 56.25 24.375 56.25C24.6236 56.25 24.8621 56.1512 25.0379 55.9754C25.2137 55.7996 25.3125 55.5611 25.3125 55.3125V53.4375C25.3125 53.1889 25.2137 52.9504 25.0379 52.7746C24.8621 52.5988 24.6236 52.5 24.375 52.5C24.1264 52.5 23.8879 52.5988 23.7121 52.7746C23.5363 52.9504 23.4375 53.1889 23.4375 53.4375V55.3125ZM34.6875 36.5625C34.6875 36.3139 34.5887 36.0754 34.4129 35.8996C34.2371 35.7238 33.9986 35.625 33.75 35.625C33.5014 35.625 33.2629 35.7238 33.0871 35.8996C32.9113 36.0754 32.8125 36.3139 32.8125 36.5625V38.4375C32.8125 38.6861 32.9113 38.9246 33.0871 39.1004C33.2629 39.2762 33.5014 39.375 33.75 39.375C33.9986 39.375 34.2371 39.2762 34.4129 39.1004C34.5887 38.9246 34.6875 38.6861 34.6875 38.4375V36.5625ZM37.5 39.375C37.7486 39.375 37.9871 39.2762 38.1629 39.1004C38.3387 38.9246 38.4375 38.6861 38.4375 38.4375V36.5625C38.4375 36.3139 38.3387 36.0754 38.1629 35.8996C37.9871 35.7238 37.7486 35.625 37.5 35.625C37.2514 35.625 37.0129 35.7238 36.8371 35.8996C36.6613 36.0754 36.5625 36.3139 36.5625 36.5625V38.4375C36.5625 38.6861 36.6613 38.9246 36.8371 39.1004C37.0129 39.2762 37.2514 39.375 37.5 39.375ZM34.6875 42.1875C34.6875 41.9389 34.5887 41.7004 34.4129 41.5246C34.2371 41.3488 33.9986 41.25 33.75 41.25C33.5014 41.25 33.2629 41.3488 33.0871 41.5246C32.9113 41.7004 32.8125 41.9389 32.8125 42.1875V44.0625C32.8125 44.3111 32.9113 44.5496 33.0871 44.7254C33.2629 44.9012 33.5014 45 33.75 45C33.9986 45 34.2371 44.9012 34.4129 44.7254C34.5887 44.5496 34.6875 44.3111 34.6875 44.0625V42.1875ZM36.5625 44.0625C36.5625 44.3111 36.6613 44.5496 36.8371 44.7254C37.0129 44.9012 37.2514 45 37.5 45C37.7486 45 37.9871 44.9012 38.1629 44.7254C38.3387 44.5496 38.4375 44.3111 38.4375 44.0625V42.1875C38.4375 41.9389 38.3387 41.7004 38.1629 41.5246C37.9871 41.3488 37.7486 41.25 37.5 41.25C37.2514 41.25 37.0129 41.3488 36.8371 41.5246C36.6613 41.7004 36.5625 41.9389 36.5625 42.1875V44.0625ZM34.6875 47.8125C34.6875 47.5639 34.5887 47.3254 34.4129 47.1496C34.2371 46.9738 33.9986 46.875 33.75 46.875C33.5014 46.875 33.2629 46.9738 33.0871 47.1496C32.9113 47.3254 32.8125 47.5639 32.8125 47.8125V49.6875C32.8125 49.9361 32.9113 50.1746 33.0871 50.3504C33.2629 50.5262 33.5014 50.625 33.75 50.625C33.9986 50.625 34.2371 50.5262 34.4129 50.3504C34.5887 50.1746 34.6875 49.9361 34.6875 49.6875V47.8125ZM36.5625 49.6875C36.5625 49.9361 36.6613 50.1746 36.8371 50.3504C37.0129 50.5262 37.2514 50.625 37.5 50.625C37.7486 50.625 37.9871 50.5262 38.1629 50.3504C38.3387 50.1746 38.4375 49.9361 38.4375 49.6875V47.8125C38.4375 47.5639 38.3387 47.3254 38.1629 47.1496C37.9871 46.9738 37.7486 46.875 37.5 46.875C37.2514 46.875 37.0129 46.9738 36.8371 47.1496C36.6613 47.3254 36.5625 47.5639 36.5625 47.8125V49.6875ZM33.75 52.5C33.5014 52.5 33.2629 52.5988 33.0871 52.7746C32.9113 52.9504 32.8125 53.1889 32.8125 53.4375V55.3125C32.8125 55.5611 32.9113 55.7996 33.0871 55.9754C33.2629 56.1512 33.5014 56.25 33.75 56.25C33.9986 56.25 34.2371 56.1512 34.4129 55.9754C34.5887 55.7996 34.6875 55.5611 34.6875 55.3125V53.4375C34.6875 53.1889 34.5887 52.9504 34.4129 52.7746C34.2371 52.5988 33.9986 52.5 33.75 52.5ZM36.5625 55.3125C36.5625 55.5611 36.6613 55.7996 36.8371 55.9754C37.0129 56.1512 37.2514 56.25 37.5 56.25C37.7486 56.25 37.9871 56.1512 38.1629 55.9754C38.3387 55.7996 38.4375 55.5611 38.4375 55.3125V53.4375C38.4375 53.1889 38.3387 52.9504 38.1629 52.7746C37.9871 52.5988 37.7486 52.5 37.5 52.5C37.2514 52.5 37.0129 52.5988 36.8371 52.7746C36.6613 52.9504 36.5625 53.1889 36.5625 53.4375V55.3125Z" fill="white"/>
<path d="M44.0625 58.125H43.125V33.75C43.125 33.5014 43.0262 33.2629 42.8504 33.0871C42.6746 32.9113 42.4361 32.8125 42.1875 32.8125C41.9389 32.8125 41.7004 32.9113 41.5246 33.0871C41.3488 33.2629 41.25 33.5014 41.25 33.75V58.125H30V29.0625H32.8125C33.0611 29.0625 33.2996 28.9637 33.4754 28.7879C33.6512 28.6121 33.75 28.3736 33.75 28.125C33.75 27.8764 33.6512 27.6379 33.4754 27.4621C33.2996 27.2863 33.0611 27.1875 32.8125 27.1875H29.0625C28.8139 27.1875 28.5754 27.2863 28.3996 27.4621C28.2238 27.6379 28.125 27.8764 28.125 28.125V58.125H16.875V20.1562C16.875 19.9076 16.7762 19.6692 16.6004 19.4933C16.4246 19.3175 16.1861 19.2188 15.9375 19.2188C15.6889 19.2188 15.4504 19.3175 15.2746 19.4933C15.0988 19.6692 15 19.9076 15 20.1562V58.125H3.75V1.875H7.5C7.74864 1.875 7.9871 1.77623 8.16291 1.60041C8.33873 1.4246 8.4375 1.18614 8.4375 0.9375C8.4375 0.68886 8.33873 0.450403 8.16291 0.274587C7.9871 0.0987721 7.74864 0 7.5 0L2.8125 0C2.56386 9.9449e-06 2.32541 0.0987852 2.1496 0.274598C1.97379 0.450412 1.87501 0.688863 1.875 0.9375V58.125H0.9375C0.68886 58.125 0.450403 58.2238 0.274587 58.3996C0.0987721 58.5754 0 58.8139 0 59.0625C0 59.3111 0.0987721 59.5496 0.274587 59.7254C0.450403 59.9012 0.68886 60 0.9375 60H44.0625C44.3111 60 44.5496 59.9012 44.7254 59.7254C44.9012 59.5496 45 59.3111 45 59.0625C45 58.8139 44.9012 58.5754 44.7254 58.3996C44.5496 58.2238 44.3111 58.125 44.0625 58.125Z" fill="white"/>
</g>
<defs>
<clipPath id="clip0_1_464">
<rect width="60" height="60" fill="white"/>
</clipPath>
</defs>
</svg>
