<svg width="67" height="60" viewBox="0 0 67 60" fill="none" xmlns="http://www.w3.org/2000/svg">
<path d="M53.1689 3.72668H13.8291C13.3582 3.72668 12.9749 4.06911 12.9749 4.49075V52.2811C12.9749 52.7029 13.3583 53.0452 13.8291 53.0452H15.0519L15.6482 55.6622C15.7295 56.0176 16.0774 56.2733 16.4837 56.2733H22.5055C22.9118 56.2733 23.2619 56.0177 23.341 55.6613L23.9354 53.0452H42.6645L43.2608 55.6622C43.3421 56.0176 43.6901 56.2733 44.0964 56.2733H50.1181C50.5245 56.2733 50.8724 56.0177 50.9537 55.6622L51.55 53.0452H53.1686C53.6396 53.0452 54.0229 52.7027 54.0229 52.2811V4.49075C54.0231 4.06911 53.6397 3.72668 53.1689 3.72668ZM21.8075 54.7451H17.1797L16.7941 53.0452H22.195L21.8075 54.7451ZM49.4224 54.7451H44.7924L44.4069 53.0452H49.8077L49.4224 54.7451ZM52.3145 51.5169H50.8538H43.361H23.239H15.7482H14.6834V43.4868H52.3144V51.5169H52.3145ZM52.3145 41.9585H14.6835V33.9284H52.3145V41.9585ZM52.3145 32.4001H14.6835V24.3709H52.3145V32.4001ZM52.3145 22.8427H14.6835V14.8125H52.3145V22.8427ZM52.3145 13.2841H14.6835V5.25493H52.3145V13.2841Z" fill="white"/>
<path d="M19.7464 8.32538H17.2108V10.596H19.7464V8.32538Z" fill="white"/>
<path d="M24.5086 8.32538H21.9731V10.596H24.5086V8.32538Z" fill="white"/>
<path d="M29.2708 8.32538H26.7353V10.596H29.2708V8.32538Z" fill="white"/>
<path d="M37.0956 8.72191H37.9187C38.3897 8.72191 38.773 8.37949 38.773 7.95785C38.773 7.53621 38.3896 7.19379 37.9187 7.19379H37.0956C36.6247 7.19379 36.2414 7.53621 36.2414 7.95785C36.2414 8.37949 36.6247 8.72191 37.0956 8.72191ZM37.0956 11.7271H37.9187C38.3897 11.7271 38.773 11.3846 38.773 10.963C38.773 10.5414 38.3896 10.1989 37.9187 10.1989H37.0956C36.6247 10.1989 36.2414 10.5414 36.2414 10.963C36.2414 11.3846 36.6247 11.7271 37.0956 11.7271ZM41.4942 8.72191H42.3173C42.7883 8.72191 43.1715 8.37949 43.1715 7.95785C43.1715 7.53621 42.7881 7.19379 42.3173 7.19379H41.4942C41.0232 7.19379 40.6399 7.53621 40.6399 7.95785C40.6399 8.37949 41.0234 8.72191 41.4942 8.72191ZM41.4942 11.7271H42.3173C42.7883 11.7271 43.1715 11.3846 43.1715 10.963C43.1715 10.5414 42.7881 10.1989 42.3173 10.1989H41.4942C41.0232 10.1989 40.6399 10.5414 40.6399 10.963C40.6399 11.3846 41.0234 11.7271 41.4942 11.7271ZM45.8929 8.72191H46.7139C47.1849 8.72191 47.5682 8.37949 47.5682 7.95785C47.5682 7.53621 47.1847 7.19379 46.7139 7.19379H45.8929C45.4219 7.19379 45.0386 7.53621 45.0386 7.95785C45.0386 8.37949 45.4219 8.72191 45.8929 8.72191ZM45.8929 11.7271H46.7139C47.1849 11.7271 47.5682 11.3846 47.5682 10.963C47.5682 10.5414 47.1847 10.1989 46.7139 10.1989H45.8929C45.4219 10.1989 45.0386 10.5414 45.0386 10.963C45.0386 11.3846 45.4219 11.7271 45.8929 11.7271Z" fill="white"/>
<path d="M19.7464 17.6923H17.2108V19.9629H19.7464V17.6923Z" fill="white"/>
<path d="M24.5086 17.6923H21.9731V19.9629H24.5086V17.6923Z" fill="white"/>
<path d="M29.2708 17.6923H26.7353V19.9629H29.2708V17.6923Z" fill="white"/>
<path d="M37.0956 18.089H37.9187C38.3897 18.089 38.773 17.7466 38.773 17.325C38.773 16.9032 38.3896 16.5609 37.9187 16.5609H37.0956C36.6247 16.5609 36.2414 16.9033 36.2414 17.325C36.2414 17.7466 36.6247 18.089 37.0956 18.089ZM37.0956 21.0942H37.9187C38.3897 21.0942 38.773 20.7518 38.773 20.3301C38.773 19.9084 38.3896 19.5661 37.9187 19.5661H37.0956C36.6247 19.5661 36.2414 19.9085 36.2414 20.3301C36.2414 20.7518 36.6247 21.0942 37.0956 21.0942ZM41.4942 18.089H42.3173C42.7883 18.089 43.1715 17.7466 43.1715 17.325C43.1715 16.9032 42.7881 16.5609 42.3173 16.5609H41.4942C41.0232 16.5609 40.6399 16.9033 40.6399 17.325C40.6399 17.7466 41.0234 18.089 41.4942 18.089ZM41.4942 21.0942H42.3173C42.7883 21.0942 43.1715 20.7518 43.1715 20.3301C43.1715 19.9084 42.7881 19.5661 42.3173 19.5661H41.4942C41.0232 19.5661 40.6399 19.9085 40.6399 20.3301C40.6399 20.7518 41.0234 21.0942 41.4942 21.0942ZM45.8929 18.089H46.7139C47.1849 18.089 47.5682 17.7466 47.5682 17.325C47.5682 16.9032 47.1847 16.5609 46.7139 16.5609H45.8929C45.4219 16.5609 45.0386 16.9033 45.0386 17.325C45.0385 17.7466 45.4219 18.089 45.8929 18.089ZM45.8929 21.0942H46.7139C47.1849 21.0942 47.5682 20.7518 47.5682 20.3301C47.5682 19.9084 47.1847 19.5661 46.7139 19.5661H45.8929C45.4219 19.5661 45.0386 19.9085 45.0386 20.3301C45.0385 20.7518 45.4219 21.0942 45.8929 21.0942Z" fill="white"/>
<path d="M19.7464 27.0589H17.2108V29.3295H19.7464V27.0589Z" fill="white"/>
<path d="M24.5086 27.0589H21.9731V29.3295H24.5086V27.0589Z" fill="white"/>
<path d="M29.2708 27.0589H26.7353V29.3295H29.2708V27.0589Z" fill="white"/>
<path d="M37.0956 27.4563H37.9187C38.3897 27.4563 38.773 27.1139 38.773 26.6922C38.773 26.2706 38.3896 25.9282 37.9187 25.9282H37.0956C36.6247 25.9282 36.2414 26.2706 36.2414 26.6922C36.2414 27.1139 36.6247 27.4563 37.0956 27.4563ZM37.0956 30.4614H37.9187C38.3897 30.4614 38.773 30.119 38.773 29.6974C38.773 29.2756 38.3896 28.9333 37.9187 28.9333H37.0956C36.6247 28.9333 36.2414 29.2757 36.2414 29.6974C36.2414 30.119 36.6247 30.4614 37.0956 30.4614ZM41.4942 27.4563H42.3173C42.7883 27.4563 43.1715 27.1139 43.1715 26.6922C43.1715 26.2706 42.7881 25.9282 42.3173 25.9282H41.4942C41.0232 25.9282 40.6399 26.2706 40.6399 26.6922C40.6399 27.1139 41.0234 27.4563 41.4942 27.4563ZM41.4942 30.4614H42.3173C42.7883 30.4614 43.1715 30.119 43.1715 29.6974C43.1715 29.2756 42.7881 28.9333 42.3173 28.9333H41.4942C41.0232 28.9333 40.6399 29.2757 40.6399 29.6974C40.6399 30.119 41.0234 30.4614 41.4942 30.4614ZM45.8929 27.4563H46.7139C47.1849 27.4563 47.5682 27.1139 47.5682 26.6922C47.5682 26.2706 47.1847 25.9282 46.7139 25.9282H45.8929C45.4219 25.9282 45.0386 26.2706 45.0386 26.6922C45.0386 27.1139 45.4219 27.4563 45.8929 27.4563ZM45.8929 30.4614H46.7139C47.1849 30.4614 47.5682 30.119 47.5682 29.6974C47.5682 29.2756 47.1847 28.9333 46.7139 28.9333H45.8929C45.4219 28.9333 45.0386 29.2757 45.0386 29.6974C45.0385 30.119 45.4219 30.4614 45.8929 30.4614Z" fill="white"/>
<path d="M19.7464 36.426H17.2108V38.6966H19.7464V36.426Z" fill="white"/>
<path d="M24.5086 36.426H21.9731V38.6966H24.5086V36.426Z" fill="white"/>
<path d="M29.2708 36.426H26.7353V38.6966H29.2708V36.426Z" fill="white"/>
<path d="M37.0956 36.8224H37.9187C38.3897 36.8224 38.773 36.48 38.773 36.0584C38.773 35.6366 38.3896 35.2943 37.9187 35.2943H37.0956C36.6247 35.2943 36.2414 35.6367 36.2414 36.0584C36.2414 36.48 36.6247 36.8224 37.0956 36.8224ZM37.0956 39.8276H37.9187C38.3897 39.8276 38.773 39.4852 38.773 39.0635C38.773 38.6418 38.3896 38.2995 37.9187 38.2995H37.0956C36.6247 38.2995 36.2414 38.6419 36.2414 39.0635C36.2414 39.4852 36.6247 39.8276 37.0956 39.8276ZM41.4942 36.8224H42.3173C42.7883 36.8224 43.1715 36.48 43.1715 36.0584C43.1715 35.6366 42.7881 35.2943 42.3173 35.2943H41.4942C41.0232 35.2943 40.6399 35.6367 40.6399 36.0584C40.6399 36.48 41.0234 36.8224 41.4942 36.8224ZM41.4942 39.8276H42.3173C42.7883 39.8276 43.1715 39.4852 43.1715 39.0635C43.1715 38.6418 42.7881 38.2995 42.3173 38.2995H41.4942C41.0232 38.2995 40.6399 38.6419 40.6399 39.0635C40.6399 39.4852 41.0234 39.8276 41.4942 39.8276ZM45.8929 36.8224H46.7139C47.1849 36.8224 47.5682 36.48 47.5682 36.0584C47.5682 35.6366 47.1847 35.2943 46.7139 35.2943H45.8929C45.4219 35.2943 45.0386 35.6367 45.0386 36.0584C45.0385 36.48 45.4219 36.8224 45.8929 36.8224ZM45.8929 39.8276H46.7139C47.1849 39.8276 47.5682 39.4852 47.5682 39.0635C47.5682 38.6418 47.1847 38.2995 46.7139 38.2995H45.8929C45.4219 38.2995 45.0386 38.6419 45.0386 39.0635C45.0385 39.4852 45.4219 39.8276 45.8929 39.8276Z" fill="white"/>
<path d="M19.7464 45.7927H17.2108V48.0633H19.7464V45.7927Z" fill="white"/>
<path d="M24.5086 45.7927H21.9731V48.0633H24.5086V45.7927Z" fill="white"/>
<path d="M29.2708 45.7927H26.7353V48.0633H29.2708V45.7927Z" fill="white"/>
<path d="M37.0956 46.1895H37.9187C38.3897 46.1895 38.773 45.8471 38.773 45.4254C38.773 45.0038 38.3896 44.6614 37.9187 44.6614H37.0956C36.6247 44.6614 36.2414 45.0038 36.2414 45.4254C36.2414 45.8471 36.6247 46.1895 37.0956 46.1895ZM37.0956 49.1947H37.9187C38.3897 49.1947 38.773 48.8522 38.773 48.4306C38.773 48.0088 38.3896 47.6665 37.9187 47.6665H37.0956C36.6247 47.6665 36.2414 48.009 36.2414 48.4306C36.2414 48.8523 36.6247 49.1947 37.0956 49.1947ZM41.4942 46.1895H42.3173C42.7883 46.1895 43.1715 45.8471 43.1715 45.4254C43.1715 45.0038 42.7881 44.6614 42.3173 44.6614H41.4942C41.0232 44.6614 40.6399 45.0038 40.6399 45.4254C40.6399 45.8471 41.0234 46.1895 41.4942 46.1895ZM41.4942 49.1947H42.3173C42.7883 49.1947 43.1715 48.8522 43.1715 48.4306C43.1715 48.0088 42.7881 47.6665 42.3173 47.6665H41.4942C41.0232 47.6665 40.6399 48.009 40.6399 48.4306C40.6399 48.8523 41.0234 49.1947 41.4942 49.1947ZM45.8929 46.1895H46.7139C47.1849 46.1895 47.5682 45.8471 47.5682 45.4254C47.5682 45.0038 47.1847 44.6614 46.7139 44.6614H45.8929C45.4219 44.6614 45.0386 45.0038 45.0386 45.4254C45.0386 45.8471 45.4219 46.1895 45.8929 46.1895ZM45.8929 49.1947H46.7139C47.1849 49.1947 47.5682 48.8522 47.5682 48.4306C47.5682 48.0088 47.1847 47.6665 46.7139 47.6665H45.8929C45.4219 47.6665 45.0386 48.009 45.0386 48.4306C45.0385 48.8523 45.4219 49.1947 45.8929 49.1947Z" fill="white"/>
</svg>
