<svg width="63" height="60" viewBox="0 0 63 60" fill="none" xmlns="http://www.w3.org/2000/svg">
<path d="M31.5 33.75C33.6746 33.75 35.4375 32.0711 35.4375 30C35.4375 27.9289 33.6746 26.25 31.5 26.25C29.3254 26.25 27.5625 27.9289 27.5625 30C27.5625 32.0711 29.3254 33.75 31.5 33.75Z" stroke="white" stroke-miterlimit="10"/>
<path d="M31.5 58.75C36.5741 58.75 40.6875 45.8782 40.6875 30C40.6875 14.1218 36.5741 1.25 31.5 1.25C26.4259 1.25 22.3125 14.1218 22.3125 30C22.3125 45.8782 26.4259 58.75 31.5 58.75Z" stroke="white" stroke-miterlimit="10"/>
<path d="M36.75 7.5C37.4749 7.5 38.0625 6.94036 38.0625 6.25C38.0625 5.55964 37.4749 5 36.75 5C36.0251 5 35.4375 5.55964 35.4375 6.25C35.4375 6.94036 36.0251 7.5 36.75 7.5Z" stroke="white" stroke-miterlimit="10"/>
<path d="M36.222 22.5001C51.1845 30.5001 61.1595 40.2501 58.5345 44.5001C55.9095 48.7501 41.472 45.5001 26.5095 37.5001C11.547 29.5001 1.83445 19.7501 4.45945 15.7501C7.08445 11.7501 21.2595 14.5001 36.222 22.5001Z" stroke="white" stroke-width="1.019" stroke-miterlimit="10"/>
<path d="M26.773 22.5001C41.7355 14.5001 56.173 11.5001 58.798 15.7501C61.423 20.0001 51.448 29.7501 36.4855 37.5001C21.523 45.2501 7.08545 48.5001 4.46045 44.5001C1.83545 40.5001 11.8105 30.2501 26.773 22.5001Z" stroke="white" stroke-width="1.019" stroke-miterlimit="10"/>
<path d="M7.20551 38.5971C7.83326 38.2519 8.04835 37.4874 7.68591 36.8895C7.32348 36.2917 6.52076 36.0868 5.89301 36.432C5.26525 36.7772 5.05016 37.5417 5.4126 38.1395C5.77503 38.7374 6.57775 38.9423 7.20551 38.5971Z" stroke="white" stroke-miterlimit="10"/>
<path d="M51.0006 46.9236C51.363 46.3257 51.148 45.5612 50.5202 45.216C49.8924 44.8709 49.0897 45.0757 48.7273 45.6736C48.3649 46.2714 48.5799 47.0359 49.2077 47.3811C49.8355 47.7263 50.6382 47.5214 51.0006 46.9236Z" stroke="white" stroke-miterlimit="10"/>
</svg>
