<svg width="60" height="60" viewBox="0 0 60 60" fill="none" xmlns="http://www.w3.org/2000/svg">
<g clip-path="url(#clip0_1_472)">
<path d="M38.2125 23.2969H25.3781C25.317 23.2982 25.2563 23.2872 25.1994 23.2647C25.1426 23.2422 25.0909 23.2085 25.0472 23.1657C25.0036 23.123 24.9689 23.0719 24.9452 23.0155C24.9215 22.9592 24.9093 22.8987 24.9094 22.8375V20.8782C24.9093 20.817 24.9215 20.7565 24.9452 20.7002C24.9689 20.6438 25.0036 20.5928 25.0472 20.55C25.0909 20.5072 25.1426 20.4736 25.1994 20.451C25.2563 20.4285 25.317 20.4175 25.3781 20.4188H38.2125C38.3343 20.4188 38.4512 20.4672 38.5373 20.5533C38.6235 20.6395 38.6719 20.7563 38.6719 20.8782V22.8375C38.6719 22.9594 38.6235 23.0762 38.5373 23.1624C38.4512 23.2485 38.3343 23.2969 38.2125 23.2969ZM25.8375 22.3594H37.7531V21.3375H25.8375V22.3594ZM40.6125 39.75H22.9781C22.917 39.7513 22.8563 39.7403 22.7994 39.7178C22.7426 39.6953 22.6909 39.6616 22.6472 39.6189C22.6036 39.5761 22.5689 39.525 22.5452 39.4687C22.5215 39.4123 22.5093 39.3518 22.5094 39.2907V37.3313C22.5093 37.2702 22.5215 37.2097 22.5452 37.1533C22.5689 37.097 22.6036 37.0459 22.6472 37.0031C22.6909 36.9603 22.7426 36.9267 22.7994 36.9042C22.8563 36.8816 22.917 36.8707 22.9781 36.8719H40.6125C40.7343 36.8719 40.8512 36.9203 40.9373 37.0065C41.0235 37.0926 41.0719 37.2095 41.0719 37.3313V39.2907C41.0719 39.4125 41.0235 39.5293 40.9373 39.6155C40.8512 39.7016 40.7343 39.75 40.6125 39.75ZM23.4375 38.8313H40.1531V37.7907H23.4375V38.8313ZM58.7625 60H1.23749C1.17638 60.0013 1.11563 59.9903 1.05881 59.9678C1.00199 59.9453 0.950238 59.9116 0.906583 59.8689C0.862928 59.8261 0.82825 59.775 0.80458 59.7187C0.780911 59.6623 0.768725 59.6018 0.768738 59.5407V56.4657C0.768725 56.4045 0.780911 56.344 0.80458 56.2877C0.82825 56.2313 0.862928 56.1803 0.906583 56.1375C0.950238 56.0947 1.00199 56.0611 1.05881 56.0385C1.11563 56.016 1.17638 56.005 1.23749 56.0063H58.7625C58.8236 56.005 58.8843 56.016 58.9412 56.0385C58.998 56.0611 59.0497 56.0947 59.0934 56.1375C59.1371 56.1803 59.1717 56.2313 59.1954 56.2877C59.2191 56.344 59.2313 56.4045 59.2312 56.4657V59.5407C59.2313 59.6018 59.2191 59.6623 59.1954 59.7187C59.1717 59.775 59.1371 59.8261 59.0934 59.8689C59.0497 59.9116 58.998 59.9453 58.9412 59.9678C58.8843 59.9903 58.8236 60.0013 58.7625 60ZM1.69686 59.0625H58.3031V56.9063H1.69686V59.0625Z" fill="white"/>
<path d="M39.2345 37.8C39.1479 37.798 39.0635 37.7721 38.9907 37.725L25.397 29.2875C25.3276 29.2442 25.271 29.1831 25.2331 29.1106C25.1951 29.0381 25.1773 28.9568 25.1814 28.875C25.1825 28.7935 25.2058 28.7137 25.2487 28.6444C25.2916 28.575 25.3526 28.5187 25.4251 28.4813L36.8157 22.4625C36.8799 22.4255 36.9526 22.406 37.0267 22.406C37.1007 22.406 37.1735 22.4255 37.2376 22.4625C37.3032 22.4951 37.3603 22.5426 37.4043 22.6012C37.4482 22.6598 37.4778 22.7279 37.4907 22.8L39.6939 37.3032C39.7049 37.3899 39.6914 37.4781 39.655 37.5576C39.6185 37.6371 39.5605 37.7049 39.4876 37.7532C39.41 37.7942 39.3217 37.8105 39.2345 37.8ZM26.5595 28.8844L38.6251 36.3844L36.6751 23.5407L26.5595 28.8844ZM42.1314 56.925C42.059 56.9239 41.988 56.9045 41.9251 56.8688L22.7626 46.875C22.684 46.8369 22.6182 46.7767 22.5733 46.7017C22.5283 46.6268 22.5062 46.5405 22.5095 46.4531C22.5127 46.3649 22.5409 46.2793 22.5906 46.2063C22.6404 46.1334 22.7097 46.0759 22.7907 46.0407L39.3751 38.8594H39.5157H39.647C39.7124 38.8774 39.7732 38.9094 39.8251 38.9531C39.9088 39.0298 39.9648 39.132 39.9845 39.2438L42.5814 56.4094C42.5955 56.4944 42.5854 56.5817 42.5522 56.6613C42.5191 56.7409 42.4642 56.8095 42.3939 56.8594C42.3152 56.9077 42.2235 56.9306 42.1314 56.925ZM24.047 46.4719L41.5407 55.6313L39.1689 39.9375L24.047 46.4719Z" fill="white"/>
<path d="M24.3749 37.8C24.284 37.7981 24.1957 37.7687 24.1218 37.7156C24.048 37.6686 23.9899 37.6007 23.9548 37.5206C23.9198 37.4404 23.9094 37.3517 23.9249 37.2656L26.128 22.7625C26.1377 22.6905 26.165 22.622 26.2075 22.5631C26.2501 22.5042 26.3065 22.4568 26.3718 22.425C26.4359 22.3879 26.5087 22.3684 26.5827 22.3684C26.6568 22.3684 26.7295 22.3879 26.7937 22.425L38.1937 28.4437C38.2636 28.4852 38.3216 28.5442 38.3618 28.6149C38.4021 28.6856 38.4232 28.7655 38.4232 28.8468C38.4232 28.9282 38.4021 29.0081 38.3618 29.0788C38.3216 29.1495 38.2636 29.2085 38.1937 29.25L24.5905 37.6875C24.5298 37.7433 24.4554 37.7821 24.3749 37.8ZM26.9437 23.5406L24.9562 36.4125L37.0218 28.9125L26.9437 23.5406ZM21.4499 56.925C21.3529 56.9245 21.2583 56.8951 21.178 56.8406C21.1077 56.7907 21.0528 56.7221 21.0197 56.6425C20.9865 56.5629 20.9764 56.4756 20.9905 56.3906L23.6062 39.2156C23.6164 39.145 23.6428 39.0778 23.6835 39.0192C23.7242 38.9606 23.778 38.9123 23.8405 38.8781C23.9035 38.8481 23.9724 38.8325 24.0421 38.8325C24.1118 38.8325 24.1807 38.8481 24.2437 38.8781L40.7999 46.0218C40.8785 46.0593 40.9454 46.1176 40.9933 46.1903C41.0412 46.2629 41.0683 46.3473 41.0718 46.4343C41.076 46.5206 41.0552 46.6063 41.012 46.6811C40.9687 46.7559 40.9049 46.8167 40.828 46.8562L21.6655 56.8687C21.5998 56.906 21.5255 56.9254 21.4499 56.925ZM24.4218 39.9468L22.0405 55.6312L39.5437 46.4718L24.4218 39.9468ZM56.0437 56.925C55.9218 56.925 55.805 56.8766 55.7188 56.7904C55.6327 56.7043 55.5843 56.5874 55.5843 56.4656V50.0812H50.9905V56.4656C50.9905 56.5899 50.9412 56.7091 50.8533 56.797C50.7653 56.885 50.6461 56.9343 50.5218 56.9343C50.3975 56.9343 50.2782 56.885 50.1903 56.797C50.1024 56.7091 50.053 56.5899 50.053 56.4656V49.6218C50.0518 49.5607 50.0628 49.5 50.0853 49.4432C50.1078 49.3863 50.1415 49.3346 50.1842 49.2909C50.227 49.2473 50.2781 49.2126 50.3344 49.1889C50.3908 49.1653 50.4513 49.1531 50.5124 49.1531H56.0249C56.086 49.1531 56.1466 49.1653 56.2029 49.1889C56.2593 49.2126 56.3103 49.2473 56.3531 49.2909C56.3959 49.3346 56.4295 49.3863 56.4521 49.4432C56.4746 49.5 56.4855 49.5607 56.4843 49.6218V56.4656C56.4844 56.5842 56.4386 56.6983 56.3564 56.784C56.2743 56.8696 56.1622 56.9201 56.0437 56.925ZM11.9437 56.925C11.8218 56.925 11.705 56.8766 11.6188 56.7904C11.5327 56.7043 11.4843 56.5874 11.4843 56.4656V47.7H4.3968V56.4656C4.3968 56.5899 4.34741 56.7091 4.2595 56.797C4.17159 56.885 4.05237 56.9343 3.92805 56.9343C3.80373 56.9343 3.6845 56.885 3.59659 56.797C3.50868 56.7091 3.4593 56.5899 3.4593 56.4656V47.2406C3.45927 47.1179 3.50737 47 3.59326 46.9124C3.67915 46.8248 3.79598 46.7743 3.91867 46.7718H11.9249C12.0476 46.7743 12.1644 46.8248 12.2503 46.9124C12.3362 47 12.3843 47.1179 12.3843 47.2406V56.4656C12.3844 56.5842 12.3386 56.6983 12.2564 56.784C12.1743 56.8696 12.0622 56.9201 11.9437 56.925ZM7.94055 19.0031C7.87458 19.0036 7.80931 18.9895 7.74937 18.962C7.68943 18.9345 7.63627 18.8941 7.59367 18.8437C2.90617 13.35 2.99992 7.94059 3.2718 5.86871C3.37582 5.13685 3.74639 4.46916 4.31242 3.99371L8.86867 0.112462C8.92472 0.0641879 8.99084 0.0290365 9.0622 0.00957342C9.13357 -0.00988963 9.20837 -0.0131732 9.28117 -3.77363e-05C9.35003 0.0187344 9.4137 0.0529849 9.46732 0.100102C9.52093 0.147218 9.56308 0.205957 9.59055 0.271837L12.1874 6.56246C12.2291 6.66462 12.2291 6.77905 12.1874 6.88121L8.38117 18.6843C8.35609 18.7621 8.31072 18.8318 8.24975 18.8861C8.18878 18.9405 8.1144 18.9776 8.0343 18.9937L7.94055 19.0031ZM8.98117 1.19059L4.91242 4.68746C4.51303 5.02073 4.25503 5.49318 4.19055 6.00934C3.97677 8.08315 4.18286 10.1788 4.79654 12.1712C5.41021 14.1636 6.4189 16.0121 7.76242 17.6062L11.2499 6.78746L8.98117 1.19059Z" fill="white"/>
<path d="M51.6562 21.1875C51.6097 21.1963 51.562 21.1963 51.5156 21.1875L11.3531 8.06246C11.2417 8.02388 11.1495 7.94397 11.0954 7.83928C11.0413 7.73458 11.0295 7.61311 11.0625 7.49996C11.0804 7.44197 11.1099 7.38821 11.1492 7.34192C11.1885 7.29563 11.2368 7.25777 11.2911 7.23061C11.3454 7.20346 11.4046 7.18758 11.4652 7.18392C11.5258 7.18027 11.5865 7.18891 11.6437 7.20934L51.8062 20.3343C51.9204 20.3749 52.0144 20.4581 52.0686 20.5664C52.1228 20.6748 52.1329 20.7999 52.0968 20.9156C52.0572 20.9984 51.9946 21.0681 51.9165 21.1163C51.8384 21.1645 51.748 21.1892 51.6562 21.1875ZM50.8218 23.7468C50.7754 23.7559 50.7276 23.7559 50.6812 23.7468L10.5187 10.6218C10.4607 10.6039 10.4069 10.5744 10.3607 10.5351C10.3144 10.4958 10.2765 10.4475 10.2494 10.3932C10.2222 10.3389 10.2063 10.2797 10.2027 10.2191C10.199 10.1585 10.2076 10.0978 10.2281 10.0406C10.2462 9.98249 10.2756 9.92856 10.3148 9.88194C10.3539 9.83533 10.4019 9.79695 10.456 9.76904C10.51 9.74112 10.5691 9.72424 10.6298 9.71935C10.6905 9.71447 10.7515 9.72169 10.8093 9.74059L50.9718 22.8656C51.0961 22.8855 51.2075 22.9539 51.2813 23.0559C51.3552 23.1579 51.3855 23.285 51.3656 23.4093C51.3457 23.5337 51.2772 23.645 51.1753 23.7188C51.0733 23.7927 50.9461 23.823 50.8218 23.8031V23.7468Z" fill="white"/>
<path d="M53.2875 25.6782C52.9688 25.6806 52.652 25.6299 52.35 25.5282C51.6008 25.281 50.9786 24.7495 50.6174 24.0482C50.2562 23.3468 50.1849 22.5316 50.4187 21.7782C50.5381 21.3981 50.7318 21.0456 50.9884 20.7409C51.2451 20.4363 51.5597 20.1857 51.914 20.0036C52.2683 19.8214 52.6552 19.7115 53.0523 19.68C53.4495 19.6486 53.8489 19.6963 54.2274 19.8204C54.6059 19.9446 54.956 20.1426 55.2574 20.403C55.5588 20.6635 55.8055 20.9812 55.9832 21.3377C56.1609 21.6942 56.266 22.0825 56.2925 22.48C56.319 22.8774 56.2663 23.2762 56.1375 23.6532C55.8749 24.3789 55.3404 24.9739 54.6469 25.3125C54.231 25.5451 53.7639 25.6707 53.2875 25.6782ZM53.2875 20.5875C52.9618 20.5888 52.6408 20.6659 52.35 20.8125C52.1051 20.9361 51.8876 21.1077 51.7104 21.3171C51.5333 21.5264 51.4001 21.7693 51.3187 22.0313C51.1498 22.556 51.1949 23.1262 51.4442 23.6178C51.6935 24.1094 52.1269 24.4826 52.65 24.6563C53.177 24.8233 53.7482 24.7796 54.2437 24.5344C54.4886 24.4109 54.7061 24.2393 54.8833 24.0299C55.0605 23.8205 55.1937 23.5776 55.275 23.3157C55.3626 23.057 55.3969 22.7833 55.376 22.511C55.355 22.2388 55.2792 21.9735 55.1531 21.7313C54.9026 21.2388 54.4681 20.8649 53.9437 20.6907C53.7295 20.6363 53.5083 20.6142 53.2875 20.625V20.5875ZM7.94063 45.2907C7.82207 45.2858 7.70999 45.2353 7.62785 45.1497C7.54572 45.064 7.4999 44.95 7.5 44.8313V18.5813C7.5 18.457 7.54939 18.3377 7.63729 18.2498C7.7252 18.1619 7.84443 18.1125 7.96875 18.1125C8.09307 18.1125 8.2123 18.1619 8.30021 18.2498C8.38811 18.3377 8.4375 18.457 8.4375 18.5813V44.8313C8.43771 44.8949 8.42471 44.9579 8.39932 45.0162C8.37392 45.0745 8.33669 45.127 8.28998 45.1701C8.24327 45.2133 8.18809 45.2463 8.12796 45.2671C8.06782 45.2878 8.00403 45.2959 7.94063 45.2907Z" fill="white"/>
<path d="M9.25321 47.7C9.13138 47.7 9.01453 47.6516 8.92838 47.5654C8.84223 47.4793 8.79384 47.3624 8.79384 47.2406C8.79384 46.0499 8.28759 45.2906 7.94071 45.2906C7.59384 45.2906 7.08759 46.0499 7.08759 47.2406C7.08759 47.3649 7.0382 47.4841 6.95029 47.572C6.86238 47.6599 6.74316 47.7093 6.61884 47.7093C6.49452 47.7093 6.37529 47.6599 6.28738 47.572C6.19947 47.4841 6.15009 47.3649 6.15009 47.2406C6.15009 45.6 6.90946 44.3718 7.92196 44.3718C8.93446 44.3718 9.69384 45.6 9.69384 47.2406C9.69393 47.3592 9.64812 47.4733 9.56598 47.559C9.48385 47.6446 9.37177 47.6951 9.25321 47.7ZM53.2876 50.0718C53.2273 50.0718 53.1675 50.0599 53.1118 50.0369C53.0561 50.0138 53.0054 49.9799 52.9628 49.9373C52.9201 49.8946 52.8863 49.844 52.8632 49.7882C52.8401 49.7325 52.8282 49.6728 52.8282 49.6124V25.2375C52.8282 25.1131 52.8776 24.9939 52.9655 24.906C53.0534 24.8181 53.1726 24.7687 53.297 24.7687C53.4213 24.7687 53.5405 24.8181 53.6284 24.906C53.7163 24.9939 53.7657 25.1131 53.7657 25.2375V49.6124C53.7658 49.6744 53.7533 49.7357 53.729 49.7927C53.7048 49.8497 53.6693 49.9012 53.6246 49.9441C53.5799 49.987 53.5271 50.0204 53.4691 50.0424C53.4112 50.0643 53.3495 50.0744 53.2876 50.0718ZM35.4001 21.3468C35.339 21.3468 35.2785 21.3347 35.2221 21.311C35.1657 21.2873 35.1147 21.2526 35.0719 21.209C35.0291 21.1653 34.9955 21.1136 34.973 21.0568C34.9504 20.9999 34.9395 20.9392 34.9407 20.8781C34.8968 20.0736 34.5462 19.3165 33.9612 18.7625C33.3762 18.2086 32.6011 17.8999 31.7954 17.8999C30.9897 17.8999 30.2146 18.2086 29.6296 18.7625C29.0446 19.3165 28.694 20.0736 28.6501 20.8781C28.6501 21.0024 28.6007 21.1216 28.5128 21.2095C28.4249 21.2974 28.3057 21.3468 28.1813 21.3468C28.057 21.3468 27.9378 21.2974 27.8499 21.2095C27.762 21.1216 27.7126 21.0024 27.7126 20.8781C27.7126 19.799 28.1413 18.7641 28.9043 18.001C29.6673 17.238 30.7022 16.8093 31.7813 16.8093C32.8604 16.8093 33.8953 17.238 34.6584 18.001C35.4214 18.7641 35.8501 19.799 35.8501 20.8781C35.8513 20.9384 35.8407 20.9984 35.8187 21.0546C35.7968 21.1108 35.764 21.1621 35.7222 21.2057C35.6804 21.2492 35.6305 21.2841 35.5752 21.3083C35.5199 21.3325 35.4604 21.3456 35.4001 21.3468Z" fill="white"/>
</g>
<defs>
<clipPath id="clip0_1_472">
<rect width="60" height="60" fill="white"/>
</clipPath>
</defs>
</svg>
