<svg width="64" height="60" viewBox="0 0 64 60" fill="none" xmlns="http://www.w3.org/2000/svg">
<path d="M57 22.0313V11.7188C57.0019 11.1865 56.8428 10.6647 56.5409 10.2139C56.2391 9.76316 55.8071 9.40192 55.295 9.17218C54.7829 8.94244 54.2118 8.85365 53.648 8.9161C53.0842 8.97856 52.5509 9.1897 52.11 9.52501C45.5785 14.5999 37.4722 17.5595 29 17.9625V17.8125C29 17.5639 28.8946 17.3254 28.7071 17.1496C28.5196 16.9738 28.2652 16.875 28 16.875H11C10.2044 16.875 9.44129 17.1713 8.87868 17.6988C8.31607 18.2262 8 18.9416 8 19.6875V20.625H6C5.20435 20.625 4.44129 20.9213 3.87868 21.4488C3.31607 21.9762 3 22.6916 3 23.4375V28.125C3 28.8709 3.31607 29.5863 3.87868 30.1137C4.44129 30.6412 5.20435 30.9375 6 30.9375H8V31.875C8 32.6209 8.31607 33.3363 8.87868 33.8637C9.44129 34.3912 10.2044 34.6875 11 34.6875H17.3L22.61 50.5313C22.8014 51.1019 23.1819 51.6005 23.6963 51.9545C24.2106 52.3086 24.8319 52.4996 25.47 52.5H30.27C30.7409 52.4997 31.2051 52.3956 31.625 52.1959C32.045 51.9962 32.4089 51.7067 32.6874 51.3507C32.9659 50.9947 33.151 50.5823 33.2279 50.1468C33.3048 49.7112 33.2713 49.2649 33.13 48.8438L28.34 34.6219C28.5317 34.5569 28.6976 34.4386 28.8156 34.2828C28.9335 34.127 28.9979 33.9411 29 33.75V33.6188C37.4722 34.0218 45.5785 36.9814 52.11 42.0563C52.5542 42.3942 53.0922 42.6061 53.6605 42.6669C54.2289 42.7277 54.804 42.6349 55.3179 42.3994C55.8319 42.1639 56.2633 41.7955 56.5614 41.3377C56.8594 40.88 57.0116 40.3518 57 39.8156V29.5031C58.0609 29.5031 59.0783 29.108 59.8284 28.4048C60.5786 27.7015 61 26.7477 61 25.7531C61 24.7586 60.5786 23.8047 59.8284 23.1015C59.0783 22.3982 58.0609 22.0031 57 22.0031V22.0313ZM6 29.0625C5.73478 29.0625 5.48043 28.9637 5.29289 28.7879C5.10536 28.6121 5 28.3736 5 28.125V23.4375C5 23.1889 5.10536 22.9504 5.29289 22.7746C5.48043 22.5988 5.73478 22.5 6 22.5H8V29.0625H6ZM10 31.875V19.6875C10 19.4389 10.1054 19.2004 10.2929 19.0246C10.4804 18.8488 10.7348 18.75 11 18.75H27V32.8125H11C10.7348 32.8125 10.4804 32.7137 10.2929 32.5379C10.1054 32.3621 10 32.1236 10 31.875ZM30.27 50.625H25.47C25.2494 50.6345 25.0317 50.5752 24.8508 50.4565C24.6699 50.3378 24.536 50.1663 24.47 49.9688L19.4 34.6875H26.27L31.22 49.4063C31.267 49.5464 31.2782 49.6949 31.2528 49.8398C31.2273 49.9848 31.1659 50.1221 31.0735 50.2407C30.981 50.3592 30.8601 50.4558 30.7206 50.5226C30.581 50.5893 30.4267 50.6244 30.27 50.625ZM29 19.8281C35.6908 19.5022 42.2031 17.6899 48 14.5406V37.0406C42.2031 33.8914 35.6908 32.0791 29 31.7531V19.8281ZM55 39.8156C55.0029 39.993 54.9521 40.1675 54.8535 40.3188C54.7549 40.4702 54.6125 40.5922 54.4429 40.6707C54.2733 40.7493 54.0834 40.7811 53.8952 40.7625C53.7071 40.7439 53.5284 40.6756 53.38 40.5656C52.2965 39.7282 51.1683 38.9429 50 38.2125V13.35C51.1683 12.6197 52.2965 11.8343 53.38 10.9969C53.5284 10.8869 53.7071 10.8186 53.8952 10.8C54.0834 10.7814 54.2733 10.8132 54.4429 10.8918C54.6125 10.9703 54.7549 11.0923 54.8535 11.2437C54.9521 11.3951 55.0029 11.5695 55 11.7469V39.8156ZM57 27.6281V23.8781C57.5304 23.8781 58.0391 24.0757 58.4142 24.4273C58.7893 24.7789 59 25.2559 59 25.7531C59 26.2504 58.7893 26.7273 58.4142 27.079C58.0391 27.4306 57.5304 27.6281 57 27.6281Z" fill="white"/>
</svg>
