<svg width="226" height="45" viewBox="0 0 226 45" fill="none" xmlns="http://www.w3.org/2000/svg">
<g clip-path="url(#clip0_1_177)">
<path d="M208.277 24.4758H64.5506C63.0022 24.4758 61.6777 23.5829 61.0911 22.141L57.8829 14.2591H58.2314C58.7377 14.2168 59.2917 14.0789 59.8929 13.8451C60.4941 13.6117 61.0743 13.3199 61.6334 12.9698C62.1925 12.6193 62.6829 12.2325 63.1049 11.808C63.5269 11.3836 63.7968 10.9579 63.9279 10.5352L65.931 4.07702C66.6461 1.77202 64.2657 0.0314941 62.0288 0.0314941H40.5714L33.7988 22.3437H41.2676L46.2365 5.98352H57.7879L57.0285 8.53013H47.9821L46.2412 14.2591H49.3067L53.9876 25.7582C55.1608 28.6406 57.8068 30.4278 60.9063 30.4278H211.246C214.587 30.4278 217.422 28.3173 218.397 25.103L226 0.0314941H218.468L211.852 21.8147C211.364 23.4203 209.944 24.4758 208.277 24.4758Z" fill="#DB2F09"/>
<path d="M202.715 13.4314L206.79 0.0314941H199.321L194.536 15.6915C194.401 16.1336 194.446 16.5827 194.646 17.0283C194.846 17.4739 195.147 17.8724 195.548 18.2221C195.949 18.5718 196.408 18.8588 196.925 19.0813C197.441 19.3039 197.943 19.4154 198.428 19.4154H210.101L211.919 13.4314H202.715Z" fill="white"/>
<path d="M177.132 -5.60669e-05H182.354C185.213 -5.60669e-05 188.552 1.41242 189.253 4.45564L193.367 22.3433H185.107L181.473 7.00484C181.352 6.4918 180.877 6.46068 180.423 6.46068L174.79 13.431H180.387L181.843 19.415H169.758L167.194 22.3433H159.093L177.132 -0.000488281L177.132 -5.60669e-05Z" fill="white"/>
<path d="M157.637 22.3437H152.13C151.223 22.3013 150.416 22.2162 149.709 22.0891C149.002 21.9616 148.364 21.7706 147.794 21.516C147.224 21.261 146.702 20.9269 146.228 20.5133C143.447 18.089 143.457 11.3028 142.92 8.11607C139.959 11.91 136.409 17.9515 132.033 20.4657C131.295 20.8902 130.557 21.2351 129.818 21.5C129.08 21.7654 128.315 21.9616 127.523 22.0891C126.733 22.2162 125.873 22.3013 124.944 22.3437H119.469L126.242 0.0314941H133.806L129.185 15.2454L142.034 0.0314941H148.617L152.225 15.341L156.877 0.0314941H164.41L157.637 22.3437H157.637Z" fill="white"/>
<path d="M99.4048 15.3409H92.3473C91.5656 18.2337 92.6675 22.3432 97.265 22.3432H111.652C112.349 22.3432 113.056 22.2421 113.773 22.0411C114.49 21.8397 115.149 21.5691 115.751 21.2294C116.352 20.8901 116.874 20.4972 117.318 20.0516C117.761 19.606 118.056 19.1288 118.203 18.6193L120.134 12.2536C120.525 10.7802 120.301 8.52964 116.811 8.52964H102.917C102.56 8.52964 102.276 8.0944 102.357 7.83204C102.585 7.09771 102.718 6.65167 102.922 5.98303H113.83L114.817 7.44737H121.589C123.085 2.43412 121.53 0.0310059 116.927 0.0310059H103.36C102.475 0.0310059 101.619 0.153755 100.796 0.397091C99.9742 0.64086 99.2406 0.949029 98.5969 1.31987C97.9535 1.69114 97.4154 2.09483 96.9827 2.52964C96.5503 2.96445 96.2809 3.37289 96.1756 3.75497L94.087 10.5662C93.6009 12.1516 94.8691 14.2586 98.5173 14.2586H111.431C111.704 14.2586 112.075 14.4419 111.922 15.018C111.794 15.4956 111.472 16.3134 111.318 16.8052H100.343L99.4039 15.3405L99.4048 15.3409Z" fill="white"/>
<path d="M77.0302 0.0314941L71.9097 16.8057H82.006L87.1261 0.0314941H94.5631L88.9302 18.6197C88.8034 19.0654 88.503 19.511 88.0282 19.9566C87.5533 20.4022 87.0049 20.8003 86.3822 21.1504C85.7599 21.5004 85.1264 21.787 84.4835 22.0096C83.8397 22.2326 83.2755 22.3437 82.7903 22.3437H67.8523C67.3461 22.3437 66.8291 22.2326 66.3017 22.0096C65.7744 21.7866 65.3155 21.5 64.9252 21.1504C64.5346 20.8003 64.2393 20.4022 64.0391 19.9566C63.8388 19.511 63.8018 19.0654 63.9286 18.6197L69.5615 0.0314941H77.0307H77.0302Z" fill="white"/>
<path fill-rule="evenodd" clip-rule="evenodd" d="M23.9931 5.98352L15.4439 5.96537C12.9276 5.96018 10.8897 7.55635 10.1548 9.97675L6.39919 22.3433H5.45716C5.12281 22.3433 4.84003 22.5542 4.74247 22.8758L2.44843 30.4278H16.8195L18.0624 26.3348C18.7943 23.9252 20.9194 22.3433 23.4245 22.3433H31.3995L38.1751 0.0314941H35.4844C31.7309 0.0314941 25.7572 2.91004 23.9926 5.98352H23.9931ZM12.6449 11.0033L10.2374 18.9309C14.2109 18.9309 17.7229 17.4834 18.7938 13.9566L20.4987 8.34211H16.2196C14.5504 8.34211 13.1322 9.39845 12.6449 11.0033ZM19.2193 30.4278H38.8133L40.6208 24.4758H23.7941C22.124 24.4758 20.7071 25.5304 20.2194 27.137L19.2197 30.4278H19.2193Z" fill="#DB2F09"/>
<path d="M4.9044 38.4778H2.91849L1.54068 43.023H0.56814L1.94552 38.4778H0L0.255706 37.622H5.16011L4.9044 38.4778ZM12.665 37.571C13.1244 37.571 13.5232 37.664 13.8606 37.8511C14.1979 38.0378 14.4489 38.3062 14.6139 38.6559C14.7785 39.006 14.8344 39.4188 14.7828 39.8946C14.7158 40.5058 14.5245 41.053 14.2082 41.5353C13.8924 42.0177 13.488 42.3963 12.9955 42.6712C12.5025 42.9469 11.9692 43.0839 11.3946 43.0839C10.9352 43.0839 10.5493 43.001 10.2364 42.8341C9.92398 42.6677 9.69706 42.4248 9.55653 42.1054L8.67338 44.9995H7.70041L9.96437 37.6212H10.8969L10.6915 38.2937C11.2442 37.8114 11.9017 37.571 12.665 37.571ZM11.4479 42.2282C11.8463 42.2282 12.215 42.1313 12.5537 41.9377C12.8919 41.7441 13.1717 41.4744 13.3917 41.1277C13.6122 40.7815 13.7462 40.3874 13.7944 39.9456C13.8472 39.4633 13.7493 39.0898 13.5013 38.8245C13.2529 38.5595 12.8725 38.4273 12.3594 38.4273C11.9606 38.4273 11.5901 38.5241 11.2481 38.7177C10.9064 38.9113 10.6266 39.181 10.41 39.5277C10.1934 39.8739 10.0606 40.2681 10.0125 40.7098C9.96051 41.1857 10.0602 41.5574 10.3112 41.8258C10.5626 42.0942 10.9408 42.2282 11.4479 42.2282ZM25.8843 37.622L24.2306 43.0234H23.2985L23.5026 42.3608C23.2344 42.5916 22.9328 42.7697 22.5984 42.8959C22.2636 43.0217 21.9074 43.0844 21.5292 43.0844C21.0698 43.0844 20.6709 42.991 20.3336 42.8043C19.9962 42.6176 19.7452 42.347 19.5811 41.9943C19.4169 41.6408 19.3606 41.2263 19.4126 40.7513C19.4796 40.1397 19.6709 39.5925 19.9868 39.1102C20.3031 38.6278 20.7075 38.2505 21.2 37.9786C21.692 37.7072 22.2254 37.5715 22.8 37.5715C23.2589 37.5715 23.6436 37.6527 23.9534 37.8157C24.2633 37.9786 24.4889 38.2198 24.6294 38.5392L24.9118 37.622H25.8843ZM21.8352 42.2282C22.2335 42.2282 22.604 42.1313 22.9457 41.9377C23.2882 41.7441 23.5671 41.4744 23.7845 41.1277C24.0011 40.7815 24.1335 40.3874 24.1821 39.9456C24.2349 39.4633 24.1369 39.0898 23.8885 38.8245C23.6406 38.5595 23.2598 38.4273 22.7467 38.4273C22.3483 38.4273 21.9796 38.5241 21.6405 38.7177C21.3023 38.9113 21.0225 39.181 20.8024 39.5277C20.582 39.8739 20.4479 40.2681 20.3998 40.7098C20.3478 41.1857 20.4475 41.5574 20.6984 41.8258C20.9494 42.0942 21.3285 42.2282 21.8352 42.2282ZM31.5902 37.622H32.5628L31.8567 39.9154H34.917L35.6231 37.622H36.5961L34.9329 43.0234H33.9599L34.6626 40.7608H31.6023L30.8996 43.0234H29.9271L31.5902 37.622ZM43.2161 43.0844C42.7021 43.0844 42.2637 42.9876 41.9001 42.7939C41.5361 42.6007 41.2688 42.3284 41.0973 41.9788C40.9263 41.6291 40.8661 41.2198 40.9173 40.7508C40.983 40.1462 41.1773 39.6025 41.5005 39.1201C41.8232 38.6377 42.2396 38.2587 42.7493 37.9842C43.2586 37.7085 43.8181 37.5715 44.4258 37.5715C45.4865 37.5715 46.1805 37.9622 46.5071 38.7432L45.636 39.2014C45.4087 38.6853 44.951 38.4273 44.2617 38.4273C43.8633 38.4273 43.4928 38.5241 43.1507 38.7177C42.8086 38.9113 42.5276 39.181 42.3071 39.5277C42.0875 39.8739 41.953 40.2681 41.9049 40.7098C41.8529 41.1857 41.9521 41.5574 42.2031 41.8258C42.4545 42.0942 42.8366 42.2282 43.3501 42.2282C43.6742 42.2282 43.9836 42.1638 44.2784 42.0345C44.5728 41.9057 44.8246 41.7156 45.0348 41.464L45.6885 41.9736C45.4005 42.3198 45.0365 42.5916 44.5964 42.7887C44.1564 42.9858 43.6952 43.0844 43.2161 43.0844ZM56.9963 37.622L55.3327 43.0234H54.3601L55.7375 38.4783H52.718L51.3303 43.0234H50.3578L52.0209 37.622H56.9963ZM63.5853 43.0844C63.0786 43.0844 62.6467 42.9876 62.2896 42.7939C61.9325 42.6007 61.6686 42.3271 61.4975 41.974C61.3269 41.6205 61.2663 41.2133 61.3166 40.7513C61.3828 40.1466 61.577 39.6029 61.9002 39.1205C62.223 38.6382 62.6394 38.2591 63.1491 37.9847C63.6584 37.7089 64.2145 37.5719 64.8153 37.5719C65.322 37.5719 65.7543 37.667 66.1114 37.8567C66.469 38.0469 66.7316 38.317 66.8992 38.6671C67.0672 39.0172 67.1252 39.4265 67.0745 39.8955C67.0083 40.5002 66.8137 41.0452 66.4905 41.531C66.1677 42.0168 65.7526 42.3967 65.2463 42.672C64.7401 42.9478 64.1861 43.0844 63.5853 43.0844ZM63.7396 42.2286C64.138 42.2286 64.508 42.1318 64.8505 41.9381C65.1922 41.7445 65.4719 41.4748 65.6885 41.1282C65.9051 40.782 66.0375 40.3878 66.0861 39.9461C66.1389 39.4637 66.0409 39.0903 65.793 38.8249C65.5446 38.56 65.1642 38.4277 64.6511 38.4277C64.2523 38.4277 63.8836 38.5245 63.5449 38.7181C63.2063 38.9118 62.9269 39.1815 62.7064 39.5281C62.4868 39.8743 62.3523 40.2685 62.3042 40.7102C62.2522 41.1861 62.3515 41.5578 62.6024 41.8262C62.8539 42.0946 63.2325 42.2286 63.7396 42.2286ZM75.7698 37.5715C76.2292 37.5715 76.628 37.6644 76.9654 37.8516C77.3028 38.0383 77.5542 38.3067 77.7188 38.6563C77.8834 39.0064 77.9397 39.4192 77.8877 39.8951C77.8206 40.5062 77.6294 41.0534 77.3135 41.5357C76.9972 42.0181 76.5928 42.3967 76.1003 42.6716C75.6078 42.9474 75.074 43.0844 74.4994 43.0844C74.0405 43.0844 73.6541 43.0014 73.3412 42.8346C73.0288 42.6681 72.8015 42.4252 72.6609 42.1058L71.7778 44.9999H70.8048L73.0692 37.6216H74.0014L73.7959 38.2941C74.3486 37.8118 75.0066 37.5715 75.7698 37.5715ZM74.5527 42.2286C74.9511 42.2286 75.3199 42.1318 75.6585 41.9381C75.9967 41.7445 76.2765 41.4748 76.4965 41.1282C76.717 40.782 76.8511 40.3878 76.8992 39.9461C76.9521 39.4637 76.8545 39.0903 76.6066 38.8249C76.3582 38.56 75.9774 38.4277 75.4642 38.4277C75.0654 38.4277 74.695 38.5245 74.3533 38.7181C74.0112 38.9118 73.7319 39.1815 73.5149 39.5281C73.2983 39.8743 73.1655 40.2685 73.1173 40.7102C73.0653 41.1861 73.165 41.5578 73.4165 41.8262C73.6674 42.0946 74.0461 42.2286 74.5527 42.2286ZM87.4266 38.4783H85.4407L84.0629 43.0234H83.0903L84.4677 38.4783H82.5222L82.7775 37.6225H87.6818L87.4266 38.4783ZM92.4861 37.6225H93.4587L92.7526 39.9158H95.8129L96.519 37.6225H97.4919L95.8288 43.0239H94.8558L95.5585 40.7612H92.4982L91.7955 43.0239H90.823L92.4861 37.6225ZM108.295 37.6225L106.641 43.0239H105.709L105.913 42.3613C105.645 42.5921 105.344 42.7702 105.009 42.8964C104.674 43.0221 104.318 43.0848 103.94 43.0848C103.481 43.0848 103.082 42.9914 102.744 42.8047C102.407 42.618 102.156 42.3474 101.992 41.9948C101.828 41.6412 101.771 41.2267 101.823 40.7517C101.891 40.1401 102.082 39.5929 102.398 39.1106C102.714 38.6282 103.118 38.2509 103.611 37.9791C104.103 37.7076 104.636 37.5719 105.211 37.5719C105.67 37.5719 106.054 37.6532 106.364 37.8161C106.674 37.9791 106.9 38.2202 107.04 38.5396L107.323 37.6225H108.295ZM104.246 42.2286C104.644 42.2286 105.015 42.1318 105.357 41.9381C105.699 41.7445 105.978 41.4748 106.195 41.1282C106.412 40.782 106.544 40.3878 106.593 39.9461C106.646 39.4637 106.548 39.0903 106.299 38.8249C106.051 38.56 105.671 38.4277 105.158 38.4277C104.759 38.4277 104.39 38.5245 104.051 38.7181C103.713 38.9118 103.433 39.1815 103.213 39.5281C102.993 39.8743 102.859 40.2685 102.811 40.7102C102.759 41.1861 102.858 41.5578 103.109 41.8262C103.36 42.0946 103.739 42.2286 104.246 42.2286ZM118.318 37.6225L116.664 43.0239H115.793L116.317 41.2816H114.788H114.686L112.996 43.0239H111.902L113.82 41.1385C113.501 41.0296 113.268 40.8533 113.123 40.6086C112.978 40.364 112.924 40.0684 112.962 39.7222C113.033 39.063 113.334 38.5487 113.864 38.1779C114.394 37.8075 115.085 37.6225 115.936 37.6225H118.318ZM117.192 38.4683H115.763C115.236 38.4683 114.815 38.5755 114.502 38.7895C114.188 39.0034 114.009 39.3107 113.965 39.7118C113.902 40.2897 114.256 40.5784 115.026 40.5784H116.536L117.192 38.4683ZM137.273 40.2927L138.637 43.0239H137.512L136.454 40.7409H135.289L134.584 43.0239H133.611L135.285 37.6225H136.257L135.553 39.905H136.647L139.105 37.6225H140.19L137.273 40.2927ZM145.836 43.0848C145.329 43.0848 144.897 42.988 144.54 42.7944C144.183 42.6012 143.919 42.3276 143.748 41.9744C143.577 41.6209 143.517 41.2137 143.567 40.7517C143.633 40.147 143.828 39.6033 144.151 39.121C144.474 38.6386 144.89 38.2596 145.4 37.9851C145.909 37.7094 146.465 37.5723 147.066 37.5723C147.573 37.5723 148.004 37.6674 148.362 37.8572C148.719 38.0473 148.982 38.3175 149.15 38.6676C149.318 39.0177 149.376 39.427 149.325 39.8959C149.258 40.5006 149.064 41.0456 148.741 41.5314C148.418 42.0172 148.003 42.3972 147.497 42.6725C146.991 42.9482 146.436 43.0848 145.836 43.0848ZM145.99 42.229C146.388 42.229 146.758 42.1322 147.101 41.9386C147.443 41.7449 147.722 41.4752 147.939 41.1286C148.156 40.7824 148.288 40.3882 148.337 39.9465C148.389 39.4641 148.292 39.0907 148.044 38.8253C147.795 38.5604 147.414 38.4281 146.901 38.4281C146.503 38.4281 146.134 38.5249 145.795 38.7186C145.456 38.9122 145.177 39.1819 144.957 39.5285C144.737 39.8747 144.602 40.2689 144.554 40.7106C144.502 41.1865 144.602 41.5582 144.853 41.8266C145.104 42.095 145.483 42.229 145.99 42.229ZM161.5 37.6229L159.847 43.0243H158.965L160.174 39.1007L157.157 42.4127H156.732L155.762 39.0397L154.548 43.0247H153.656L155.319 37.6233H156.312L157.292 41.2717L160.589 37.6233L161.5 37.6229ZM172.182 37.6229L170.518 43.0243H169.546L170.923 38.4791H167.904L166.516 43.0243H165.543L167.206 37.6229H172.182ZM182.985 37.6229L181.331 43.0243H180.399L180.603 42.3617C180.335 42.5925 180.033 42.7706 179.699 42.8968C179.364 43.0226 179.008 43.0852 178.629 43.0852C178.17 43.0852 177.771 42.9919 177.434 42.8052C177.096 42.6184 176.846 42.3479 176.681 41.9952C176.517 41.6416 176.461 41.2271 176.513 40.7521C176.58 40.1406 176.771 39.5934 177.087 39.111C177.403 38.6287 177.808 38.2513 178.3 37.9795C178.792 37.7081 179.326 37.5723 179.9 37.5723C180.36 37.5723 180.744 37.6536 181.054 37.8165C181.364 37.9795 181.589 38.2207 181.73 38.5401L182.012 37.6229H182.985ZM178.935 42.229C179.334 42.229 179.704 42.1322 180.046 41.9386C180.388 41.7449 180.668 41.4752 180.885 41.1286C181.101 40.7824 181.234 40.3882 181.282 39.9465C181.335 39.4641 181.237 39.0907 180.989 38.8253C180.741 38.5604 180.36 38.4281 179.847 38.4281C179.449 38.4281 179.08 38.5249 178.741 38.7186C178.403 38.9122 178.123 39.1819 177.903 39.5285C177.682 39.8747 177.548 40.2689 177.5 40.7106C177.448 41.1865 177.548 41.5582 177.799 41.8266C178.05 42.095 178.429 42.229 178.935 42.229ZM188.691 37.6229H189.663L188.957 39.9162H192.017L192.723 37.6229H193.696L192.033 43.0243H191.06L191.763 40.7617H188.703L188 43.0243H187.027L188.691 37.6229ZM199.403 37.6229H200.386L199.134 41.6585L203.628 37.6229H204.55L202.897 43.0243H201.904L203.165 38.9887L198.672 43.0243H197.73L199.403 37.6229ZM214.574 37.6229L212.92 43.0243H212.049L212.573 41.282H211.043H210.941L209.252 43.0243H208.157L210.076 41.139C209.756 41.0301 209.524 40.8537 209.378 40.6091C209.233 40.3644 209.179 40.0688 209.217 39.7226C209.289 39.0635 209.59 38.5491 210.12 38.1783C210.65 37.8079 211.341 37.6229 212.192 37.6229H214.574ZM213.447 38.4688H212.019C211.492 38.4688 211.071 38.5759 210.757 38.7899C210.444 39.0038 210.265 39.3111 210.221 39.7122C210.158 40.2901 210.511 40.5788 211.282 40.5788H212.791L213.447 38.4688Z" fill="#CBCBCB"/>
</g>
<defs>
<clipPath id="clip0_1_177">
<rect width="226" height="45" fill="white"/>
</clipPath>
</defs>
</svg>
