<svg width="40" height="40" viewBox="0 0 40 40" fill="none" xmlns="http://www.w3.org/2000/svg">
<path d="M30.9819 36.7047H28.9105C28.6243 36.7047 28.3927 36.4731 28.3927 36.1869C28.3927 35.9006 28.6243 35.669 28.9105 35.669H30.9819C31.2681 35.669 31.4998 35.9006 31.4998 36.1869C31.4998 36.4731 31.2681 36.7047 30.9819 36.7047ZM26.8391 36.7047H24.7677C24.4815 36.7047 24.2499 36.4731 24.2499 36.1869C24.2499 35.9006 24.4815 35.669 24.7677 35.669H26.8391C27.1254 35.669 27.357 35.9006 27.357 36.1869C27.357 36.4731 27.1254 36.7047 26.8391 36.7047ZM22.6964 36.7047H20.625C20.3387 36.7047 20.1071 36.4731 20.1071 36.1869C20.1071 35.9006 20.3387 35.669 20.625 35.669H22.6964C22.9826 35.669 23.2142 35.9006 23.2142 36.1869C23.2142 36.4731 22.9826 36.7047 22.6964 36.7047ZM18.5536 36.7047H17.2509C16.9459 36.7042 16.6481 36.6678 16.3644 36.5975C16.0867 36.5282 15.9183 36.247 15.9871 35.9694C16.0569 35.6923 16.3365 35.5244 16.6152 35.5921C16.8175 35.6427 17.0314 35.6685 17.2519 35.669H18.5536C18.8398 35.669 19.0714 35.9006 19.0714 36.1869C19.0714 36.4731 18.8398 36.7047 18.5536 36.7047ZM14.8088 35.4779C14.649 35.4779 14.4917 35.4045 14.3906 35.266C13.938 34.6475 13.6892 33.8884 13.6892 33.1283L13.6917 32.9963C13.7028 32.7101 13.9385 32.4785 14.2303 32.5002C14.516 32.5119 14.738 32.7531 14.7264 33.0388L14.7249 33.1283C14.7249 33.6704 14.9029 34.2121 15.226 34.6541C15.3949 34.8852 15.3448 35.2093 15.1142 35.3777C15.0217 35.4455 14.915 35.4779 14.8088 35.4779ZM14.9742 31.6557C14.8523 31.6557 14.7304 31.6132 14.6323 31.5267C14.4174 31.3376 14.3966 31.0104 14.5853 30.796L16.0493 29.2915C16.2491 29.0877 16.5768 29.0836 16.7816 29.2834C16.9859 29.4832 16.9899 29.8109 16.7897 30.0157L15.3631 31.4797C15.2604 31.596 15.1178 31.6557 14.9742 31.6557ZM17.8668 28.6897C17.7363 28.6897 17.6059 28.6407 17.5047 28.542C17.3004 28.3423 17.2964 28.0146 17.4966 27.8098L18.9445 26.328C19.1442 26.1242 19.4719 26.1197 19.6768 26.3199C19.8811 26.5197 19.8851 26.8474 19.6849 27.0522L18.237 28.5339C18.1359 28.6376 18.0013 28.6897 17.8668 28.6897ZM20.762 25.7267C20.6315 25.7267 20.5011 25.6777 20.3999 25.5796C20.1956 25.3793 20.1916 25.0516 20.3913 24.8468L21.8387 23.3651C22.0394 23.1613 22.3666 23.1577 22.5714 23.3565C22.7757 23.5568 22.7798 23.8845 22.58 24.0893L21.1327 25.571C21.031 25.6747 20.8965 25.7267 20.762 25.7267ZM23.6572 22.7633C23.5267 22.7633 23.3963 22.7142 23.2951 22.6156C23.0908 22.4159 23.0868 22.0882 23.287 21.8834L24.7086 20.4208C24.8962 20.2039 25.2239 20.1806 25.4388 20.3682C25.6553 20.5554 25.6785 20.8826 25.4914 21.0985C25.4429 21.1546 25.3918 21.2108 25.3392 21.2649L24.0274 22.6075C23.9262 22.7112 23.7917 22.7633 23.6572 22.7633ZM25.8373 18.8688L25.3195 18.8572C25.3205 18.2473 25.1344 17.6951 24.7966 17.247C24.6241 17.0184 24.6696 16.6938 24.8977 16.5218C25.1253 16.3479 25.4504 16.3939 25.6229 16.623C26.0962 17.2495 26.3562 18.0243 26.3557 18.8036L25.8373 18.8688ZM23.5116 16.3433C23.4726 16.3433 23.4332 16.3393 23.3937 16.3296C23.2011 16.2851 22.9993 16.2624 22.7945 16.2624H21.4462C21.16 16.2624 20.9284 16.0308 20.9284 15.7445C20.9284 15.4583 21.16 15.2267 21.4462 15.2267H22.7945C23.0782 15.2267 23.3583 15.2585 23.6284 15.3213C23.9065 15.3855 24.08 15.6641 24.0152 15.9428C23.9601 16.182 23.7467 16.3433 23.5116 16.3433ZM19.3749 16.2624H17.3035C17.0172 16.2624 16.7856 16.0308 16.7856 15.7445C16.7856 15.4583 17.0172 15.2267 17.3035 15.2267H19.3749C19.6611 15.2267 19.8927 15.4583 19.8927 15.7445C19.8927 16.0308 19.6611 16.2624 19.3749 16.2624ZM15.2321 16.2624H13.1607C12.8745 16.2624 12.6428 16.0308 12.6428 15.7445C12.6428 15.4583 12.8745 15.2267 13.1607 15.2267H15.2321C15.5183 15.2267 15.7499 15.4583 15.7499 15.7445C15.7499 16.0308 15.5183 16.2624 15.2321 16.2624ZM11.0893 16.2624H9.01791C8.73168 16.2624 8.50006 16.0308 8.50006 15.7445C8.50006 15.4583 8.73168 15.2267 9.01791 15.2267H11.0893C11.3755 15.2267 11.6071 15.4583 11.6071 15.7445C11.6071 16.0308 11.3755 16.2624 11.0893 16.2624Z" fill="#B0B0B0"/>
<path d="M8.93145 1.88672C5.64201 1.88672 2.97052 4.54817 2.97052 7.83768C2.97052 10.3666 6.49372 14.9517 8.12287 16.9367C8.54286 17.4484 9.31967 17.448 9.73922 16.936C11.3659 14.9506 14.8823 10.3663 14.8823 7.83767C14.8824 4.54817 12.2209 1.88672 8.93145 1.88672Z" fill="#B0B0B0"/>
<path d="M8.93082 11.1578C7.09667 11.1578 5.61145 9.67253 5.61145 7.83845C5.61145 6.01428 7.09668 4.52905 8.93082 4.52905C10.7549 4.52905 12.2402 6.01428 12.2402 7.83845C12.2402 9.67253 10.7549 11.1578 8.93082 11.1578Z" fill="white"/>
<path d="M8.9321 1.88672C8.86232 1.88672 8.78255 1.88672 8.71277 1.8967C11.8926 2.01631 14.4344 4.62793 14.4344 7.83768C14.4344 10.3695 10.9157 14.9548 9.29094 16.9385C9.13147 17.1279 8.9321 17.2475 8.71277 17.2974C9.07161 17.3771 9.48033 17.2574 9.73951 16.9385C11.3643 14.9548 14.883 10.3695 14.883 7.83768C14.883 4.54817 12.2215 1.88672 8.9321 1.88672Z" fill="#B0B0B0"/>
<path d="M5.28312 7.83768C5.28312 4.9569 7.33654 2.55456 10.0578 2.00633C9.69896 1.92663 9.32017 1.88672 8.93146 1.88672C5.64201 1.88672 2.97052 4.54817 2.97052 7.83768C2.97052 10.3695 6.48927 14.9548 8.12405 16.9385C8.54269 17.4468 9.32017 17.4468 9.73887 16.9385C9.84851 16.8089 9.96811 16.6694 10.0877 16.5098C8.3533 14.3568 5.28312 10.2001 5.28312 7.83768Z" fill="#B0B0B0"/>
<path d="M31.08 22.6779C27.7905 22.6779 25.119 25.3393 25.119 28.6288C25.119 31.1577 28.6422 35.7428 30.2714 37.7278C30.6914 38.2395 31.4682 38.2392 31.8877 37.7271C33.5144 35.7418 37.0308 31.1574 37.0308 28.6288C37.0309 25.3393 34.3694 22.6779 31.08 22.6779Z" fill="#B0B0B0"/>
<path d="M31.0792 31.9489C29.2451 31.9489 27.7598 30.4637 27.7598 28.6296C27.7598 26.8054 29.2451 25.3202 31.0792 25.3202C32.9033 25.3202 34.3886 26.8054 34.3886 28.6296C34.3886 30.4637 32.9033 31.9489 31.0792 31.9489Z" fill="white"/>
<path d="M31.0786 22.6779C31.0088 22.6779 30.929 22.6779 30.8593 22.6878C34.0391 22.8075 36.5809 25.4191 36.5809 28.6288C36.5809 31.1607 33.0622 35.746 31.4374 37.7296C31.278 37.919 31.0786 38.0387 30.8593 38.0885C31.2181 38.1682 31.6268 38.0486 31.886 37.7296C33.5108 35.746 37.0295 31.1607 37.0295 28.6288C37.0295 25.3393 34.368 22.6779 31.0786 22.6779Z" fill="#B0B0B0"/>
<path d="M27.4316 28.6288C27.4316 25.748 29.485 23.3457 32.2063 22.7975C31.8474 22.7178 31.4687 22.6779 31.08 22.6779C27.7905 22.6779 25.119 25.3393 25.119 28.6288C25.119 31.1607 28.6378 35.746 30.2725 37.7297C30.6912 38.238 31.4687 38.238 31.8874 37.7297C31.997 37.6001 32.1166 37.4605 32.2362 37.301C30.5018 35.1479 27.4316 30.9912 27.4316 28.6288Z" fill="#B0B0B0"/>
</svg>
