<svg width="80" height="80" viewBox="0 0 80 80" fill="none" xmlns="http://www.w3.org/2000/svg">
<g clip-path="url(#clip0_1_262)">
<path d="M28.75 57.5C28.0596 57.5 27.5 58.0596 27.5 58.75C27.5 59.4404 28.0596 60 28.75 60C29.4404 60 30 59.4404 30 58.75C30 58.0596 29.4404 57.5 28.75 57.5Z" fill="#005CCE"/>
<path d="M13.75 57.5C13.0596 57.5 12.5 58.0596 12.5 58.75C12.5 59.4404 13.0596 60 13.75 60C14.4404 60 15 59.4404 15 58.75C15 58.0596 14.4404 57.5 13.75 57.5Z" fill="#005CCE"/>
<path d="M63.75 57.5C63.0597 57.5 62.5 58.0596 62.5 58.75C62.5 59.4404 63.0597 60 63.75 60C64.4404 60 65 59.4404 65 58.75C65 58.0596 64.4404 57.5 63.75 57.5Z" fill="#005CCE"/>
<path fill-rule="evenodd" clip-rule="evenodd" d="M62.5 25V37.5H71.7481H75V36.25V29.0283C75 26.8261 73.206 25 71.0059 25H65H62.5ZM71.0059 27.5H65V35H71.7481H72.5V29.0283C72.5 28.1528 71.8489 27.5 71.0059 27.5Z" fill="#005CCE"/>
<path d="M63.6426 40C61.9759 40.0846 62.1029 42.5846 63.7695 42.5H66.2695C67.9599 42.524 67.9599 39.9761 66.2695 40H63.7695C63.7272 39.9978 63.6849 39.9978 63.6426 40Z" fill="#005CCE"/>
<path fill-rule="evenodd" clip-rule="evenodd" d="M0 47.5V53.75C6.90224e-05 54.4403 0.559673 54.9999 1.25 55H2.5V58.75C2.50007 59.4403 3.05967 59.9999 3.75 60H7.62695V60.005C8.21237 62.8458 10.7426 65 13.75 65C16.7574 65 19.2876 62.8409 19.873 60H22.627V60.005C23.2124 62.8458 25.7426 65 28.75 65C31.7574 65 34.2876 62.8409 34.8731 60L47.4916 60.005V57.505L34.8731 57.5C34.6831 56.5709 34.2703 55.7314 33.7158 55H51.505H54.7157H58.7842C58.2297 55.7314 57.8169 56.5709 57.627 57.5C57.5295 58.4308 57.5126 58.9733 57.627 60V60.005C58.2124 62.8458 60.7427 65 63.75 65C66.7574 65 69.2876 62.8409 69.8731 60H73.75C74.4403 59.9999 74.9999 59.4403 75 58.75V55H78.6621H78.75C79.4403 54.9999 79.9999 54.4403 80 53.75L80.0195 48.4961L80 48.4946V48.5205H78.75L78.7207 48.3984L80 48.4946L80 27.5C80 23.3667 76.6334 20 72.5 20H55V22.5H55.0342V47.5H50.0342H2.5H0ZM72.5 22.5H57.5342V47.5H77.5V27.5C77.5 24.7085 75.2916 22.5 72.5 22.5ZM51.1963 50H2.5V52.5H13.75H73.75H77.5V50H51.1963ZM8.78418 55H5V57.5H7.62695C7.81691 56.5709 8.22966 55.7314 8.78418 55ZM17.5 58.75C17.5 56.6642 15.8359 55 13.75 55C11.6708 55 10.0105 56.654 10 58.7305V58.75C10 60.836 11.6641 62.5 13.75 62.5C15.8359 62.5 17.5 60.836 17.5 58.75ZM23.7842 55H18.7158C19.2703 55.7314 19.6831 56.5709 19.873 57.5H22.627C22.8169 56.5709 23.2297 55.7314 23.7842 55ZM32.5 58.75C32.5 56.6642 30.8359 55 28.75 55C26.6641 55 25 56.6642 25 58.75C25 60.836 26.6641 62.5 28.75 62.5C30.8359 62.5 32.5 60.836 32.5 58.75ZM67.5 58.75C67.5 56.6642 65.8359 55 63.75 55C61.6641 55 60 56.6642 60 58.75C60 60.836 61.6641 62.5 63.75 62.5C65.8359 62.5 67.5 60.836 67.5 58.75ZM72.5 55H68.7158C69.2703 55.7314 69.6831 56.5709 69.8731 57.5H72.5V55Z" fill="#005CCE"/>
<path fill-rule="evenodd" clip-rule="evenodd" d="M62.5 58.75C62.5 58.0596 63.0597 57.5 63.75 57.5C64.4404 57.5 65 58.0596 65 58.75C65 59.4404 64.4404 60 63.75 60C63.0597 60 62.5 59.4404 62.5 58.75ZM28.75 57.5C28.0596 57.5 27.5 58.0596 27.5 58.75C27.5 59.4404 28.0596 60 28.75 60C29.4404 60 30 59.4404 30 58.75C30 58.0596 29.4404 57.5 28.75 57.5ZM13.75 57.5C13.0596 57.5 12.5 58.0596 12.5 58.75C12.5 59.4404 13.0596 60 13.75 60C14.4404 60 15 59.4404 15 58.75C15 58.0596 14.4404 57.5 13.75 57.5ZM62.5 37.5V25H65H71.0059C73.206 25 75 26.8261 75 29.0283V36.25V37.5H71.7481H62.5ZM63.7695 42.5C62.1029 42.5846 61.9759 40.0846 63.6426 40C63.6849 39.9978 63.7272 39.9978 63.7695 40H66.2695C67.9599 39.9761 67.9599 42.524 66.2695 42.5H63.7695ZM71.0059 27.5H65V35H71.7481H72.5V29.0283C72.5 28.1528 71.8489 27.5 71.0059 27.5Z" fill="#005CCE"/>
<path d="M47.4916 57.505V60.005L54.7157 55H51.505L47.4916 57.505Z" fill="#005CCE"/>
<path d="M0 47.5H2.5V28.0936H0V47.5Z" fill="#005CCE"/>
<path d="M44.8739 23.2191H43.3522V14.8495C43.3522 14.6478 43.272 14.4542 43.1293 14.3115C42.9867 14.1688 42.7931 14.0887 42.5913 14.0887H41.8305V9.52346C41.8305 9.39823 41.7996 9.27492 41.7405 9.16449C41.6815 9.05406 41.596 8.95992 41.4919 8.89042L39.2093 7.36868L38.3647 8.63476L40.3087 9.93052V14.0887H39.5479C39.3461 14.0887 39.1525 14.1688 39.0098 14.3115C38.8671 14.4542 38.787 14.6478 38.787 14.8495V23.2191H34.0087L29.951 11.0452H32.7C32.9018 11.0452 33.0954 10.965 33.238 10.8223C33.3807 10.6797 33.4609 10.4861 33.4609 10.2843V7.24085C33.4609 7.03905 33.3807 6.84552 33.238 6.70283C33.0954 6.56014 32.9018 6.47998 32.7 6.47998H9.87394C9.67215 6.47998 9.47862 6.56014 9.33593 6.70283C9.19324 6.84552 9.11307 7.03905 9.11307 7.24085V10.2843C9.11307 10.4861 9.19324 10.6797 9.33593 10.8223C9.47862 10.965 9.67215 11.0452 9.87394 11.0452H11.3957V18.6295H12.9174V11.0452H28.3471L32.4048 23.2191H12.9174V20.2243H11.3957V23.98C11.3964 24.085 11.4192 24.1887 11.4626 24.2843C9.52322 25.0863 7.79412 26.3234 6.40894 27.9C6.27606 28.0519 6.20898 28.2505 6.22247 28.4519C6.23595 28.6533 6.32889 28.8411 6.48085 28.974C6.6328 29.1068 6.83131 29.1739 7.03272 29.1604C7.23413 29.1469 7.42193 29.054 7.55481 28.9021C7.80742 28.6137 8.07677 28.3443 8.3522 28.0834V30.2191L7.57536 30.9967C7.43272 31.1394 7.35258 31.3329 7.35258 31.5347C7.35258 31.7364 7.43272 31.9299 7.57536 32.0726L7.92155 32.418C7.68178 32.8853 7.48049 33.3713 7.3197 33.8713H6.83046C6.62867 33.8713 6.43514 33.9515 6.29245 34.0941C6.14976 34.2368 6.0696 34.4304 6.0696 34.6322V39.1974C6.0696 39.3992 6.14976 39.5927 6.29245 39.7354C6.43514 39.8781 6.62867 39.9582 6.83046 39.9582H7.3197C7.48069 40.458 7.68171 40.944 7.92079 41.4115L7.57536 41.7569C7.43272 41.8996 7.35258 42.0931 7.35258 42.2949C7.35258 42.4966 7.43272 42.6901 7.57536 42.8328L10.8037 46.0612C10.9464 46.2038 11.1399 46.284 11.3417 46.284C11.5434 46.284 11.7369 46.2038 11.8796 46.0612L12.225 45.7158C12.6926 45.9547 13.1786 46.1557 13.6783 46.3168V46.8061C13.6783 47.0079 13.7585 47.2014 13.9011 47.3441C14.0438 47.4868 14.2374 47.5669 14.4392 47.5669H19.0044C19.2062 47.5669 19.3997 47.4868 19.5424 47.3441C19.6851 47.2014 19.7652 47.0079 19.7652 46.8061V46.3168C20.265 46.1557 20.7509 45.9547 21.2185 45.7158L21.5639 46.0612C21.7066 46.2038 21.9001 46.284 22.1019 46.284C22.3036 46.284 22.4971 46.2038 22.6398 46.0612L25.8682 42.8328C26.0108 42.6901 26.091 42.4966 26.091 42.2949C26.091 42.0931 26.0108 41.8996 25.8682 41.7569L25.5227 41.4115C25.7618 40.944 25.9628 40.458 26.1238 39.9582H31.9392V41.48C31.9392 41.6496 31.9958 41.8144 32.1002 41.9481C32.2046 42.0818 32.3506 42.1768 32.5151 42.218L33.1406 42.3748C33.1915 42.511 33.2486 42.6464 33.3095 42.7796L32.977 43.3327C32.8897 43.4783 32.8535 43.6489 32.8744 43.8174C32.8952 43.9859 32.9717 44.1425 33.0919 44.2625L35.2436 46.4142C35.3635 46.5342 35.52 46.6106 35.6884 46.6315C35.8567 46.6523 36.0271 46.6162 36.1726 46.5291L36.7265 46.1974C36.8605 46.2575 36.9959 46.3138 37.1313 46.3655L37.2881 46.9902C37.3291 47.1549 37.4241 47.3011 37.5578 47.4056C37.6916 47.5101 37.8564 47.5669 38.0261 47.5669H41.0696C41.2393 47.5669 41.4041 47.5101 41.5379 47.4056C41.6716 47.3011 41.7666 47.1549 41.8076 46.9902L41.9644 46.3655C42.0998 46.3138 42.2352 46.2575 42.3692 46.1974L42.9231 46.5291C43.0686 46.6162 43.239 46.6523 43.4073 46.6315C43.5757 46.6106 43.7322 46.5342 43.8521 46.4142L46.0038 44.2625C46.124 44.1425 46.2005 43.9859 46.2213 43.8174C46.2422 43.6489 46.206 43.4783 46.1187 43.3327L45.7862 42.7796C45.8471 42.6464 45.9042 42.511 45.9551 42.3748L46.5806 42.218C46.7451 42.1768 46.8911 42.0818 46.9955 41.9481C47.0999 41.8144 47.1565 41.6496 47.1565 41.48V39.9582H49.4392C50.0445 39.9582 50.6251 39.7178 51.0532 39.2897C51.4813 38.8616 51.7218 38.281 51.7218 37.6756V34.601H50.2V37.6756C50.2 37.8774 50.1199 38.071 49.9772 38.2137C49.8345 38.3563 49.6409 38.4365 49.4392 38.4365H47.1565C47.1565 38.2669 47.0999 38.1021 46.9955 37.9684C46.8911 37.8347 46.7451 37.7397 46.5806 37.6985L45.9551 37.5417C45.9042 37.4055 45.8471 37.2701 45.7862 37.1369L46.1187 36.5838C46.206 36.4382 46.2422 36.2676 46.2213 36.0991C46.2005 35.9306 46.124 35.774 46.0038 35.654L43.8521 33.5023C43.7322 33.3823 43.5757 33.3059 43.4073 33.285C43.239 33.2642 43.0686 33.3002 42.9231 33.3874L42.3692 33.7191C42.2352 33.659 42.0998 33.6027 41.9644 33.551L41.8076 32.9263C41.7666 32.7616 41.6716 32.6154 41.5379 32.5109C41.4041 32.4064 41.2393 32.3496 41.0696 32.3496H38.787V24.7409H44.8739C46.286 24.7425 47.6398 25.3041 48.6383 26.3026C49.6368 27.3011 50.1984 28.6549 50.2 30.0669V33.1104H51.7218V30.0669C51.7197 28.2514 50.9976 26.5108 49.7139 25.227C48.4301 23.9432 46.6895 23.2211 44.8739 23.2191ZM12.1566 9.52346H10.6348V8.00172H31.9392V9.52346H12.1566ZM25.8522 38.4365H25.5524C25.3838 38.4366 25.2199 38.4926 25.0866 38.5959C24.9533 38.6992 24.8581 38.8439 24.8159 39.0072C24.6215 39.7626 24.3218 40.4869 23.9257 41.1589C23.84 41.3042 23.805 41.4738 23.8262 41.6412C23.8474 41.8085 23.9236 41.9641 24.0429 42.0834L24.2536 42.2949L22.1019 44.4474L21.8904 44.2366C21.771 44.1172 21.6153 44.0409 21.4478 44.0197C21.2803 43.9984 21.1105 44.0336 20.9651 44.1194C20.2934 44.5157 19.5693 44.8156 18.8142 45.0104C18.6509 45.0526 18.5062 45.1478 18.4029 45.2811C18.2996 45.4144 18.2435 45.5783 18.2435 45.7469V46.0452H15.2V45.7462C15.2 45.5775 15.1439 45.4137 15.0406 45.2804C14.9373 45.147 14.7927 45.0518 14.6294 45.0097C13.8742 44.8148 13.1502 44.5149 12.4784 44.1187C12.333 44.0328 12.1632 43.9977 11.9957 44.0189C11.8282 44.0401 11.6725 44.1164 11.5532 44.2359L11.3417 44.4466L9.18916 42.2949L9.39992 42.0834C9.51916 41.9641 9.59538 41.8085 9.61659 41.6412C9.6378 41.4738 9.6028 41.3042 9.51709 41.1589C9.12099 40.4869 8.82132 39.7626 8.62688 39.0072C8.58475 38.844 8.48964 38.6994 8.35648 38.5961C8.22332 38.4929 8.05964 38.4367 7.89112 38.4365H7.59133V35.393H7.89112C8.05977 35.393 8.22362 35.3369 8.35694 35.2336C8.49026 35.1303 8.58548 34.9857 8.62764 34.8224C8.82208 34.067 9.12175 33.3426 9.51786 32.6706C9.60356 32.5254 9.63856 32.3557 9.61735 32.1884C9.59614 32.021 9.51992 31.8655 9.40068 31.7462L9.18916 31.5347L11.3417 29.3822L11.5532 29.5929C11.6725 29.7123 11.8282 29.7887 11.9957 29.8099C12.1632 29.8311 12.333 29.796 12.4784 29.7101C13.1502 29.3139 13.8742 29.014 14.6294 28.8191C14.7927 28.777 14.9373 28.6817 15.0406 28.5484C15.1439 28.4151 15.2 28.2512 15.2 28.0826V27.7843H18.2435V28.0834C18.2435 28.252 18.2996 28.4159 18.4029 28.5492C18.5062 28.6825 18.6509 28.7777 18.8142 28.8199C19.5693 29.0147 20.2934 29.3146 20.9651 29.7109C21.1105 29.7967 21.2803 29.8319 21.4478 29.8106C21.6153 29.7894 21.771 29.7131 21.8904 29.5937L22.1019 29.3829L24.2544 31.5347L24.0436 31.7462C23.9244 31.8655 23.8482 32.021 23.827 32.1884C23.8057 32.3557 23.8407 32.5254 23.9264 32.6706C24.3225 33.3426 24.6222 34.067 24.8167 34.8224C24.8588 34.9857 24.954 35.1303 25.0874 35.2336C25.2207 35.3369 25.3845 35.393 25.5532 35.393H25.8522V38.4365ZM40.4754 33.8713L40.588 34.321C40.6197 34.4485 40.6838 34.5656 40.7742 34.6609C40.8646 34.7563 40.9782 34.8266 41.1038 34.865C41.4306 34.9645 41.7468 35.0958 42.0481 35.2568C42.1641 35.3185 42.2941 35.3491 42.4254 35.3457C42.5567 35.3422 42.6849 35.3048 42.7975 35.2371L43.1962 34.9981L44.508 36.3099L44.2683 36.7086C44.2005 36.8215 44.1632 36.95 44.16 37.0817C44.1568 37.2133 44.1878 37.3435 44.25 37.4596C44.4109 37.7603 44.5422 38.0761 44.6419 38.4023C44.6802 38.5277 44.7502 38.6412 44.8453 38.7315C44.9403 38.8219 45.0572 38.8862 45.1844 38.9181L45.6348 39.0307V40.8857L45.1844 40.9984C45.0572 41.0303 44.9403 41.0946 44.8453 41.185C44.7502 41.2753 44.6802 41.3888 44.6419 41.5142C44.5422 41.8404 44.4109 42.1562 44.25 42.4569C44.1878 42.573 44.1568 42.7032 44.16 42.8348C44.1632 42.9665 44.2005 43.095 44.2683 43.2079L44.508 43.6066L43.2 44.9184L42.8013 44.6794C42.6887 44.6117 42.5605 44.5743 42.4292 44.5708C42.2979 44.5674 42.1679 44.598 42.0519 44.6597C41.7506 44.8207 41.4344 44.952 41.1076 45.0515C40.982 45.0899 40.8684 45.1602 40.778 45.2556C40.6876 45.3509 40.6235 45.468 40.5918 45.5955L40.4754 46.0452H38.6203L38.5077 45.5955C38.476 45.468 38.4119 45.3509 38.3215 45.2556C38.2311 45.1602 38.1175 45.0899 37.9919 45.0515C37.6651 44.952 37.3489 44.8207 37.0476 44.6597C36.9316 44.598 36.8016 44.5674 36.6703 44.5708C36.539 44.5743 36.4108 44.6117 36.2982 44.6794L35.8995 44.9184L34.5877 43.6104L34.8274 43.2117C34.8952 43.0988 34.9325 42.9703 34.9357 42.8386C34.9389 42.707 34.9079 42.5768 34.8457 42.4608C34.6848 42.16 34.5535 41.8442 34.4538 41.518C34.4155 41.3926 34.3455 41.2791 34.2504 41.1888C34.1554 41.0984 34.0386 41.0341 33.9113 41.0022L33.4609 40.8857V39.0307L33.9113 38.9181C34.0386 38.8862 34.1554 38.8219 34.2504 38.7315C34.3455 38.6412 34.4155 38.5277 34.4538 38.4023C34.5537 38.0759 34.6849 37.7599 34.8457 37.4588C34.9077 37.3428 34.9387 37.2128 34.9355 37.0813C34.9323 36.9498 34.895 36.8214 34.8274 36.7086L34.5877 36.3099L35.8995 34.9981L36.2982 35.2371C36.4108 35.3048 36.539 35.3422 36.6703 35.3457C36.8016 35.3491 36.9316 35.3185 37.0476 35.2568C37.3489 35.0958 37.6651 34.9645 37.9919 34.865C38.1175 34.8266 38.2311 34.7563 38.3215 34.6609C38.4119 34.5656 38.476 34.4485 38.5077 34.321L38.6203 33.8713H40.4754ZM37.2652 33.0176L37.1313 33.5502C36.9959 33.6019 36.8605 33.6582 36.7265 33.7184L36.1726 33.3866C36.0271 33.2995 35.8567 33.2635 35.6884 33.2843C35.52 33.3051 35.3635 33.3816 35.2436 33.5015L33.0919 35.6532C32.9717 35.7732 32.8952 35.9299 32.8744 36.0984C32.8535 36.2668 32.8897 36.4374 32.977 36.583L33.3095 37.1354C33.2486 37.2693 33.1915 37.4048 33.1406 37.541L32.5151 37.6977C32.3505 37.739 32.2043 37.8341 32.1 37.968C31.9956 38.1018 31.939 38.2668 31.9392 38.4365H27.3739V34.6322C27.3739 34.4304 27.2938 34.2368 27.1511 34.0941C27.0084 33.9515 26.8149 33.8713 26.6131 33.8713H26.1238C25.963 33.3713 25.7618 32.8853 25.522 32.418L25.8682 32.0726C26.0108 31.9299 26.091 31.7364 26.091 31.5347C26.091 31.3329 26.0108 31.1394 25.8682 30.9967L22.6398 27.7684C22.4971 27.6257 22.3036 27.5456 22.1019 27.5456C21.9001 27.5456 21.7066 27.6257 21.5639 27.7684L21.2185 28.1138C20.7509 27.8749 20.265 27.6739 19.7652 27.5127V27.0235C19.7652 26.8217 19.6851 26.6281 19.5424 26.4854C19.3997 26.3428 19.2062 26.2626 19.0044 26.2626H14.4392C14.2374 26.2626 14.0438 26.3428 13.9011 26.4854C13.7585 26.6281 13.6783 26.8217 13.6783 27.0235V27.5127C13.1786 27.6739 12.6926 27.8749 12.225 28.1138L11.8796 27.7684C11.7369 27.6257 11.5434 27.5456 11.3417 27.5456C11.1399 27.5456 10.9464 27.6257 10.8037 27.7684L9.87394 28.6974V26.8713C12.3284 25.1873 15.3162 24.4641 18.2691 24.8392C21.222 25.2143 23.934 26.6616 25.8895 28.9059C26.0226 29.0566 26.21 29.1485 26.4107 29.1615C26.6114 29.1745 26.809 29.1075 26.9605 28.9752C27.1119 28.8428 27.2048 28.6559 27.2188 28.4553C27.2329 28.2547 27.1669 28.0567 27.0354 27.9046C25.8881 26.6004 24.503 25.5267 22.9541 24.7409H37.2652V33.0176ZM40.3087 23.2191V15.6104H41.8305V23.2191H40.3087Z" fill="#005CCE"/>
<path d="M46.3961 27.0234C45.5889 27.0234 44.8148 27.3441 44.244 27.9149C43.6733 28.4856 43.3526 29.2597 43.3526 30.0669C43.3526 30.8741 43.6733 31.6482 44.244 32.219C44.8148 32.7897 45.5889 33.1104 46.3961 33.1104H47.157C47.3588 33.1104 47.5523 33.0302 47.695 32.8875C47.8377 32.7448 47.9179 32.5513 47.9179 32.3495V27.7843C47.9179 27.5825 47.8377 27.389 47.695 27.2463C47.5523 27.1036 47.3588 27.0234 47.157 27.0234H46.3961ZM46.3961 31.5887C45.9925 31.5887 45.6055 31.4283 45.3201 31.1429C45.0347 30.8576 44.8744 30.4705 44.8744 30.0669C44.8744 29.6633 45.0347 29.2763 45.3201 28.9909C45.6055 28.7055 45.9925 28.5452 46.3961 28.5452V31.5887Z" fill="#005CCE"/>
<path d="M34.9834 27.0234H31.179V28.5452H34.9834V27.0234Z" fill="#005CCE"/>
<path d="M34.9834 30.0669H31.179V31.5886H34.9834V30.0669Z" fill="#005CCE"/>
<path d="M28.8965 21.6973C29.0151 21.6973 29.1321 21.6696 29.2381 21.6164C29.3441 21.5632 29.4361 21.4859 29.5069 21.3908C29.5778 21.2956 29.6254 21.1853 29.6459 21.0685C29.6665 20.9517 29.6595 20.8317 29.6255 20.7181L27.3428 13.1094C27.2959 12.9526 27.1996 12.8151 27.0683 12.7174C26.937 12.6197 26.7776 12.5669 26.6139 12.5669H15.2009C14.9991 12.5669 14.8056 12.6471 14.6629 12.7897C14.5202 12.9324 14.44 13.126 14.44 13.3278V20.9365C14.44 21.1383 14.5202 21.3318 14.6629 21.4745C14.8056 21.6172 14.9991 21.6973 15.2009 21.6973H28.8965ZM15.9618 14.0886H26.0479L27.8739 20.1756H15.9618V14.0886ZM16.7226 30.8278C15.5187 30.8278 14.3419 31.1848 13.3409 31.8536C12.3399 32.5224 11.5597 33.4731 11.099 34.5853C10.6383 35.6976 10.5178 36.9215 10.7526 38.1022C10.9875 39.283 11.5672 40.3676 12.4185 41.2188C13.2698 42.0701 14.3544 42.6498 15.5351 42.8847C16.7159 43.1196 17.9398 42.999 19.052 42.5383C20.1643 42.0776 21.1149 41.2974 21.7837 40.2964C22.4526 39.2955 22.8096 38.1186 22.8096 36.9147C22.8078 35.3009 22.1659 33.7537 21.0248 32.6126C19.8836 31.4715 18.3364 30.8296 16.7226 30.8278ZM16.7226 41.4799C15.8197 41.4799 14.9371 41.2122 14.1863 40.7106C13.4356 40.2089 12.8504 39.4959 12.5049 38.6618C12.1594 37.8276 12.069 36.9097 12.2451 36.0241C12.4213 35.1385 12.8561 34.3251 13.4945 33.6866C14.133 33.0482 14.9464 32.6134 15.832 32.4372C16.7176 32.2611 17.6355 32.3515 18.4697 32.697C19.3038 33.0425 20.0168 33.6277 20.5185 34.3784C21.0201 35.1292 21.2878 36.0118 21.2878 36.9147C21.2866 38.1251 20.8053 39.2856 19.9494 40.1415C19.0935 40.9974 17.933 41.4787 16.7226 41.4799Z" fill="#005CCE"/>
<path d="M19.0049 36.1536H14.4397V37.6753H19.0049V36.1536Z" fill="#005CCE"/>
<path d="M35.744 39.9579C35.744 40.7103 35.9671 41.4459 36.3851 42.0715C36.8032 42.6971 37.3973 43.1847 38.0925 43.4727C38.7876 43.7606 39.5526 43.836 40.2905 43.6892C41.0285 43.5424 41.7064 43.18 42.2384 42.648C42.7705 42.1159 43.1328 41.4381 43.2796 40.7001C43.4264 39.9621 43.351 39.1972 43.0631 38.5021C42.7752 37.8069 42.2875 37.2127 41.6619 36.7947C41.0363 36.3767 40.3008 36.1536 39.5483 36.1536C38.5397 36.1548 37.5728 36.556 36.8596 37.2692C36.1464 37.9824 35.7452 38.9493 35.744 39.9579ZM39.5483 37.6753C39.9998 37.6753 40.4411 37.8092 40.8165 38.06C41.1919 38.3108 41.4844 38.6673 41.6572 39.0844C41.83 39.5015 41.8752 39.9604 41.7871 40.4032C41.699 40.846 41.4816 41.2527 41.1624 41.572C40.8432 41.8912 40.4364 42.1086 39.9937 42.1967C39.5509 42.2847 39.0919 42.2395 38.6748 42.0668C38.2577 41.894 37.9012 41.6014 37.6504 41.2261C37.3996 40.8507 37.2657 40.4094 37.2657 39.9579C37.2657 39.3525 37.5062 38.7719 37.9343 38.3439C38.3624 37.9158 38.943 37.6753 39.5483 37.6753Z" fill="#005CCE"/>
<path d="M40.3094 39.1975H38.7877V40.7192H40.3094V39.1975Z" fill="#005CCE"/>
</g>
<defs>
<clipPath id="clip0_1_262">
<rect width="80" height="80" fill="white"/>
</clipPath>
</defs>
</svg>
