<svg width="80" height="80" viewBox="0 0 80 80" fill="none" xmlns="http://www.w3.org/2000/svg">
<path d="M4.29851 42.5074H7.04478C7.04478 42.6268 7.04478 50.8656 7.04478 50.5074C7.04478 52.5372 8.59702 54.0895 10.6269 54.0895H12.6567C13.2537 58.5074 17.0746 61.9701 21.6119 61.9701C26.1493 61.9701 29.9701 58.5074 30.5672 54.0895H54.6866C55.2836 58.5074 59.1045 61.9701 63.6418 61.9701C68.1791 61.9701 72 58.5074 72.597 54.0895H74.5075C76.5373 54.0895 78.0896 52.5372 78.0896 50.5074V39.6417C78.0896 37.6119 76.5373 36.0596 74.5075 36.0596H58.7463C58.6269 36.0596 58.5075 36.0596 58.5075 35.9402L52.5373 24.5969C51.9403 23.4029 50.7463 22.6865 49.3134 22.6865H46.806V20.4178H48.4776C49.194 20.4178 49.6716 19.9402 49.6716 19.2238C49.6716 18.5074 49.194 18.0298 48.4776 18.0298H9.55224C8.83582 18.0298 8.35821 18.5074 8.35821 19.2238C8.35821 19.9402 8.83582 20.4178 9.55224 20.4178H11.2239V22.6865H10.5075C8.47761 22.6865 6.92537 24.2387 6.92537 26.2686V29.9701H4.29851C2.98508 29.9701 1.79105 31.0447 1.79105 32.4775V40.1193C1.79105 41.4328 2.86567 42.5074 4.29851 42.5074ZM9.31343 50.5074V49.6716H12.8955C12.6567 50.1492 12.5373 50.8656 12.4179 51.4626C12.4179 51.582 12.4179 51.582 12.4179 51.7014H10.5075C9.91045 51.7014 9.31343 51.2238 9.31343 50.5074ZM21.4925 59.582C17.791 59.582 14.806 56.5969 14.806 52.8955C14.806 49.4328 17.5522 46.4477 21.0149 46.2089C24.9552 45.9701 28.1791 48.9552 28.1791 52.8955C28.2985 56.5969 25.194 59.582 21.4925 59.582ZM54.6866 51.7014H30.5672C30.4478 51.1044 30.209 50.0298 30.0896 49.6716H55.1642C54.9254 50.2686 54.806 50.985 54.6866 51.7014ZM63.6418 59.582C59.9403 59.582 56.9552 56.5969 56.9552 52.8955C56.9552 49.194 60.0597 46.2089 63.6418 46.2089C67.1045 46.2089 69.8507 48.7163 70.3284 52.0596C70.806 56.1193 67.7015 59.582 63.6418 59.582ZM72.7164 51.7014C72.597 51.1044 72.3582 50.0298 72.2388 49.6716H75.8209V50.5074C75.8209 51.2238 75.3433 51.7014 74.6269 51.7014H72.7164ZM75.8209 44.7761H74.0298C73.6716 44.7761 73.4328 44.5372 73.4328 44.179V41.6716C73.4328 41.3134 73.6716 41.0746 74.0298 41.0746H75.8209V44.7761ZM44.5373 22.6865H38.5672V20.4178H44.5373V22.6865ZM30.209 22.6865V20.4178H36.1791V22.6865H30.209ZM21.9701 22.6865V20.4178H27.9403V22.6865H21.9701ZM13.6119 20.4178H19.5821V22.6865H13.6119V20.4178ZM10.5075 25.0746C18.6269 25.0746 38.0896 25.0746 45.6119 25.0746H49.3134C49.791 25.0746 50.1493 25.3134 50.3881 25.6716L56.2388 37.0149C56.7164 37.8507 57.5522 38.4477 58.6269 38.4477H74.5075C75.2239 38.4477 75.7015 38.9253 75.7015 39.6417V39.8805H74.0298C73.0746 39.8805 72.2388 40.7164 72.2388 41.6716V44.179C72.2388 45.1343 73.0746 45.9701 74.0298 45.9701H75.8209V47.2835H70.9254C69.1343 45.0149 66.3881 43.7014 63.7612 43.7014C61.1343 43.7014 58.3881 44.8955 56.597 47.2835H28.7761C26.7463 44.6566 23.6418 43.4626 20.5373 43.8208C18.2687 44.0596 15.8806 45.2537 14.3284 47.2835H9.31343V26.2686C9.31343 25.5522 9.91045 25.0746 10.5075 25.0746ZM4.29851 32.3581H7.04478V40.1193H4.29851V32.3581Z" fill="#005CCE"/>
<path d="M40.2388 37.8508H52.8955C53.1343 37.8508 53.2537 37.7314 53.3731 37.612C53.4925 37.3732 53.4925 37.2538 53.3731 37.015L48.2388 27.2239C48.1194 26.9851 47.8806 26.8657 47.7612 26.8657H40.1194C39.7612 26.8657 39.5224 27.1045 39.5224 27.4627V37.2538C39.6418 37.4926 39.8806 37.8508 40.2388 37.8508ZM40.8358 28.0598H47.403L51.9403 36.6568H40.8358V28.0598ZM21.4925 48.8359C19.3433 48.8359 17.5522 50.6269 17.5522 52.7762C17.5522 54.9254 19.3433 56.7165 21.4925 56.7165C23.6418 56.7165 25.4328 54.9254 25.4328 52.7762C25.4328 50.6269 23.7612 48.8359 21.4925 48.8359ZM21.4925 55.6418C19.9403 55.6418 18.7463 54.3284 18.7463 52.8956C18.7463 51.3433 20.0597 50.1493 21.4925 50.1493C23.0448 50.1493 24.2388 51.4627 24.2388 52.8956C24.3582 54.4478 23.0448 55.6418 21.4925 55.6418ZM63.6418 48.8359C61.4925 48.8359 59.7015 50.6269 59.7015 52.7762C59.7015 54.9254 61.4925 56.7165 63.6418 56.7165C65.791 56.7165 67.5821 54.9254 67.5821 52.7762C67.5821 50.6269 65.9104 48.8359 63.6418 48.8359ZM63.6418 55.6418C62.0896 55.6418 60.8955 54.3284 60.8955 52.8956C60.8955 51.3433 62.209 50.1493 63.6418 50.1493C65.0746 50.1493 66.3881 51.4627 66.3881 52.8956C66.5075 54.4478 65.194 55.6418 63.6418 55.6418ZM12.7761 37.8508H35.8209C36.1791 37.8508 36.4179 37.612 36.4179 37.2538V27.4627C36.4179 27.1045 36.1791 26.8657 35.8209 26.8657H12.7761C12.4179 26.8657 12.1791 27.1045 12.1791 27.4627V37.2538C12.1791 37.4926 12.4179 37.8508 12.7761 37.8508ZM35.2239 36.6568H24.9552V28.0598H35.2239V36.6568ZM13.3731 28.0598H23.6418V36.6568H13.3731V28.0598ZM43.4627 39.6418H40.3582C40 39.6418 39.7612 39.8806 39.7612 40.2389C39.7612 40.5971 40 40.8359 40.3582 40.8359H43.4627C43.8209 40.8359 44.0597 40.5971 44.0597 40.2389C44.0597 39.8806 43.8209 39.6418 43.4627 39.6418Z" fill="#005CCE"/>
</svg>
