<svg width="66" height="60" viewBox="0 0 66 60" fill="none" xmlns="http://www.w3.org/2000/svg">
<path d="M50.9057 40.8984H39.2912V37.2656H41.3666C41.4698 37.2656 41.56 37.2656 41.6373 37.2656C41.6631 37.2656 41.6889 37.2656 41.7147 37.2656C42.4366 37.2656 43.1198 37.1484 43.2616 36.0703C43.2745 35.9531 43.2873 35.8242 43.326 35.6484C43.8416 32.9648 44.976 30.7969 47.103 28.4062C48.6885 26.625 49.333 24.9141 49.0366 23.332C48.6756 21.457 47.0643 20.4844 46.8709 20.3789L41.8565 17.4844C42.1014 16.7344 42.2303 15.9375 42.2303 15.1172V12.4336C42.3334 12.3984 42.4495 12.3516 42.5655 12.3047C44.0479 11.6836 45.0018 10.3594 45.0018 8.91797C45.0018 7.06641 43.5967 5.46094 41.6245 5.02734C41.1604 3.24609 39.3815 1.95703 37.3448 1.95703C37.1385 1.95703 36.958 1.96875 36.8162 1.99219C36.0299 0.761719 34.5733 0 33.0006 0C31.428 0 29.9713 0.761719 29.185 2.00391C29.0432 1.99219 28.8627 1.96875 28.6565 1.96875C26.6198 1.96875 24.8409 3.24609 24.3768 5.03906C22.4045 5.46094 20.9994 7.06641 20.9994 8.92969C20.9994 10.3711 21.9534 11.6953 23.4358 12.3164C23.5518 12.3633 23.6678 12.4102 23.7709 12.4453V15.1289C23.7709 15.9492 23.8998 16.7461 24.1448 17.4961L19.1303 20.3906C18.9369 20.4961 17.3256 21.4688 16.9647 23.3438C16.6553 24.9258 17.3127 26.6367 18.8854 28.418C21.0123 30.8086 22.1338 32.9766 22.6623 35.6602C22.701 35.8359 22.7139 35.9648 22.7268 36.082C22.8686 37.207 23.6034 37.2891 24.351 37.2773C24.4284 37.2773 24.5186 37.2773 24.6217 37.2773H26.6971V40.9102H15.0827C13.2909 40.9102 11.8471 42.2344 11.8471 43.8516C11.8471 45.1641 12.801 46.2891 14.1159 46.6641V58.3242C14.1159 59.25 14.9409 60 15.9592 60H50.0162C51.0346 60 51.8596 59.25 51.8596 58.3242V46.6641C53.1744 46.2891 54.1284 45.1758 54.1284 43.8516C54.1412 42.2227 52.6846 40.8984 50.9057 40.8984ZM45.8268 21.8555L45.8397 21.8672C45.8526 21.8672 46.8838 22.4766 47.1159 23.6367C47.3221 24.6914 46.8065 25.9336 45.5819 27.3047C44.7827 28.207 44.1123 29.0859 43.5452 29.9648L39.8584 20.6953C40.3225 20.2148 40.735 19.6992 41.083 19.1367L45.8268 21.8555ZM33.0006 21.7266C28.9787 21.7266 25.7174 18.7617 25.7174 15.1172V12.3398C25.769 12.3164 25.8334 12.293 25.8979 12.2695C26.9291 11.8828 27.5092 11.8125 28.2053 12.3516C28.5147 12.5977 28.8627 12.7266 29.2108 12.7266C29.5459 12.7266 29.8811 12.6211 30.2034 12.3984C30.7577 12.0117 31.4795 12.0117 32.0338 12.3984C32.3561 12.6211 32.6784 12.7266 33.0135 12.7266C33.3487 12.7266 33.6838 12.6094 34.0061 12.3984C34.5604 12.0117 35.2823 12.0117 35.8237 12.3984C36.4682 12.8555 37.2159 12.8438 37.8217 12.3633C38.5049 11.8125 39.085 11.8945 40.1291 12.2695C40.1936 12.293 40.2452 12.3164 40.3096 12.3398V15.1172C40.2967 18.7617 37.0225 21.7266 33.0006 21.7266ZM22.933 8.91797C22.933 7.85156 23.7709 6.92578 24.9311 6.72656C25.0342 6.70312 25.0987 6.70312 25.1631 6.69141C25.9366 6.60938 26.1557 6.12891 26.1944 5.74219C26.1944 5.68359 26.2073 5.625 26.233 5.51953C26.4651 4.48828 27.4834 3.72656 28.6436 3.72656C28.9272 3.72656 29.0432 3.76172 29.1463 3.78516C30.126 4.05469 30.4998 3.44531 30.7705 2.98828L30.8221 2.89453C31.2604 2.17969 32.0854 1.74609 32.9748 1.74609C33.8772 1.74609 34.7022 2.19141 35.1405 2.89453L35.192 2.98828C35.4627 3.43359 35.8366 4.05469 36.8162 3.78516C36.9194 3.75 37.0483 3.72656 37.319 3.72656C38.492 3.72656 39.4975 4.47656 39.7295 5.51953C39.7553 5.625 39.7553 5.68359 39.7682 5.74219C39.8069 6.12891 40.026 6.60938 40.7995 6.69141C40.8639 6.70312 40.9284 6.70312 41.0315 6.72656C42.1916 6.92578 43.0295 7.85156 43.0295 8.91797C43.0295 9.67969 42.5268 10.3711 41.7276 10.6992C41.3795 10.8398 41.3795 10.8398 40.8123 10.6289C40.0131 10.3242 38.376 9.71484 36.7389 10.8516C35.5787 10.1602 34.1221 10.1719 32.9619 10.8633C32.3819 10.5117 31.7245 10.3359 31.067 10.3359C30.4225 10.3359 29.7651 10.5117 29.1979 10.8516C27.5737 9.72656 25.9366 10.3359 25.1244 10.6289C24.5573 10.8398 24.5573 10.8398 24.2092 10.6992C23.4358 10.3711 22.933 9.69141 22.933 8.91797ZM20.4065 27.293C19.1948 25.9336 18.6791 24.7031 18.8725 23.6484C19.0916 22.4766 20.11 21.8789 20.1487 21.8672L20.1616 21.8555L24.8924 19.125C26.4651 21.7148 29.4944 23.4844 32.9877 23.4844C33.5291 23.4844 34.0577 23.4375 34.5733 23.3555C34.5604 24.3867 34.1608 25.3359 32.9233 26.4258C31.2862 27.8555 28.2182 29.4727 23.2811 31.4648C22.5979 30.0586 21.6698 28.7109 20.4065 27.293ZM24.6475 35.5078C24.6346 35.5078 24.6346 35.5078 24.6217 35.5078C24.6088 35.4492 24.6088 35.4023 24.5959 35.332C24.4412 34.5469 24.2479 33.8086 24.003 33.1055C29.2752 30.9844 32.4592 29.2969 34.3026 27.6914C35.9526 26.2383 36.6358 24.7617 36.5198 22.8516C37.1643 22.6055 37.7702 22.3008 38.3373 21.9375L42.3979 32.1562C41.9725 33.1641 41.6502 34.207 41.4311 35.332C41.4182 35.3906 41.4053 35.4492 41.4053 35.5078C41.3924 35.5078 41.3924 35.5078 41.3795 35.5078H24.6475ZM37.3577 37.2656V40.8984H28.6436V37.2656H37.3577ZM49.9389 58.2422H16.0623V46.793H35.192H38.9045H49.9389V58.2422ZM50.9057 45.0352H38.9045H35.192H15.0955C14.3737 45.0352 13.7936 44.5078 13.7936 43.8516C13.7936 43.1953 14.3737 42.668 15.0955 42.668H50.8928C51.6147 42.668 52.1948 43.1953 52.1948 43.8516C52.2077 44.4961 51.6276 45.0352 50.9057 45.0352Z" fill="white"/>
<path d="M18.718 50.6368V54.3985C18.718 55.1954 19.427 55.8399 20.3036 55.8399H35.1922H39.3946H45.711C46.5875 55.8399 47.2965 55.1954 47.2965 54.3985V50.6368C47.2965 49.8399 46.5875 49.1954 45.711 49.1954H20.3165C19.427 49.1954 18.718 49.8399 18.718 50.6368ZM20.6516 50.9532H45.35V54.0704H39.3946H35.1922H20.6516V50.9532Z" fill="white"/>
</svg>
