<svg width="66" height="60" viewBox="0 0 66 60" fill="none" xmlns="http://www.w3.org/2000/svg">
<g clip-path="url(#clip0_1_395)">
<path d="M65.9 11.9091L59.1 1.45455C58.5 0.545455 57.4 0 56.2 0H23.3C22.1 0 21 0.545455 20.4 1.45455L13.7 11.9091C13.6 12 13.6 12.2727 13.6 12.3636V23.6364H1C0.4 23.6364 0 24 0 24.5455V59.0909C0 59.6364 0.4 60 1 60H34.6C35.2 60 35.6 59.6364 35.6 59.0909V43.7273H61.8C64.1 43.7273 66 42 66 39.9091V12.3636C66 12.2727 65.9 12 65.9 11.9091ZM32.2 13.2727H47.4V20.1818H32.2V13.2727ZM57.4 2.45455L63.3 11.5455H49.1L46.1 1.81818H56.3C56.7 1.81818 57.2 2.09091 57.4 2.45455ZM44 1.81818L47.1 11.4545H32.5L35.6 1.81818H44ZM22.2 2.45455C22.4 2.09091 22.8 1.81818 23.3 1.81818H33.5L30.4 11.4545H16.3L22.2 2.45455ZM2 58.1818V25.4545H22.3V33.6364C22.3 34.1818 22.7 34.5455 23.3 34.5455H33.6V58.2727H2V58.1818ZM31.9 32.6364H24.2V26.4545L31.9 32.6364ZM64 39.9091C64 41 63 41.9091 61.8 41.9091H35.6V33.5455C35.6 33.3636 35.5 33 35.3 32.8182L24 23.7273C23.8 23.5455 23.5 23.5455 23.3 23.5455H15.6V13.2727H30.2V21.0909C30.2 21.6364 30.6 22 31.2 22H48.4C49 22 49.4 21.6364 49.4 21.0909V13.2727H64V39.9091Z" fill="white"/>
<path d="M43.4 25.9091C43.3 25.8182 43.2 25.7273 43.1 25.7273C43 25.6364 42.8 25.6364 42.7 25.6364C42.6 25.6364 42.4 25.6364 42.3 25.7273C42.2 25.8182 42.1 25.8182 42 25.9091L37.4 30.1818C37 30.5454 37 31.0909 37.4 31.4545C37.8 31.8182 38.4 31.8182 38.8 31.4545L41.7 28.7273V38.4545C41.7 39 42.1 39.3636 42.7 39.3636C43.3 39.3636 43.7 39 43.7 38.4545V28.8182L46.6 31.5454C47 31.9091 47.6 31.9091 48 31.5454C48.4 31.1818 48.4 30.6364 48 30.2727L43.4 25.9091ZM51.5 31.4545C51.9 31.8182 52.5 31.8182 52.9 31.4545L55.8 28.7273V38.4545C55.8 39 56.2 39.3636 56.8 39.3636C57.4 39.3636 57.8 39 57.8 38.4545V28.8182L60.7 31.5454C61.1 31.9091 61.7 31.9091 62.1 31.5454C62.5 31.1818 62.5 30.6364 62.1 30.2727L57.5 26C57.3 25.8182 57.1 25.7273 56.8 25.7273C56.5 25.7273 56.3 25.8182 56.1 26L51.5 30.2727C51.1 30.5454 51.2 31.0909 51.5 31.4545ZM31.2 44.1818H17.5C16.9 44.1818 16.5 44.5454 16.5 45.0909V55.3636C16.5 55.9091 16.9 56.2727 17.5 56.2727H31.2C31.8 56.2727 32.2 55.9091 32.2 55.3636V45.0909C32.2 44.5454 31.7 44.1818 31.2 44.1818ZM30.2 54.3636H18.5V45.9091H30.2V54.3636Z" fill="white"/>
<path d="M21.7 53.3636C21.9 53.5454 22.1 53.7273 22.4 53.7273C22.7 53.7273 23 53.6364 23.2 53.4545L28.9 48.5454C29.3 48.1818 29.3 47.6364 28.9 47.2727C28.5 46.9091 27.9 46.9091 27.5 47.2727L22.7 51.4545L21.2 49.3636C20.9 48.9091 20.3 48.8182 19.8 49.0909C19.3 49.3636 19.2 49.9091 19.5 50.3636L21.7 53.3636ZM4.60001 31.4545H19C19.6 31.4545 20 31.0909 20 30.5454C20 30 19.6 29.6364 19 29.6364H4.60001C4.00001 29.6364 3.60001 30 3.60001 30.5454C3.60001 31.0909 4.00001 31.4545 4.60001 31.4545ZM4.60001 37.1818H30.5C31.1 37.1818 31.5 36.8182 31.5 36.2727C31.5 35.7273 31.1 35.3636 30.5 35.3636H4.60001C4.00001 35.3636 3.60001 35.7273 3.60001 36.2727C3.60001 36.8182 4.00001 37.1818 4.60001 37.1818ZM4.60001 42.8182H30.5C31.1 42.8182 31.5 42.4545 31.5 41.9091C31.5 41.3636 31.1 41 30.5 41H4.60001C4.00001 41 3.60001 41.3636 3.60001 41.9091C3.60001 42.3636 4.00001 42.8182 4.60001 42.8182ZM14 46.9091H4.60001C4.00001 46.9091 3.60001 47.2727 3.60001 47.8182C3.60001 48.3636 4.00001 48.7273 4.60001 48.7273H14C14.6 48.7273 15 48.3636 15 47.8182C15 47.2727 14.6 46.9091 14 46.9091ZM14 52.8182H4.60001C4.00001 52.8182 3.60001 53.1818 3.60001 53.7273C3.60001 54.2727 4.00001 54.6364 4.60001 54.6364H14C14.6 54.6364 15 54.2727 15 53.7273C15 53.1818 14.6 52.8182 14 52.8182Z" fill="white"/>
</g>
<defs>
<clipPath id="clip0_1_395">
<rect width="66" height="60" fill="white"/>
</clipPath>
</defs>
</svg>
