<svg width="60" height="60" viewBox="0 0 60 60" fill="none" xmlns="http://www.w3.org/2000/svg">
<g clip-path="url(#clip0_1_455)">
<path d="M56.25 0C55.2554 0 54.3016 0.395088 53.5984 1.09835C52.8951 1.80161 52.5 2.75544 52.5 3.75V7.5H32.5V6.25C32.5 5.91848 32.3683 5.60054 32.1339 5.36612C31.8995 5.1317 31.5815 5 31.25 5H7.5V3.75C7.5 2.75544 7.10491 1.80161 6.40165 1.09835C5.69839 0.395088 4.74456 0 3.75 0C2.75544 0 1.80161 0.395088 1.09835 1.09835C0.395088 1.80161 0 2.75544 0 3.75L0 58.75C0 59.0815 0.131696 59.3995 0.366117 59.6339C0.600537 59.8683 0.918479 60 1.25 60H6.25C6.58152 60 6.89946 59.8683 7.13388 59.6339C7.3683 59.3995 7.5 59.0815 7.5 58.75V56.25H52.5V58.75C52.5 59.0815 52.6317 59.3995 52.8661 59.6339C53.1005 59.8683 53.4185 60 53.75 60H58.75C59.0815 60 59.3995 59.8683 59.6339 59.6339C59.8683 59.3995 60 59.0815 60 58.75V3.75C60 2.75544 59.6049 1.80161 58.9016 1.09835C58.1984 0.395088 57.2446 0 56.25 0V0ZM25 48.75V38.75H27.5V42.5C27.5 42.8315 27.6317 43.1495 27.8661 43.3839C28.1005 43.6183 28.4185 43.75 28.75 43.75H33.75C34.0815 43.75 34.3995 43.6183 34.6339 43.3839C34.8683 43.1495 35 42.8315 35 42.5V38.75H37.5V48.75H25ZM7.5 48.75V33.75H11.25V37.5C11.25 37.8315 11.3817 38.1495 11.6161 38.3839C11.8505 38.6183 12.1685 38.75 12.5 38.75H17.5C17.8315 38.75 18.1495 38.6183 18.3839 38.3839C18.6183 38.1495 18.75 37.8315 18.75 37.5V33.75H22.5V48.75H7.5ZM52.5 22.5V25H7.5V22.5H52.5ZM45 36.25H47.5V38.75H45V36.25ZM38.75 33.75C38.4185 33.75 38.1005 33.8817 37.8661 34.1161C37.6317 34.3505 37.5 34.6685 37.5 35V36.25H25V32.5C25 32.1685 24.8683 31.8505 24.6339 31.6161C24.3995 31.3817 24.0815 31.25 23.75 31.25H7.5V27.5H52.5V33.75H38.75ZM30 38.75H32.5V41.25H30V38.75ZM13.75 33.75H16.25V36.25H13.75V33.75ZM40 36.25H42.5V40C42.5 40.3315 42.6317 40.6495 42.8661 40.8839C43.1005 41.1183 43.4185 41.25 43.75 41.25H48.75C49.0815 41.25 49.3995 41.1183 49.6339 40.8839C49.8683 40.6495 50 40.3315 50 40V36.25H52.5V48.75H40V36.25ZM43.75 10V12.5H41.25V10H43.75ZM38.75 10V13.75C38.75 14.0815 38.8817 14.3995 39.1161 14.6339C39.3505 14.8683 39.6685 15 40 15H45C45.3315 15 45.6495 14.8683 45.8839 14.6339C46.1183 14.3995 46.25 14.0815 46.25 13.75V10H52.5V20H32.5V10H38.75ZM20 7.5V10H17.5V7.5H20ZM15 7.5V11.25C15 11.5815 15.1317 11.8995 15.3661 12.1339C15.6005 12.3683 15.9185 12.5 16.25 12.5H21.25C21.5815 12.5 21.8995 12.3683 22.1339 12.1339C22.3683 11.8995 22.5 11.5815 22.5 11.25V7.5H30V20H7.5V7.5H15ZM5 57.5H2.5V3.75C2.5 3.41848 2.6317 3.10054 2.86612 2.86612C3.10054 2.6317 3.41848 2.5 3.75 2.5C4.08152 2.5 4.39946 2.6317 4.63388 2.86612C4.8683 3.10054 5 3.41848 5 3.75V57.5ZM7.5 53.75V51.25H52.5V53.75H7.5ZM57.5 57.5H55V3.75C55 3.41848 55.1317 3.10054 55.3661 2.86612C55.6005 2.6317 55.9185 2.5 56.25 2.5C56.5815 2.5 56.8995 2.6317 57.1339 2.86612C57.3683 3.10054 57.5 3.41848 57.5 3.75V57.5Z" fill="white"/>
</g>
<defs>
<clipPath id="clip0_1_455">
<rect width="60" height="60" fill="white"/>
</clipPath>
</defs>
</svg>
