<svg width="64" height="60" viewBox="0 0 64 60" fill="none" xmlns="http://www.w3.org/2000/svg">
<path d="M32 40.3125C32.9889 40.3125 33.9556 40.0376 34.7778 39.5225C35.6001 39.0074 36.241 38.2754 36.6194 37.4188C36.9978 36.5623 37.0969 35.6198 36.9039 34.7105C36.711 33.8012 36.2348 32.966 35.5355 32.3104C34.8363 31.6549 33.9454 31.2084 32.9755 31.0276C32.0055 30.8467 31.0002 30.9395 30.0866 31.2943C29.173 31.6491 28.3921 32.2499 27.8427 33.0208C27.2932 33.7916 27 34.6979 27 35.625C27.0016 36.8678 27.5288 38.0592 28.4662 38.938C29.4035 39.8167 30.6744 40.311 32 40.3125ZM32 32.8125C32.5933 32.8125 33.1734 32.9775 33.6667 33.2865C34.1601 33.5955 34.5446 34.0348 34.7716 34.5487C34.9987 35.0626 35.0581 35.6281 34.9424 36.1737C34.8266 36.7193 34.5409 37.2204 34.1213 37.6137C33.7018 38.0071 33.1672 38.2749 32.5853 38.3835C32.0033 38.492 31.4001 38.4363 30.8519 38.2234C30.3038 38.0105 29.8352 37.6501 29.5056 37.1875C29.1759 36.725 29 36.1813 29 35.625C29.0009 34.8793 29.3172 34.1644 29.8796 33.6372C30.4421 33.1099 31.2046 32.8133 32 32.8125Z" fill="white"/>
<path d="M21 32.8125C20.8687 32.8125 20.7386 32.8367 20.6173 32.8838C20.4959 32.9309 20.3857 33 20.2928 33.087C20.2 33.1741 20.1263 33.2774 20.0761 33.3912C20.0258 33.505 20 33.6269 20 33.75V37.5C20 37.6231 20.0258 37.745 20.0761 37.8588C20.1263 37.9726 20.2 38.0759 20.2928 38.163C20.3857 38.25 20.4959 38.3191 20.6173 38.3662C20.7386 38.4133 20.8687 38.4375 21 38.4375H23.5225C23.6279 38.7161 23.7488 38.9892 23.8848 39.2559L22.1006 40.9281C22.0077 41.0152 21.934 41.1185 21.8838 41.2322C21.8335 41.346 21.8076 41.4679 21.8076 41.591C21.8076 41.7141 21.8335 41.836 21.8838 41.9497C21.934 42.0635 22.0077 42.1668 22.1006 42.2538L24.9287 44.9057C25.0215 44.9927 25.1318 45.0618 25.2531 45.1089C25.3744 45.1561 25.5044 45.1803 25.6357 45.1803C25.7671 45.1803 25.8971 45.1561 26.0184 45.1089C26.1397 45.0618 26.2499 44.9927 26.3428 44.9057L28.1269 43.2339C28.4115 43.3609 28.7029 43.474 29 43.5726V45.9375C28.9999 46.0606 29.0258 46.1825 29.076 46.2963C29.1262 46.4101 29.1999 46.5134 29.2928 46.6005C29.3856 46.6875 29.4959 46.7566 29.6172 46.8037C29.7386 46.8508 29.8686 46.875 30 46.875H34C34.1313 46.875 34.2613 46.8508 34.3827 46.8037C34.504 46.7566 34.6143 46.6875 34.7071 46.6005C34.8 46.5134 34.8737 46.4101 34.9239 46.2963C34.9741 46.1825 35 46.0606 35 45.9375V43.5727C35.297 43.474 35.5884 43.361 35.873 43.2339L37.6571 44.9057C37.75 44.9928 37.8602 45.0618 37.9815 45.109C38.1028 45.1561 38.2328 45.1804 38.3642 45.1804C38.4955 45.1804 38.6255 45.1561 38.7468 45.109C38.8681 45.0618 38.9784 44.9928 39.0712 44.9057L41.8993 42.2539C41.9922 42.1668 42.0659 42.0635 42.1161 41.9498C42.1664 41.836 42.1923 41.7141 42.1923 41.591C42.1923 41.4679 42.1664 41.346 42.1161 41.2323C42.0659 41.1186 41.9922 41.0152 41.8993 40.9282L40.1151 39.256C40.2511 38.9893 40.3721 38.7161 40.4775 38.4375H43C43.1313 38.4375 43.2614 38.4133 43.3827 38.3662C43.5041 38.3191 43.6143 38.25 43.7072 38.163C43.8 38.0759 43.8737 37.9726 43.924 37.8588C43.9742 37.745 44 37.6231 44 37.5V33.75C44 33.6269 43.9742 33.505 43.924 33.3912C43.8737 33.2774 43.8 33.1741 43.7072 33.087C43.6143 33 43.5041 32.9309 43.3827 32.8838C43.2614 32.8367 43.1313 32.8125 43 32.8125H40.4775C40.3721 32.5339 40.2512 32.2608 40.1152 31.9941L41.8994 30.3219C41.9923 30.2348 42.066 30.1315 42.1162 30.0178C42.1665 29.904 42.1924 29.7821 42.1924 29.659C42.1924 29.5359 42.1665 29.414 42.1162 29.3003C42.066 29.1865 41.9923 29.0832 41.8994 28.9962L39.0713 26.3443C38.9785 26.2573 38.8682 26.1882 38.7469 26.1411C38.6256 26.0939 38.4956 26.0697 38.3643 26.0697C38.2329 26.0697 38.1029 26.0939 37.9816 26.1411C37.8603 26.1882 37.7501 26.2573 37.6572 26.3443L35.8731 28.0161C35.5885 27.8891 35.2971 27.776 35 27.6773V25.3125C35 25.1894 34.9742 25.0675 34.924 24.9537C34.8737 24.8399 34.8 24.7366 34.7072 24.6495C34.6143 24.5625 34.5041 24.4934 34.3827 24.4463C34.2614 24.3992 34.1313 24.375 34 24.375H30C29.8687 24.375 29.7386 24.3992 29.6173 24.4463C29.4959 24.4934 29.3857 24.5625 29.2928 24.6495C29.2 24.7366 29.1263 24.8399 29.0761 24.9537C29.0258 25.0675 29 25.1894 29 25.3125V27.6773C28.7029 27.776 28.4115 27.889 28.127 28.0161L26.3428 26.3443C26.25 26.2572 26.1398 26.1882 26.0185 26.141C25.8971 26.0939 25.7671 26.0696 25.6358 26.0696C25.5045 26.0696 25.3744 26.0939 25.2531 26.141C25.1318 26.1882 25.0216 26.2572 24.9288 26.3443L22.1006 28.9961C22.0077 29.0832 21.934 29.1865 21.8838 29.3002C21.8335 29.414 21.8076 29.5359 21.8076 29.659C21.8076 29.7821 21.8335 29.904 21.8838 30.0177C21.934 30.1314 22.0077 30.2348 22.1006 30.3218L23.8848 31.9941C23.7488 32.2608 23.6279 32.5339 23.5225 32.8125H21ZM25.8213 31.1581L24.2217 29.659L25.6357 28.3328L27.2353 29.832C27.3919 29.9796 27.5965 30.074 27.8168 30.1001C28.0371 30.1262 28.2603 30.0826 28.4512 29.9762C29.0129 29.6657 29.6185 29.4309 30.25 29.2786C30.4647 29.2266 30.6548 29.1093 30.7906 28.9449C30.9264 28.7806 31 28.5787 31 28.3708V26.25H33V28.3708C33 28.5787 33.0736 28.7806 33.2094 28.9449C33.3452 29.1093 33.5353 29.2266 33.75 29.2786C34.3815 29.4309 34.9871 29.6657 35.5488 29.9762C35.7398 30.0821 35.963 30.1253 36.1831 30.0992C36.4032 30.0731 36.6078 29.9791 36.7646 29.832L38.3643 28.3328L39.7783 29.659L38.1787 31.1581C38.022 31.3052 37.9218 31.4969 37.8939 31.7031C37.866 31.9093 37.9119 32.1184 38.0244 32.2975C38.3563 32.8244 38.6074 33.3924 38.7705 33.9848C38.8259 34.186 38.951 34.3641 39.1262 34.4913C39.3014 34.6185 39.5167 34.6875 39.7383 34.6875H42V36.5625H39.7383C39.5167 36.5625 39.3014 36.6315 39.1262 36.7587C38.951 36.8859 38.8259 37.064 38.7705 37.2652C38.6074 37.8576 38.3563 38.4256 38.0244 38.9525C37.9119 39.1316 37.866 39.3407 37.8939 39.5469C37.9218 39.7531 38.022 39.9448 38.1787 40.0919L39.7783 41.591L38.3643 42.9172L36.7646 41.418C36.6078 41.2709 36.4032 41.1768 36.1831 41.1507C35.963 41.1246 35.7398 41.1679 35.5488 41.2738C34.9871 41.5843 34.3815 41.8191 33.75 41.9714C33.5353 42.0234 33.3452 42.1407 33.2094 42.3051C33.0736 42.4694 33 42.6713 33 42.8792V45H31V42.8792C31 42.6713 30.9264 42.4694 30.7906 42.3051C30.6548 42.1407 30.4647 42.0234 30.25 41.9714C29.6185 41.8191 29.0129 41.5843 28.4512 41.2738C28.2602 41.168 28.037 41.1247 27.8169 41.1508C27.5968 41.1769 27.3922 41.2709 27.2353 41.418L25.6357 42.9172L24.2217 41.591L25.8213 40.0919C25.978 39.9448 26.0782 39.7531 26.1061 39.5469C26.134 39.3407 26.0881 39.1316 25.9756 38.9525C25.6437 38.4256 25.3926 37.8576 25.2295 37.2652C25.1741 37.064 25.049 36.8859 24.8738 36.7587C24.6986 36.6315 24.4833 36.5625 24.2617 36.5625H22V34.6875H24.2617C24.4833 34.6875 24.6986 34.6185 24.8738 34.4913C25.049 34.3641 25.1741 34.186 25.2295 33.9848C25.3926 33.3924 25.6437 32.8244 25.9756 32.2975C26.0881 32.1184 26.134 31.9093 26.1061 31.7031C26.0782 31.4969 25.978 31.3052 25.8213 31.1581Z" fill="white"/>
<path d="M2.00001 3.75H31V4.86025C30.4157 5.05129 29.9092 5.40803 29.5508 5.88102C29.1925 6.354 28.9999 6.9198 28.9999 7.49997C28.9999 8.08014 29.1925 8.64594 29.5508 9.11893C29.9092 9.59191 30.4157 9.94865 31 10.1397V11.25H30C29.8687 11.25 29.7386 11.2742 29.6173 11.3213C29.4959 11.3684 29.3857 11.4375 29.2928 11.5245C29.2 11.6116 29.1263 11.7149 29.0761 11.8287C29.0258 11.9425 29 12.0644 29 12.1875V15H26C25.8687 15 25.7386 15.0242 25.6173 15.0713C25.4959 15.1184 25.3857 15.1875 25.2928 15.2745C25.2 15.3616 25.1263 15.4649 25.0761 15.5787C25.0258 15.6925 25 15.8144 25 15.9375V17.0604L16.7832 18.7724C16.6319 18.8039 16.4905 18.8679 16.3702 18.9594C16.2498 19.051 16.1539 19.1675 16.0898 19.2998L11.0898 29.6123C11.0216 29.7531 10.9915 29.9075 11.0024 30.0618C11.0134 30.2162 11.0649 30.3656 11.1523 30.4967L16.1523 37.9967C16.2673 38.1693 16.4392 38.3022 16.6419 38.3752C16.8446 38.4482 17.0671 38.4573 17.2759 38.4012C17.4846 38.3451 17.6682 38.2268 17.7988 38.0642C17.9295 37.9016 18.0001 37.7036 18 37.5V30.152L19.8066 25.0708L26.2051 22.5H37.7344L44.2012 25.9644L46 30.1804V37.5C45.9999 37.7036 46.0706 37.9016 46.2012 38.0642C46.3319 38.2268 46.5154 38.3451 46.7242 38.4012C46.9329 38.4573 47.1554 38.4482 47.3581 38.3752C47.5608 38.3022 47.7327 38.1693 47.8477 37.9967L52.8477 30.4967C52.9352 30.3656 52.9867 30.2162 52.9976 30.0618C53.0085 29.9075 52.9784 29.7531 52.9102 29.6123L47.9102 19.2998C47.8462 19.1675 47.7502 19.051 47.6298 18.9594C47.5095 18.8679 47.3681 18.8039 47.2168 18.7724L39 17.0604V15.9375C39 15.8144 38.9742 15.6925 38.924 15.5787C38.8737 15.4649 38.8001 15.3616 38.7072 15.2745C38.6143 15.1875 38.5041 15.1184 38.3827 15.0713C38.2614 15.0242 38.1313 15 38 15H35V12.1875C35 12.0644 34.9742 11.9425 34.924 11.8287C34.8737 11.7149 34.8001 11.6116 34.7072 11.5245C34.6143 11.4375 34.5041 11.3684 34.3827 11.3213C34.2614 11.2742 34.1313 11.25 34 11.25H33V10.1397C33.5843 9.94868 34.0908 9.59193 34.4491 9.11894C34.8075 8.64596 35 8.08016 35 7.5C35 6.91984 34.8075 6.35404 34.4491 5.88106C34.0908 5.40807 33.5843 5.05131 33 4.86025V3.75H62V1.875H2.00001V3.75ZM25 20.9446L18.6065 23.5135C18.4766 23.5654 18.36 23.6427 18.2644 23.7401C18.1687 23.8374 18.0963 23.9528 18.0518 24.0784L16.0518 29.7034C16.0176 29.799 16.0001 29.8992 16 30V34.2311L13.1328 29.93L17.7041 20.5014L25 18.9811V20.9446ZM39 18.9811L46.2959 20.5014L50.8672 29.93L48 34.2311V30C47.9999 29.8807 47.9757 29.7625 47.9287 29.6516L45.9287 24.9641C45.8448 24.7676 45.6923 24.6035 45.4961 24.4986L39 21.0186V18.9811ZM31 13.125H33V15H31V13.125ZM34 16.875H37V20.625H27V16.875H34ZM32 6.5625C32.1978 6.5625 32.3911 6.61748 32.5556 6.7205C32.72 6.82351 32.8482 6.96993 32.9239 7.14123C32.9996 7.31254 33.0194 7.50104 32.9808 7.6829C32.9422 7.86475 32.847 8.0318 32.7071 8.16291C32.5673 8.29402 32.3891 8.38331 32.1951 8.41949C32.0011 8.45566 31.8001 8.43709 31.6173 8.36614C31.4346 8.29518 31.2784 8.17502 31.1685 8.02085C31.0587 7.86668 31 7.68542 31 7.5C31.0003 7.25144 31.1057 7.01312 31.2932 6.83736C31.4807 6.6616 31.7349 6.56275 32 6.5625ZM59 49.1473V44.0625C59 43.9394 58.9742 43.8175 58.924 43.7037C58.8737 43.5899 58.8001 43.4866 58.7072 43.3995C58.6143 43.3125 58.5041 43.2434 58.3827 43.1963C58.2614 43.1492 58.1313 43.125 58 43.125H52C51.8687 43.125 51.7386 43.1492 51.6173 43.1963C51.4959 43.2434 51.3857 43.3125 51.2928 43.3995C51.2 43.4866 51.1263 43.5899 51.0761 43.7037C51.0258 43.8175 51 43.9394 51 44.0625V48.75H13V44.0625C13 43.9394 12.9742 43.8175 12.924 43.7037C12.8737 43.5899 12.8001 43.4866 12.7072 43.3995C12.6143 43.3125 12.5041 43.2434 12.3827 43.1963C12.2614 43.1492 12.1313 43.125 12 43.125H6.00001C5.86868 43.125 5.73862 43.1492 5.61728 43.1963C5.49594 43.2434 5.38569 43.3125 5.29282 43.3995C5.19996 43.4866 5.1263 43.5899 5.07606 43.7037C5.02582 43.8175 4.99997 43.9394 5.00001 44.0625V49.1473C3.94728 49.5775 3.08475 50.3345 2.55757 51.2909C2.0304 52.2473 1.87076 53.3449 2.10553 54.3987C2.3403 55.4526 2.95515 56.3984 3.84659 57.0771C4.73803 57.7558 5.85165 58.1258 7.00001 58.125H57C58.1484 58.1258 59.262 57.7558 60.1534 57.0771C61.0449 56.3984 61.6597 55.4526 61.8945 54.3987C62.1293 53.3449 61.9696 52.2473 61.4424 51.2909C60.9153 50.3345 60.0527 49.5775 59 49.1473ZM53 45H57V48.75H53V45ZM7.00001 45H11V48.75H7.00001V45ZM57 56.25H7.00001C6.20436 56.25 5.4413 55.9537 4.87869 55.4262C4.31608 54.8988 4.00001 54.1834 4.00001 53.4375C4.00001 52.6916 4.31608 51.9762 4.87869 51.4488C5.4413 50.9213 6.20436 50.625 7.00001 50.625H57C57.7957 50.625 58.5587 50.9213 59.1213 51.4488C59.6839 51.9762 60 52.6916 60 53.4375C60 54.1834 59.6839 54.8988 59.1213 55.4262C58.5587 55.9537 57.7957 56.25 57 56.25Z" fill="white"/>
<path d="M9 52.5H7V54.375H9V52.5Z" fill="white"/>
<path d="M15 52.5H13V54.375H15V52.5Z" fill="white"/>
<path d="M21 52.5H19V54.375H21V52.5Z" fill="white"/>
<path d="M27 52.5H25V54.375H27V52.5Z" fill="white"/>
<path d="M33 52.5H31V54.375H33V52.5Z" fill="white"/>
<path d="M39 52.5H37V54.375H39V52.5Z" fill="white"/>
<path d="M45 52.5H43V54.375H45V52.5Z" fill="white"/>
<path d="M51 52.5H49V54.375H51V52.5Z" fill="white"/>
<path d="M57 52.5H55V54.375H57V52.5Z" fill="white"/>
<path d="M27 5.625H6V7.5H27V5.625Z" fill="white"/>
<path d="M4 5.625H2V7.5H4V5.625Z" fill="white"/>
<path d="M62 5.625H60V7.5H62V5.625Z" fill="white"/>
<path d="M58 5.625H37V7.5H58V5.625Z" fill="white"/>
</svg>
