<svg width="60" height="60" viewBox="0 0 60 60" fill="none" xmlns="http://www.w3.org/2000/svg">
<path d="M1.54545 35.8181L4.90909 36.9999C5.18182 37.909 5.54545 38.909 6 39.7272L4.45454 42.909C4.27272 43.2727 4.36363 43.6363 4.63636 43.9999L8.54545 47.909C8.81818 48.1818 9.27273 48.2727 9.63636 48.0908L12.8182 46.5454C13.7273 46.9999 14.6364 47.3636 15.5455 47.6363L16.7273 50.9999C16.8182 51.3636 17.1818 51.6363 17.5455 51.6363H23.0909C23.4545 51.6363 23.8182 51.3636 23.9091 50.9999L25.0909 47.6363C26 47.3636 26.9091 46.9999 27.8182 46.5454L31 48.0908C31.1818 48.1818 31.4545 48.1818 31.6364 48.0908C31.8182 48.4545 31.9091 48.8181 32.0909 49.1818L30.9091 51.6363C30.7273 51.9999 30.8182 52.3636 31.0909 52.6363L34.1818 55.7272C34.4545 55.9999 34.9091 56.0908 35.2727 55.909L37.7273 54.7272C38.3636 55.0908 39.0909 55.3636 39.7273 55.5454L40.6364 58.0908C40.7273 58.4545 41.0909 58.7272 41.4545 58.7272H45.8182C46.1818 58.7272 46.5455 58.4545 46.6364 58.0908L47.5455 55.5454C48.2727 55.3636 48.9091 55.0908 49.5455 54.7272L52 55.909C52.3636 56.0908 52.7273 55.9999 53 55.7272L56.0909 52.6363C56.3636 52.3636 56.4545 51.909 56.2727 51.5454L55.0909 49.0908C55.4545 48.4545 55.7273 47.7272 55.9091 47.0908L58.4545 46.1818C58.8182 46.0908 59.0909 45.7272 59.0909 45.3636V40.9999C59.0909 40.6363 58.8182 40.2727 58.4545 40.1818L55.9091 39.2727C55.7273 38.5454 55.4545 37.909 55.0909 37.2727L56.2727 34.8181C56.4545 34.4545 56.3636 34.0908 56.0909 33.7272L53 30.6363C52.7273 30.3636 52.2727 30.2727 52 30.4545L49.5455 31.8181C48.9091 31.4545 48.1818 31.1818 47.5455 30.9999L46.6364 28.4545C46.5455 28.0908 46.1818 27.8181 45.8182 27.8181H41.4545C41.0909 27.8181 40.7273 28.0908 40.6364 28.4545L39.7273 30.9999V29.4545C39.7273 29.0908 39.4545 28.7272 39.0909 28.6363L35.7273 27.4545C35.4545 26.5454 35.0909 25.6363 34.5455 24.7272L36.0909 21.5454C36.2727 21.1818 36.1818 20.8181 35.9091 20.4545L32 16.5454C31.7273 16.2727 31.2727 16.1818 30.9091 16.3636L27.7273 17.909C26.8182 17.4545 25.9091 17.0908 25 16.8181L23.8182 13.4545C23.7273 13.0908 23.3636 12.8181 23 12.8181H17.4545C17.0909 12.8181 16.7273 13.0908 16.6364 13.4545L15.4545 16.8181C14.5455 17.0908 13.6364 17.4545 12.7273 17.909L9.63636 16.3636C9.27273 16.1818 8.90909 16.2727 8.54545 16.5454L4.63636 20.4545C4.36363 20.7272 4.27272 21.1818 4.45454 21.5454L6 24.7272C5.54545 25.6363 5.18182 26.5454 4.90909 27.4545L1.54545 28.6363C1.18182 28.7272 0.909088 29.0908 0.909088 29.4545V34.9999C0.909088 35.3636 1.18182 35.7272 1.54545 35.8181ZM40.6364 32.5454C40.9091 32.4545 41.1818 32.2727 41.2727 31.9999L42.0909 29.6363H45.1818L46 31.9999C46.0909 32.2727 46.3636 32.5454 46.6364 32.5454C47.4545 32.8181 48.3636 33.0908 49.0909 33.5454C49.3636 33.7272 49.6364 33.7272 49.9091 33.5454L52.1818 32.4545L54.3636 34.6363L53.2727 36.909C53.1818 37.1818 53.1818 37.5454 53.2727 37.7272C53.7273 38.5454 54.0909 39.3636 54.2727 40.1818C54.3636 40.4545 54.5455 40.7272 54.8182 40.8181L57.1818 41.6363V44.7272L54.8182 45.5454C54.5455 45.6363 54.2727 45.909 54.2727 46.1818C54 47.0908 53.7273 47.909 53.2727 48.7272C53.0909 48.9999 53.0909 49.2727 53.2727 49.5454L54.3636 51.8181L52.1818 53.9999L49.9091 52.909C49.6364 52.8181 49.3636 52.8181 49.0909 52.909C48.2727 53.3636 47.4545 53.7272 46.6364 53.909C46.3636 53.9999 46.0909 54.1818 46 54.4545L45.1818 56.8181H42.0909L41.2727 54.5454C41.1818 54.2727 40.9091 53.9999 40.6364 53.9999C39.8182 53.7272 38.9091 53.4545 38.1818 52.9999C37.9091 52.8181 37.6364 52.8181 37.3636 52.9999L35.0909 54.0908L32.9091 51.8181L34 49.5454C34.0909 49.2727 34.0909 48.909 34 48.7272C33.6364 48.1818 33.3636 47.5454 33.1818 46.8181L36 43.9999C36.2727 43.7272 36.3636 43.2727 36.1818 42.909L34.5455 39.7272C35 38.8181 35.3636 37.909 35.7273 36.9999L39.0909 35.8181C39.4545 35.7272 39.7273 35.3636 39.7273 34.9999V32.909C40 32.7272 40.3636 32.6363 40.6364 32.5454ZM2.72727 30.0908L5.90909 28.9999C6.18182 28.909 6.45454 28.6363 6.45454 28.3636C6.81818 27.2727 7.27273 26.1818 7.81818 25.1818C8 24.909 8 24.6363 7.81818 24.3636L6.36363 21.2727L9.36363 18.2727L12.3636 19.8181C12.6364 19.909 12.9091 19.909 13.1818 19.8181C14.1818 19.2727 15.2727 18.8181 16.3636 18.4545C16.6364 18.3636 16.9091 18.1818 17 17.909L18.0909 14.7272H22.2727L23.3636 17.909C23.4545 18.1818 23.7273 18.4545 24 18.4545C25.0909 18.7272 26.1818 19.1818 27.1818 19.8181C27.4545 19.9999 27.7273 19.9999 28 19.8181L31 18.2727L34 21.2727L32.7273 24.3636C32.6364 24.6363 32.6364 24.909 32.7273 25.1818C33.2727 26.1818 33.7273 27.2727 34.0909 28.3636C34.1818 28.6363 34.3636 28.909 34.6364 28.9999L37.8182 30.0908V32.2727V34.3636L34.6364 35.4545C34.3636 35.5454 34.0909 35.8181 34.0909 36.0908C33.8182 37.1818 33.3636 38.2727 32.7273 39.3636C32.5455 39.6363 32.5455 39.909 32.7273 40.1818L34.2727 43.1818L31.2727 46.1818L28.1818 44.6363C27.9091 44.5454 27.6364 44.5454 27.3636 44.6363C26.3636 45.1818 25.2727 45.6363 24.0909 45.9999C23.8182 46.0908 23.5455 46.2727 23.4545 46.5454L22.3636 49.7272H18.1818L17.0909 46.5454C17 46.2727 16.7273 45.9999 16.4545 45.9999C15.3636 45.7272 14.2727 45.2727 13.2727 44.6363C13 44.4545 12.7273 44.4545 12.4545 44.6363L9.45454 46.1818L6.36363 43.1818L7.90909 40.1818C8 39.909 8 39.6363 7.90909 39.3636C7.36363 38.3636 6.90909 37.2727 6.54545 36.1818C6.45454 35.909 6.27272 35.6363 6 35.5454L2.72727 34.3636V30.0908Z" fill="white"/>
<path d="M20.2727 40.909C24.9999 40.909 28.909 36.9999 28.909 32.2727C28.909 27.5454 24.9999 23.6363 20.2727 23.6363C15.5454 23.6363 11.6363 27.5454 11.6363 32.2727C11.6363 36.9999 15.5454 40.909 20.2727 40.909ZM20.2727 25.3636C23.9999 25.3636 27.0908 28.4545 27.0908 32.1818C27.0908 35.909 23.9999 38.9999 20.2727 38.9999C16.5454 38.9999 13.4545 35.909 13.4545 32.1818C13.4545 28.4545 16.5454 25.3636 20.2727 25.3636ZM36.2727 15.4545L38.0908 16.0909C38.2727 16.5454 38.4545 16.9999 38.6363 17.3636L37.7272 19.0909C37.5454 19.4545 37.6363 19.8181 37.909 20.1818L40.1817 22.4545C40.4545 22.7272 40.909 22.8181 41.2727 22.6363L42.9999 21.8181C43.4545 21.9999 43.8181 22.1818 44.2727 22.3636L44.909 24.1818C44.9999 24.5454 45.3636 24.8181 45.7272 24.8181H48.9999C49.3636 24.8181 49.7272 24.5454 49.8181 24.1818L50.4545 22.3636C50.909 22.1818 51.3636 21.9999 51.7272 21.8181L53.4545 22.6363C53.8181 22.8181 54.1817 22.7272 54.5454 22.4545L56.8181 20.1818C57.0908 19.909 57.1817 19.4545 56.9999 19.0909L56.1817 17.3636C56.3636 16.909 56.5454 16.4545 56.7272 16.0909L58.5454 15.4545C58.909 15.3636 59.1817 14.9999 59.1817 14.6363V11.3636C59.1817 10.9999 58.909 10.6363 58.5454 10.5454L56.7272 9.90903C56.5454 9.45449 56.3636 8.99994 56.1817 8.63631L56.9999 6.90904C57.1817 6.5454 57.0908 6.18176 56.8181 5.81813L54.5454 3.5454C54.2727 3.27267 53.8181 3.18176 53.5454 3.36358L51.8181 4.18176C51.3636 3.99994 50.909 3.81813 50.5454 3.63631L49.909 1.81813C49.8181 1.45449 49.4545 1.18176 49.0908 1.18176H45.8181C45.4545 1.18176 45.0908 1.45449 44.9999 1.81813L44.3636 3.63631C43.909 3.81813 43.4545 3.99994 43.0908 4.18176L41.3636 3.36358C40.9999 3.18176 40.6363 3.27267 40.3636 3.5454L38.0908 5.81813C37.8181 6.09085 37.7272 6.5454 37.909 6.90904L38.7272 8.63631C38.5454 9.09085 38.3636 9.45449 38.1817 9.90903L36.3636 10.5454C35.9999 10.6363 35.7272 10.9999 35.7272 11.3636V14.6363C35.6363 14.9999 35.909 15.3636 36.2727 15.4545ZM37.4545 11.9999L39.0908 11.4545C39.3636 11.3636 39.6363 11.0909 39.6363 10.8181C39.8181 10.1818 40.0908 9.63631 40.3636 8.99994C40.5454 8.72722 40.5454 8.45449 40.3636 8.18176L39.6363 6.63631L40.9999 5.27267L42.5454 5.99994C42.8181 6.09085 43.0908 6.09085 43.3636 5.99994C43.909 5.63631 44.5454 5.45449 45.1817 5.27267C45.4545 5.18176 45.7272 4.99994 45.8181 4.72722L46.3636 3.09085H48.2727L48.8181 4.72722C48.909 4.99994 49.1817 5.27267 49.4545 5.27267C50.0908 5.45449 50.7272 5.72722 51.2727 5.99994C51.5454 6.18176 51.8181 6.18176 52.0908 5.99994L53.6363 5.27267L54.9999 6.63631L54.2727 8.18176C54.1817 8.45449 54.1817 8.81813 54.2727 8.99994C54.6363 9.5454 54.8181 10.1818 54.9999 10.8181C55.0908 11.0909 55.2727 11.3636 55.5454 11.4545L57.1818 11.9999V13.909L55.6363 14.5454C55.3636 14.6363 55.0908 14.909 55.0908 15.1818C54.909 15.8181 54.6363 16.4545 54.3636 16.9999C54.1817 17.2727 54.1817 17.5454 54.3636 17.8181L55.0908 19.3636L53.7272 20.7272L52.1817 19.9999C51.909 19.909 51.6363 19.909 51.3636 19.9999C50.8181 20.3636 50.1817 20.5454 49.5454 20.7272C49.2727 20.8181 48.9999 20.9999 48.909 21.2727L48.3636 22.909H46.3636L45.8181 21.2727C45.7272 20.9999 45.4545 20.7272 45.1817 20.7272C44.5454 20.5454 43.9999 20.2727 43.3636 19.9999C43.0908 19.8181 42.8181 19.8181 42.5454 19.9999L40.9999 20.7272L39.6363 19.3636L40.3636 17.8181C40.4545 17.5454 40.4545 17.1818 40.3636 16.9999C39.9999 16.4545 39.8181 15.8181 39.6363 15.1818C39.5454 14.909 39.3636 14.6363 39.0908 14.5454L37.4545 13.9999V11.9999Z" fill="white"/>
<path d="M47.3636 18.4545C50.3636 18.4545 52.8181 16 52.8181 13C52.8181 9.99996 50.3636 7.54541 47.3636 7.54541C44.3636 7.54541 41.909 9.99996 41.909 13C41.909 16 44.3636 18.4545 47.3636 18.4545ZM47.3636 9.36359C49.3636 9.36359 50.9999 11 50.9999 13C50.9999 15 49.3636 16.6363 47.3636 16.6363C45.3636 16.6363 43.7272 15 43.7272 13C43.7272 11 45.3636 9.36359 47.3636 9.36359ZM36.6363 43.2727C36.6363 47.0909 39.8181 50.2727 43.6363 50.2727C47.4545 50.2727 50.6363 47.0909 50.6363 43.2727C50.6363 39.4545 47.4545 36.2727 43.6363 36.2727C39.8181 36.2727 36.6363 39.3636 36.6363 43.2727ZM43.6363 38.0909C46.4545 38.0909 48.8181 40.4545 48.8181 43.2727C48.8181 46.0909 46.4545 48.4545 43.6363 48.4545C40.8181 48.4545 38.4545 46.0909 38.4545 43.2727C38.4545 40.4545 40.7272 38.0909 43.6363 38.0909Z" fill="white"/>
</svg>
