<svg width="66" height="60" viewBox="0 0 66 60" fill="none" xmlns="http://www.w3.org/2000/svg">
<path d="M16.7 10.5455C16.7 10.9091 16.8 11.3636 16.9 11.7273C13.1 13.2727 10.3 15.4546 10.3 18.5455C10.3 18.9091 10.4 19.3636 10.5 19.7273C6.39999 21.4546 3.89999 23.9091 3.89999 26.5455C3.89999 28.2727 4.99999 30 6.99999 31.4545V58.1818C6.99999 58.7273 7.39999 59.0909 7.99999 59.0909H45.4C46 59.0909 46.4 58.7273 46.4 58.1818V51.0909H51.9C52.5 51.0909 52.9 50.7273 52.9 50.1818V43.0909H58.4C59 43.0909 59.4 42.7273 59.4 42.1818V15.4546C61.4 14 62.5 12.2727 62.5 10.5455C62.2 -2.27272 16.7 -2.27272 16.7 10.5455ZM44.6 30.3636C44.3 30.5455 44.2 30.8182 44.2 31.0909V57.2727H8.89999V31.0909C8.89999 30.8182 8.69999 30.5455 8.49999 30.3636C7.29999 29.5455 5.79999 28.2727 5.79999 26.6364C5.79999 16.3636 47.3 16.3636 47.3 26.6364C47.3 28.1818 45.8 29.5455 44.6 30.3636ZM51.1 22.2727C50.8 22.4546 50.7 22.7273 50.7 23V49.1818H46.2V31.5455C48.2 30.0909 49.3 28.3636 49.3 26.6364C49.3 18 26.4 14.3636 12.3 19.0909C12.3 18.9091 12.2 18.8182 12.2 18.6364C12.2 8.63637 53.7 8.18182 53.7 18.6364C53.7 20.1818 52.3 21.4546 51.1 22.2727ZM57.5 14.2727C57.2 14.4546 57.1 14.7273 57.1 15V41.1818H52.6V23.4546C54.6 22 55.7 20.2727 55.7 18.5455C55.7 10.7273 34.8 5.9091 18.7 11C18.7 10.8182 18.6 10.6364 18.6 10.4546C18.6 0.181824 60.1 0.181824 60.1 10.4546C60.2 12.0909 58.8 13.4546 57.5 14.2727Z" fill="white"/>
<path d="M18.4 28.8182L18 27.5455C17.9 27.0909 17.3 26.7273 16.8 26.9091C16.3 27 15.9 27.5455 16.1 28L16.5 29.2727C16.6 29.7273 17.2 30.0909 17.7 29.9091C18.2 29.8182 18.5 29.2727 18.4 28.8182ZM38.1 33.6364L38.3 32.3637C38.4 31.9091 38 31.4546 37.4 31.3637C36.9 31.2727 36.4 31.6364 36.3 32.1818L36.1 33.4546C36 33.9091 36.4 34.3637 37 34.4546C37.6 34.5455 38.1 34.1818 38.1 33.6364ZM30.3 28.0909C30.8 28 31.2 27.5455 31.1 27L30.9 25.7273C30.8 25.2727 30.3 24.9091 29.7 25C29.2 25.0909 28.8 25.5455 28.9 26.0909L29.1 27.3637C29.3 27.8182 29.8 28.1818 30.3 28.0909ZM20.4 38.1818L19 38.6364C18.5 38.8182 18.2 39.3637 18.4 39.8182C18.6 40.2727 19.2 40.5455 19.7 40.3637L21.1 39.9091C21.6 39.7273 21.9 39.1818 21.7 38.7273C21.5 38.2727 21 38 20.4 38.1818ZM30.8 40.2727C30.6 39.8182 30 39.6364 29.5 39.8182L28.2 40.3637C27.7 40.5455 27.5 41.0909 27.7 41.5455C27.9 42 28.5 42.1818 29 42L30.3 41.4546C30.8 41.2727 31.1 40.7273 30.8 40.2727ZM38.8 47.9091L37.8 48.8182C37.4 49.1818 37.4 49.7273 37.8 50.0909C38.2 50.4546 38.8 50.4546 39.2 50.0909L40.2 49.1818C40.6 48.8182 40.6 48.2727 40.2 47.9091C39.8 47.5455 39.1 47.5455 38.8 47.9091ZM31.3 49.5455L30.3 50.4546C29.9 50.8182 29.9 51.3637 30.3 51.7273C30.7 52.0909 31.3 52.0909 31.7 51.7273L32.7 50.8182C33.1 50.4546 33.1 49.9091 32.7 49.5455C32.3 49.1818 31.7 49.1818 31.3 49.5455ZM19.7 50.3637L18.4 51C17.9 51.2727 17.7 51.8182 18 52.2727C18.3 52.7273 18.9 52.9091 19.4 52.6364L20.7 52C21.2 51.7273 21.4 51.1818 21.1 50.7273C20.8 50.2727 20.2 50.0909 19.7 50.3637Z" fill="white"/>
</svg>
