<svg width="64" height="60" viewBox="0 0 64 60" fill="none" xmlns="http://www.w3.org/2000/svg">
<path d="M31.0811 14.631L23.0811 32.1313C23.0158 32.2739 22.9893 32.4294 23.0039 32.584C23.0186 32.7385 23.0739 32.8872 23.165 33.0167C23.2561 33.1463 23.3801 33.2526 23.5259 33.3261C23.6716 33.3996 23.8345 33.438 24 33.4378H31V45C31.0002 45.2158 31.0798 45.4249 31.2254 45.5921C31.371 45.7592 31.5736 45.8742 31.7991 45.9176C32.0246 45.9609 32.2591 45.93 32.4631 45.8301C32.6671 45.7302 32.8281 45.5673 32.9189 45.369L40.9189 27.8687C40.9843 27.7262 41.0108 27.5706 40.9961 27.4161C40.9815 27.2615 40.9261 27.1128 40.835 26.9833C40.7439 26.8538 40.62 26.7475 40.4742 26.674C40.3285 26.6005 40.1655 26.5621 40 26.5622H33V15C32.9998 14.7842 32.9202 14.5751 32.7746 14.408C32.6291 14.2408 32.4265 14.1258 32.201 14.0825C31.9755 14.0391 31.7409 14.07 31.5369 14.1699C31.3329 14.2699 31.1719 14.4327 31.0811 14.631ZM38.4834 28.4372L33 40.4324V32.5003C33 32.2517 32.8947 32.0132 32.7071 31.8374C32.5196 31.6616 32.2652 31.5628 32 31.5628H25.5166L31 19.5676V27.4997C31 27.7484 31.1054 27.9868 31.2929 28.1626C31.4805 28.3384 31.7348 28.4372 32 28.4372H38.4834Z" fill="white"/>
<path d="M9 30C9 34.2647 10.3489 38.4335 12.8762 41.9795C15.4035 45.5254 18.9956 48.2891 23.1983 49.9212C27.401 51.5532 32.0255 51.9802 36.4871 51.1482C40.9486 50.3162 45.0468 48.2626 48.2635 45.247C51.4801 42.2314 53.6706 38.3894 54.5581 34.2066C55.4455 30.0239 54.99 25.6884 53.2492 21.7484C51.5084 17.8084 48.5604 14.4408 44.7781 12.0714C40.9958 9.70212 36.549 8.4375 32 8.4375C25.9021 8.44385 20.0559 10.7176 15.744 14.76C11.4322 18.8024 9.00678 24.2832 9 30ZM53 30C53 33.8938 51.7684 37.7002 49.4609 40.9378C47.1534 44.1754 43.8736 46.6988 40.0364 48.1889C36.1991 49.679 31.9767 50.0689 27.9031 49.3092C23.8295 48.5496 20.0877 46.6745 17.1508 43.9212C14.2139 41.1678 12.2138 37.6598 11.4035 33.8408C10.5932 30.0218 11.0091 26.0633 12.5985 22.4659C14.188 18.8685 16.8796 15.7937 20.333 13.6304C23.7865 11.4672 27.8466 10.3125 32 10.3125C37.5676 10.3185 42.9053 12.3946 46.8422 16.0855C50.779 19.7763 52.9936 24.7804 53 30ZM32 1.875C31.7348 1.875 31.4804 1.97377 31.2929 2.14959C31.1054 2.3254 31 2.56386 31 2.8125V5.625C31 5.87364 31.1054 6.1121 31.2929 6.28791C31.4804 6.46373 31.7348 6.5625 32 6.5625C32.2652 6.5625 32.5196 6.46373 32.7071 6.28791C32.8946 6.1121 33 5.87364 33 5.625V2.8125C33 2.56386 32.8946 2.3254 32.7071 2.14959C32.5196 1.97377 32.2652 1.875 32 1.875ZM23.9658 7.75547C24.1237 7.75554 24.2794 7.72053 24.4202 7.65333C24.5609 7.58612 24.6827 7.48861 24.7754 7.3688C24.8682 7.24899 24.9294 7.11027 24.9541 6.96402C24.9787 6.81776 24.966 6.66812 24.917 6.52734L23.9893 3.85219C23.9072 3.61568 23.7283 3.41944 23.4918 3.30662C23.2554 3.19381 22.9808 3.17367 22.7285 3.25064C22.4763 3.32761 22.2669 3.49537 22.1466 3.71703C22.0263 3.93869 22.0048 4.19609 22.0869 4.43259L23.0146 7.10775C23.08 7.29596 23.2073 7.45996 23.3781 7.5763C23.5489 7.69263 23.7546 7.75534 23.9658 7.75547ZM16.7188 11.2179C16.9031 11.2177 17.0838 11.1697 17.2408 11.0793C17.3979 10.9888 17.5252 10.8595 17.6088 10.7054C17.6924 10.5514 17.7289 10.3787 17.7143 10.2065C17.6998 10.0342 17.6348 9.86907 17.5264 9.72928L15.7627 7.45312C15.6867 7.35076 15.5896 7.26364 15.4772 7.19688C15.3648 7.13012 15.2394 7.08506 15.1082 7.06433C14.977 7.0436 14.8427 7.04763 14.7132 7.07618C14.5836 7.10473 14.4615 7.15722 14.3539 7.23058C14.2463 7.30394 14.1554 7.39669 14.0865 7.5034C14.0176 7.61012 13.9721 7.72865 13.9527 7.85205C13.9333 7.97545 13.9404 8.10124 13.9735 8.22205C14.0066 8.34287 14.0651 8.45627 14.1455 8.55563L15.9092 10.8316C16.0018 10.9515 16.1235 11.0491 16.2643 11.1163C16.4051 11.1835 16.5609 11.2183 16.7188 11.2179ZM10.9648 16.6104C11.176 16.6105 11.3817 16.548 11.5527 16.4317C11.7236 16.3154 11.8508 16.1514 11.9162 15.9632C11.9816 15.775 11.9817 15.5721 11.9166 15.3838C11.8515 15.1955 11.7244 15.0314 11.5537 14.9149L9.126 13.2614C9.02002 13.186 8.89906 13.1312 8.77019 13.1001C8.64132 13.0691 8.50715 13.0625 8.37552 13.0807C8.24389 13.0989 8.11746 13.1415 8.00363 13.2061C7.8898 13.2707 7.79086 13.3559 7.71261 13.4568C7.63436 13.5577 7.57837 13.6722 7.54792 13.7936C7.51748 13.915 7.51318 14.0409 7.53529 14.1639C7.55739 14.2869 7.60546 14.4045 7.67667 14.5099C7.74788 14.6153 7.84081 14.7063 7.95 14.7775L10.3777 16.431C10.5482 16.5476 10.7538 16.6104 10.9648 16.6104ZM7.582 21.5762L4.7285 20.7065C4.47623 20.6295 4.20167 20.6496 3.96523 20.7625C3.7288 20.8753 3.54985 21.0715 3.46775 21.308C3.38565 21.5445 3.40713 21.8019 3.52747 22.0236C3.6478 22.2452 3.85713 22.413 4.1094 22.49L6.9629 23.3597C7.21517 23.4367 7.48973 23.4165 7.72616 23.3037C7.9626 23.1909 8.14155 22.9946 8.22365 22.7581C8.30575 22.5216 8.28427 22.2642 8.16393 22.0426C8.0436 21.8209 7.83427 21.6532 7.582 21.5762ZM7 30C7 29.7514 6.89464 29.5129 6.70711 29.3371C6.51957 29.1613 6.26522 29.0625 6 29.0625H3C2.73478 29.0625 2.48043 29.1613 2.29289 29.3371C2.10536 29.5129 2 29.7514 2 30C2 30.2486 2.10536 30.4871 2.29289 30.6629C2.48043 30.8387 2.73478 30.9375 3 30.9375H6C6.26522 30.9375 6.51957 30.8387 6.70711 30.6629C6.89464 30.4871 7 30.2486 7 30ZM8.2236 37.2418C8.18305 37.1247 8.11825 37.0161 8.03292 36.9225C7.94758 36.8288 7.84339 36.7519 7.72629 36.696C7.6092 36.6401 7.4815 36.6064 7.35051 36.5969C7.21952 36.5873 7.0878 36.6021 6.9629 36.6403L4.1094 37.51C3.85713 37.587 3.6478 37.7548 3.52747 37.9764C3.40713 38.1981 3.38565 38.4555 3.46775 38.692C3.54985 38.9285 3.7288 39.1247 3.96523 39.2375C4.20167 39.3504 4.47623 39.3705 4.7285 39.2935L7.582 38.4238C7.83415 38.3467 8.04334 38.1789 8.16363 37.9572C8.28393 37.7356 8.30549 37.4783 8.2236 37.2418ZM10.3779 43.569L7.95 45.2225C7.84081 45.2937 7.74788 45.3847 7.67667 45.4901C7.60546 45.5955 7.55739 45.7131 7.53529 45.8361C7.51318 45.9591 7.51748 46.085 7.54792 46.2064C7.57837 46.3278 7.63436 46.4423 7.71261 46.5432C7.79086 46.6441 7.8898 46.7293 8.00363 46.7939C8.11746 46.8585 8.24389 46.9011 8.37552 46.9193C8.50715 46.9375 8.64132 46.9309 8.77019 46.8999C8.89906 46.8688 9.02002 46.814 9.126 46.7386L11.5537 45.0851C11.7613 44.9366 11.8987 44.7177 11.9365 44.4754C11.9743 44.2332 11.9094 43.9866 11.7558 43.7886C11.6022 43.5905 11.3721 43.4567 11.1146 43.4156C10.8571 43.3746 10.5927 43.4296 10.3779 43.569Z" fill="white"/>
<path d="M15.9092 49.1684L14.1455 51.4444C14.0651 51.5437 14.0066 51.6571 13.9735 51.7779C13.9404 51.8987 13.9333 52.0245 13.9527 52.1479C13.9721 52.2713 14.0176 52.3899 14.0865 52.4966C14.1554 52.6033 14.2463 52.696 14.3539 52.7694C14.4615 52.8428 14.5836 52.8952 14.7132 52.9238C14.8427 52.9523 14.977 52.9564 15.1082 52.9356C15.2394 52.9149 15.3648 52.8699 15.4772 52.8031C15.5896 52.7363 15.6867 52.6492 15.7627 52.5468L17.5264 50.2709C17.675 50.0695 17.7338 49.8217 17.69 49.5802C17.6462 49.3388 17.5035 49.1231 17.2922 48.9791C17.0809 48.8351 16.818 48.7743 16.5595 48.8097C16.3011 48.8451 16.0677 48.9739 15.9092 49.1686V49.1684ZM24.2754 52.2904C24.0231 52.2134 23.7486 52.2336 23.5122 52.3464C23.2757 52.4592 23.0968 52.6554 23.0146 52.8918L22.0869 55.567C22.0462 55.6841 22.0306 55.8076 22.0408 55.9304C22.0511 56.0531 22.087 56.1728 22.1466 56.2826C22.2669 56.5042 22.4763 56.672 22.7285 56.749C22.9808 56.8259 23.2554 56.8058 23.4918 56.693C23.7283 56.5802 23.9072 56.3839 23.9893 56.1474L24.917 53.4723C24.9989 53.2358 24.9773 52.9785 24.857 52.7569C24.7367 52.5353 24.5275 52.3675 24.2754 52.2904ZM32 53.4375C31.7348 53.4375 31.4804 53.5362 31.2929 53.7121C31.1054 53.8879 31 54.1263 31 54.375V57.1875C31 57.4361 31.1054 57.6746 31.2929 57.8504C31.4804 58.0262 31.7348 58.125 32 58.125C32.2652 58.125 32.5196 58.0262 32.7071 57.8504C32.8946 57.6746 33 57.4361 33 57.1875V54.375C33 54.1263 32.8946 53.8879 32.7071 53.7121C32.5196 53.5362 32.2652 53.4375 32 53.4375ZM40.9854 52.8918C40.9033 52.6553 40.7244 52.4591 40.4879 52.3463C40.2515 52.2335 39.9769 52.2133 39.7247 52.2903C39.4724 52.3673 39.263 52.535 39.1427 52.7567C39.0224 52.9784 39.0009 53.2357 39.083 53.4723L40.0107 56.1474C40.0928 56.3839 40.2717 56.5802 40.5082 56.693C40.7446 56.8058 41.0192 56.8259 41.2715 56.749C41.5237 56.672 41.7331 56.5042 41.8534 56.2826C41.9737 56.0609 41.9952 55.8035 41.9131 55.567L40.9854 52.8918ZM48.0908 49.1684C47.9323 48.9737 47.6989 48.8449 47.4405 48.8095C47.182 48.7741 46.9191 48.8349 46.7078 48.9789C46.4965 49.1229 46.3538 49.3387 46.31 49.5801C46.2662 49.8215 46.325 50.0693 46.4736 50.2707L48.2373 52.5468C48.3958 52.7415 48.6292 52.8703 48.8876 52.9057C49.1461 52.9411 49.409 52.8803 49.6203 52.7363C49.8316 52.5923 49.9743 52.3766 50.0181 52.1352C50.0619 51.8938 50.0031 51.6459 49.8545 51.4445L48.0908 49.1684ZM53.6221 43.569C53.5162 43.4932 53.3951 43.438 53.2661 43.4067C53.1371 43.3753 53.0027 43.3685 52.8708 43.3866C52.7389 43.4047 52.6122 43.4473 52.4982 43.5119C52.3841 43.5765 52.285 43.6619 52.2066 43.7629C52.1282 43.864 52.0722 43.9787 52.0418 44.1004C52.0114 44.222 52.0072 44.3481 52.0295 44.4713C52.0519 44.5945 52.1003 44.7123 52.1718 44.8177C52.2434 44.9231 52.3367 45.014 52.4463 45.0851L54.874 46.7386C54.98 46.814 55.1009 46.8688 55.2298 46.8998C55.3587 46.9309 55.4929 46.9375 55.6245 46.9193C55.7561 46.9011 55.8825 46.8585 55.9964 46.7939C56.1102 46.7293 56.2091 46.6441 56.2874 46.5432C56.3656 46.4423 56.4216 46.3278 56.4521 46.2064C56.4825 46.085 56.4868 45.9591 56.4647 45.8361C56.4426 45.7131 56.3945 45.5954 56.3233 45.4901C56.2521 45.3847 56.1592 45.2937 56.05 45.2224L53.6221 43.569ZM59.8906 37.51L57.0371 36.6403C56.7848 36.5633 56.5103 36.5835 56.2738 36.6963C56.0374 36.8091 55.8584 37.0053 55.7764 37.2418C55.6943 37.4783 55.7157 37.7357 55.8361 37.9574C55.9564 38.1791 56.1657 38.3468 56.418 38.4238L59.2715 39.2935C59.5238 39.3705 59.7983 39.3503 60.0348 39.2375C60.2712 39.1247 60.4502 38.9285 60.5322 38.692C60.6143 38.4555 60.5929 38.1981 60.4725 37.9764C60.3522 37.7547 60.1429 37.587 59.8906 37.51ZM61 29.0625H58C57.7348 29.0625 57.4804 29.1612 57.2929 29.3371C57.1054 29.5129 57 29.7513 57 30C57 30.2486 57.1054 30.4871 57.2929 30.6629C57.4804 30.8387 57.7348 30.9375 58 30.9375H61C61.2652 30.9375 61.5196 30.8387 61.7071 30.6629C61.8946 30.4871 62 30.2486 62 30C62 29.7513 61.8946 29.5129 61.7071 29.3371C61.5196 29.1612 61.2652 29.0625 61 29.0625ZM55.7764 22.7582C55.8588 22.9945 56.0377 23.1905 56.2741 23.3033C56.5104 23.4161 56.7848 23.4363 57.0371 23.3597L59.8906 22.4899C60.0155 22.4518 60.1312 22.391 60.231 22.311C60.3309 22.231 60.413 22.1333 60.4725 22.0236C60.5321 21.9138 60.5681 21.7941 60.5783 21.6713C60.5886 21.5486 60.5729 21.4251 60.5322 21.308C60.4916 21.1909 60.4267 21.0824 60.3414 20.9888C60.256 20.8952 60.1518 20.8183 60.0348 20.7624C59.9177 20.7066 59.79 20.6729 59.6591 20.6633C59.5281 20.6537 59.3964 20.6683 59.2715 20.7064L56.418 21.5762C56.1659 21.6533 55.9567 21.8211 55.8364 22.0427C55.7161 22.2643 55.6945 22.5217 55.7764 22.7582ZM54.874 13.2614L52.4463 14.9148C52.3367 14.986 52.2434 15.0769 52.1718 15.1823C52.1003 15.2877 52.0519 15.4054 52.0295 15.5286C52.0072 15.6518 52.0114 15.7779 52.0418 15.8996C52.0722 16.0212 52.1282 16.136 52.2066 16.237C52.285 16.3381 52.3841 16.4234 52.4982 16.4881C52.6122 16.5527 52.7389 16.5953 52.8708 16.6134C53.0027 16.6314 53.1371 16.6246 53.2661 16.5933C53.3951 16.562 53.5162 16.5068 53.6221 16.431L56.05 14.7775C56.1596 14.7064 56.2529 14.6155 56.3245 14.5101C56.396 14.4047 56.4444 14.2869 56.4668 14.1637C56.4891 14.0405 56.4849 13.9144 56.4545 13.7928C56.4241 13.6711 56.3681 13.5564 56.2897 13.4553C56.2113 13.3543 56.1122 13.2689 55.9981 13.2043C55.8841 13.1397 55.7574 13.0971 55.6255 13.079C55.4936 13.0609 55.3592 13.0677 55.2302 13.0991C55.1012 13.1304 54.9801 13.1856 54.8742 13.2614H54.874ZM48.0908 10.8316L49.8545 8.5556C49.9349 8.45625 49.9934 8.34284 50.0265 8.22203C50.0596 8.10122 50.0667 7.97542 50.0473 7.85202C50.0279 7.72862 49.9824 7.61009 49.9135 7.50338C49.8446 7.39666 49.7537 7.30391 49.6461 7.23055C49.5385 7.15719 49.4164 7.1047 49.2868 7.07615C49.1573 7.04761 49.023 7.04358 48.8918 7.0643C48.7606 7.08503 48.6352 7.13009 48.5228 7.19685C48.4104 7.26362 48.3133 7.35073 48.2373 7.4531L46.4736 9.72907C46.3927 9.82839 46.3339 9.94187 46.3005 10.0628C46.2671 10.1838 46.2598 10.3098 46.2791 10.4334C46.2983 10.5571 46.3438 10.6758 46.4127 10.7828C46.4816 10.8897 46.5727 10.9826 46.6805 11.0561C46.7883 11.1296 46.9107 11.1821 47.0404 11.2106C47.1702 11.2391 47.3047 11.243 47.4361 11.2221C47.5675 11.2011 47.6931 11.1558 47.8055 11.0887C47.918 11.0216 48.015 10.9341 48.0908 10.8314V10.8316ZM40.0342 7.75544C40.2453 7.75534 40.451 7.69269 40.6218 7.57642C40.7926 7.46016 40.9199 7.29624 40.9854 7.1081L41.9131 4.43294C41.9952 4.19644 41.9737 3.93904 41.8534 3.71738C41.7331 3.49572 41.5237 3.32796 41.2715 3.25099C41.0192 3.17402 40.7446 3.19416 40.5082 3.30697C40.2717 3.41978 40.0928 3.61603 40.0107 3.85254L39.083 6.52769C39.034 6.66846 39.0213 6.81811 39.0459 6.96436C39.0705 7.11062 39.1318 7.24934 39.2246 7.36915C39.3173 7.48896 39.4391 7.58647 39.5798 7.65367C39.7206 7.72088 39.8763 7.75589 40.0342 7.75582V7.75544Z" fill="white"/>
</svg>
