<svg width="41" height="32" viewBox="0 0 41 32" fill="none" xmlns="http://www.w3.org/2000/svg">
<path d="M0 32L40.537 26.594V0L0 5.406V32ZM2.1 7.241L38.44 2.4V24.759L2.1 29.6V7.241Z" fill="#F43E36"/>
<path d="M5.52055 15.3972C5.87115 15.5724 6.24007 15.7082 6.62056 15.8022C6.91005 15.8661 7.20823 15.8806 7.50256 15.8452C7.7588 15.8203 8.00213 15.7208 8.20255 15.5592C8.28295 15.4973 8.34829 15.418 8.39366 15.3273C8.43904 15.2365 8.46327 15.1367 8.46455 15.0352C8.46455 14.7492 8.15456 14.4682 7.53056 14.1962C7.43056 14.1532 7.35456 14.1152 7.29656 14.0962L6.82455 13.8962C6.42317 13.7412 6.06967 13.4832 5.79955 13.1482C5.57206 12.8376 5.45453 12.4601 5.46555 12.0752C5.46506 11.799 5.52155 11.5256 5.6315 11.2721C5.74145 11.0187 5.90249 10.7906 6.10455 10.6022C6.55382 10.1712 7.13421 9.90267 7.75356 9.83923C8.02209 9.80441 8.29343 9.79637 8.56355 9.81523C8.88888 9.84008 9.21224 9.88618 9.53156 9.95323V11.5982C9.22434 11.4437 8.90151 11.3223 8.56856 11.2362C8.31789 11.1647 8.05606 11.1406 7.79656 11.1652C7.59213 11.1852 7.3981 11.2649 7.23856 11.3942C7.17445 11.4477 7.12318 11.515 7.08856 11.591C7.05394 11.6669 7.03686 11.7498 7.03856 11.8332C7.03658 11.9523 7.079 12.0678 7.15756 12.1572C7.25719 12.2659 7.38128 12.3492 7.51955 12.4002L8.33955 12.7432C8.86192 12.9232 9.3363 13.2201 9.72656 13.6112C9.97234 13.924 10.0992 14.3137 10.0846 14.7112C10.0905 15.0347 10.0316 15.3561 9.91134 15.6565C9.79112 15.9569 9.61201 16.2301 9.38456 16.4602C8.88624 16.9585 8.23153 17.27 7.53056 17.3422C7.24753 17.3756 6.96232 17.3866 6.67756 17.3752C6.3383 17.3579 6.00056 17.3182 5.66656 17.2562L5.52055 15.3972ZM13.4816 10.5872L13.2526 10.6202V12.4892L13.5526 12.4462C13.9052 12.4181 14.2418 12.287 14.5206 12.0692C14.6288 11.9776 14.7151 11.8628 14.7729 11.7334C14.8307 11.6039 14.8586 11.463 14.8546 11.3212C14.8685 11.1916 14.8449 11.0606 14.7866 10.944C14.7282 10.8273 14.6376 10.7299 14.5256 10.6632C14.1931 10.5336 13.8292 10.5074 13.4816 10.5882V10.5872ZM11.5816 16.5652V9.55324L13.3816 9.31023C13.8177 9.23834 14.2609 9.21921 14.7016 9.25323C15.0089 9.2846 15.3054 9.38401 15.5696 9.54424C15.8256 9.69379 16.0351 9.91155 16.1746 10.1732C16.3182 10.443 16.3918 10.7446 16.3886 11.0502C16.3956 11.3849 16.3318 11.7173 16.2011 12.0254C16.0705 12.3336 15.876 12.6106 15.6306 12.8382C15.0598 13.3508 14.3393 13.6663 13.5756 13.7382C13.4846 13.7522 13.4186 13.7572 13.3756 13.7622C13.3326 13.7672 13.2896 13.7622 13.2516 13.7722V16.3372L11.5816 16.5652ZM18.5816 13.4002L20.4216 13.1522L19.5116 11.0782L18.5816 13.4002ZM15.9546 15.9792L19.5346 8.27124L19.6346 8.25723L23.1286 15.0162L21.3796 15.2502L20.9366 14.2922L18.0906 14.6732L17.6376 15.7552L15.9546 15.9792ZM29.1306 9.42023C28.8639 9.17167 28.5514 8.9774 28.2106 8.84824C27.8956 8.73818 27.5592 8.70391 27.2286 8.74823C26.6563 8.81667 26.1339 9.10765 25.7746 9.55823C25.3945 10.0244 25.1934 10.611 25.2076 11.2122C25.1899 11.4852 25.2311 11.7587 25.3282 12.0143C25.4253 12.27 25.5762 12.5018 25.7706 12.6942C25.9671 12.8691 26.2014 12.9963 26.4552 13.0656C26.709 13.135 26.9754 13.1448 27.2336 13.0942C27.6082 13.0412 27.9691 12.9166 28.2966 12.7272C28.6823 12.5035 29.0379 12.2313 29.3546 11.9172L29.2446 13.7952C28.9461 14.0391 28.6157 14.241 28.2626 14.3952C27.9087 14.5504 27.5346 14.6548 27.1516 14.7052C26.7569 14.7614 26.3555 14.7503 25.9646 14.6722C25.5913 14.5957 25.2355 14.4502 24.9156 14.2432C24.4723 13.9566 24.1136 13.5568 23.8766 13.0852C23.632 12.5804 23.5094 12.0251 23.5186 11.4642C23.5173 10.9523 23.6077 10.4443 23.7856 9.96423C23.9648 9.48572 24.226 9.04209 24.5576 8.65323C24.8923 8.26497 25.2944 7.94043 25.7446 7.69524C26.184 7.45421 26.6639 7.29591 27.1606 7.22823C27.5341 7.17539 27.9135 7.18012 28.2856 7.24223C28.6453 7.30381 28.9919 7.42622 29.3106 7.60423L29.1306 9.42023ZM30.7306 13.9962V6.98424L35.0496 6.40723V7.85123L32.3566 8.21323V9.48123L34.6636 9.17123V10.6072L32.3566 10.9172V12.3072L35.0876 11.9402V13.4182L30.7306 13.9962Z" fill="white"/>
<path d="M13.42 23.0155L15.265 22.7675L14.35 20.6935L13.42 23.0155ZM10.793 25.5945L14.368 17.8865L14.468 17.8725L17.968 24.6315L16.219 24.8655L15.776 23.9025L12.93 24.2835L12.477 25.3655L10.793 25.5945ZM20.693 18.5445L20.464 18.5775V20.4505L20.764 20.4075C21.1166 20.3794 21.4532 20.2483 21.732 20.0305C21.8402 19.9388 21.9264 19.824 21.9842 19.6945C22.0421 19.565 22.07 19.4242 22.066 19.2825C22.0799 19.1528 22.0563 19.0219 21.998 18.9052C21.9396 18.7886 21.8491 18.6911 21.737 18.6245C21.4052 18.4923 21.041 18.4644 20.693 18.5445ZM18.793 24.5225V17.5105L20.593 17.2675C21.0291 17.1955 21.4723 17.1764 21.913 17.2105C22.2203 17.2418 22.5168 17.3412 22.781 17.5015C23.037 17.651 23.2465 17.8688 23.386 18.1305C23.53 18.4002 23.6039 18.7017 23.601 19.0075C23.6081 19.3421 23.5442 19.6745 23.4135 19.9827C23.2829 20.2909 23.0884 20.5679 22.843 20.7955C22.2722 21.3081 21.5518 21.6236 20.788 21.6955C20.697 21.7045 20.631 21.7145 20.588 21.7195C20.545 21.7245 20.502 21.7195 20.464 21.7285V24.2935L18.793 24.5225ZM26.835 17.7225L26.606 17.7555V19.6285L26.906 19.5855C27.2586 19.5573 27.5952 19.4262 27.874 19.2085C27.9823 19.1169 28.0685 19.0021 28.1263 18.8726C28.1842 18.7431 28.2121 18.6022 28.208 18.4605C28.2219 18.3308 28.1983 18.1999 28.14 18.0832C28.0816 17.9666 27.9911 17.8691 27.879 17.8025C27.5471 17.6695 27.1827 17.6405 26.834 17.7195L26.835 17.7225ZM24.935 23.7005V16.6885L26.735 16.4455C27.1711 16.3735 27.6143 16.3544 28.055 16.3885C28.3623 16.4198 28.6588 16.5193 28.923 16.6795C29.179 16.829 29.3885 17.0468 29.528 17.3085C29.672 17.5782 29.746 17.8797 29.743 18.1855C29.7501 18.5201 29.6862 18.8525 29.5555 19.1607C29.4249 19.4689 29.2304 19.7459 28.985 19.9735C28.4142 20.486 27.6937 20.8015 26.93 20.8735C26.839 20.8835 26.773 20.8925 26.73 20.8975C26.687 20.9025 26.644 20.8975 26.606 20.9075V23.4655L24.935 23.7005Z" fill="white"/>
</svg>
