<svg width="80" height="80" viewBox="0 0 80 80" fill="none" xmlns="http://www.w3.org/2000/svg">
<g clip-path="url(#clip0_1_260)">
<path d="M1.25 15C0.559673 15.0001 6.90224e-05 15.5597 0 16.25V48.75V53.75C6.90224e-05 54.4403 0.559673 54.9999 1.25 55H2.5V58.75C2.50007 59.4403 3.05967 59.9999 3.75 60H7.62695V60.005C8.21237 62.8458 10.7426 65 13.75 65C16.7574 65 19.2876 62.8409 19.873 60H22.627V60.005C23.2124 62.8458 25.7426 65 28.75 65C31.7574 65 34.2876 62.8409 34.873 60H57.627V60.005C58.2124 62.8458 60.7426 65 63.75 65C66.7574 65 69.2876 62.8409 69.873 60H73.75C74.4403 59.9999 74.9999 59.4403 75 58.75V55H78.6621H78.75C79.4403 54.9999 79.9999 54.4403 80 53.75L80.0195 48.4961L78.7207 48.3984L78.75 48.5205H80L80 27.5C80 23.3667 76.6334 20 72.5 20H55V22.5H55.0342V47.5H52.5342V15.0195L51.3037 15H51.2842H1.25ZM2.5 17.5H50.0342V47.5H2.5V17.5ZM57.5342 22.5H72.5C75.2916 22.5 77.5 24.7085 77.5 27.5V47.5H57.5342V22.5ZM11.2646 22.5146C10.5743 22.5254 10.0234 23.0938 10.0342 23.7842V41.2109C10.0103 42.9013 12.5581 42.9013 12.5342 41.2109V23.7842C12.5452 23.0785 11.9703 22.5036 11.2646 22.5146ZM21.2646 22.5146C20.5743 22.5254 20.0234 23.0938 20.0342 23.7842V41.2109C20.0103 42.9013 22.5581 42.9013 22.5342 41.2109V23.7842C22.5452 23.0785 21.9703 22.5036 21.2646 22.5146ZM31.2646 22.5146C30.5743 22.5254 30.0234 23.0938 30.0342 23.7842V41.2109C30.0102 42.9013 32.5581 42.9013 32.5342 41.2109V23.7842C32.5452 23.0785 31.9703 22.5036 31.2646 22.5146ZM41.2646 22.5146C40.5743 22.5254 40.0234 23.0938 40.0342 23.7842V41.2109C40.0102 42.9013 42.5581 42.9013 42.5342 41.2109V23.7842C42.5452 23.0785 41.9703 22.5036 41.2646 22.5146ZM62.5 25V37.5H71.748H75V36.25V29.0283C75 26.8261 73.206 25 71.0059 25H65H62.5ZM65 27.5H71.0059C71.8488 27.5 72.5 28.1528 72.5 29.0283V35H71.748H65V27.5ZM63.6426 40C61.9759 40.0846 62.1029 42.5846 63.7695 42.5H66.2695C67.9599 42.524 67.9599 39.9761 66.2695 40H63.7695C63.7272 39.9979 63.6849 39.9979 63.6426 40ZM2.5 50H51.1963H77.5V52.5H73.75H13.75H2.5V50ZM5 55H8.78418C8.22966 55.7314 7.81691 56.5709 7.62695 57.5H5V55ZM13.75 55C15.8359 55 17.5 56.6642 17.5 58.75C17.5 60.836 15.8359 62.5 13.75 62.5C11.6641 62.5 10 60.836 10 58.75V58.7305C10.0105 56.654 11.6708 55 13.75 55ZM18.7158 55H23.7842C23.2297 55.7314 22.8169 56.5709 22.627 57.5H19.873C19.6831 56.5709 19.2703 55.7314 18.7158 55ZM28.75 55C30.8359 55 32.5 56.6642 32.5 58.75C32.5 60.836 30.8359 62.5 28.75 62.5C26.6641 62.5 25 60.836 25 58.75C25 56.6642 26.6641 55 28.75 55ZM33.7158 55H58.7842C58.2297 55.7314 57.8169 56.5709 57.627 57.5H34.873C34.6831 56.5709 34.2703 55.7314 33.7158 55ZM63.75 55C65.8359 55 67.5 56.6642 67.5 58.75C67.5 60.836 65.8359 62.5 63.75 62.5C61.6641 62.5 60 60.836 60 58.75C60 56.6642 61.6641 55 63.75 55ZM68.7158 55H72.5V57.5H69.873C69.6831 56.5709 69.2703 55.7314 68.7158 55ZM13.75 57.5C13.0596 57.5 12.5 58.0596 12.5 58.75C12.5 59.4404 13.0596 60 13.75 60C14.4404 60 15 59.4404 15 58.75C15 58.0596 14.4404 57.5 13.75 57.5ZM28.75 57.5C28.0596 57.5 27.5 58.0596 27.5 58.75C27.5 59.4404 28.0596 60 28.75 60C29.4404 60 30 59.4404 30 58.75C30 58.0596 29.4404 57.5 28.75 57.5ZM63.75 57.5C63.0596 57.5 62.5 58.0596 62.5 58.75C62.5 59.4404 63.0596 60 63.75 60C64.4404 60 65 59.4404 65 58.75C65 58.0596 64.4404 57.5 63.75 57.5Z" fill="#005CCE"/>
</g>
<defs>
<clipPath id="clip0_1_260">
<rect width="80" height="80" fill="white"/>
</clipPath>
</defs>
</svg>
