<svg width="80" height="80" viewBox="0 0 80 80" fill="none" xmlns="http://www.w3.org/2000/svg">
<path d="M30.8088 63.75H40.1125C40.4063 65.4969 41.3096 67.0831 42.6621 68.2271C44.0145 69.3711 45.7286 69.9988 47.5 69.9988C49.2714 69.9988 50.9855 69.3711 52.3379 68.2271C53.6904 67.0831 54.5937 65.4969 54.8875 63.75H57.6125C57.9063 65.4969 58.8096 67.0831 60.1621 68.2271C61.5145 69.3711 63.2286 69.9988 65 69.9988C66.7714 69.9988 68.4855 69.3711 69.8379 68.2271C71.1904 67.0831 72.0937 65.4969 72.3875 63.75H76.25C76.4481 63.75 76.6433 63.703 76.8196 63.6128C76.996 63.5226 77.1483 63.3918 77.2642 63.2311C77.38 63.0705 77.456 62.8846 77.486 62.6888C77.5159 62.493 77.4988 62.2929 77.4362 62.105L73.6862 50.855C73.6033 50.606 73.4441 50.3894 73.2312 50.2359C73.0183 50.0825 72.7625 49.9999 72.5 50H70V45.3512L73.4463 46.2125C73.6306 46.2587 73.823 46.2622 74.0089 46.2229C74.1947 46.1835 74.3692 46.1023 74.519 45.9854C74.6688 45.8685 74.79 45.719 74.8733 45.5483C74.9567 45.3775 75 45.19 75 45V36.25C75 36.06 74.9567 35.8725 74.8733 35.7017C74.79 35.531 74.6688 35.3815 74.519 35.2646C74.3692 35.1477 74.1947 35.0665 74.0089 35.0271C73.823 34.9878 73.6306 34.9913 73.4463 35.0375L70 35.8988V35C70.0149 34.3393 69.8957 33.6825 69.6497 33.0691C69.4037 32.4558 69.0359 31.8987 68.5686 31.4314C68.1013 30.9641 67.5442 30.5963 66.9309 30.3503C66.3175 30.1043 65.6607 29.9851 65 30H57.5V21.25H58.75C59.0815 21.25 59.3995 21.1183 59.6339 20.8839C59.8683 20.6495 60 20.3315 60 20V15C60 14.6685 59.8683 14.3505 59.6339 14.1161C59.3995 13.8817 59.0815 13.75 58.75 13.75H47.5C47.1685 13.75 46.8505 13.8817 46.6161 14.1161C46.3817 14.3505 46.25 14.6685 46.25 15V20C46.25 20.3315 46.3817 20.6495 46.6161 20.8839C46.8505 21.1183 47.1685 21.25 47.5 21.25H48.75V30H35V15H36.25C36.5815 15 36.8995 14.8683 37.1339 14.6339C37.3683 14.3995 37.5 14.0815 37.5 13.75V8.75C37.5 8.41848 37.3683 8.10054 37.1339 7.86612C36.8995 7.6317 36.5815 7.5 36.25 7.5H3.75C3.41848 7.5 3.10054 7.6317 2.86612 7.86612C2.6317 8.10054 2.5 8.41848 2.5 8.75V13.75C2.5 14.0815 2.6317 14.3995 2.86612 14.6339C3.10054 14.8683 3.41848 15 3.75 15H5V50H3.75C3.41848 50 3.10054 50.1317 2.86612 50.3661C2.6317 50.6005 2.5 50.9185 2.5 51.25V62.5C2.5 62.8315 2.6317 63.1495 2.86612 63.3839C3.10054 63.6183 3.41848 63.75 3.75 63.75H9.19125C10.2847 65.6498 11.8596 67.2278 13.7572 68.3251C15.6547 69.4223 17.808 70.0001 20 70.0001C22.192 70.0001 24.3453 69.4223 26.2428 68.3251C28.1404 67.2278 29.7153 65.6498 30.8088 63.75ZM47.5 67.5C46.5111 67.5 45.5444 67.2068 44.7221 66.6573C43.8999 66.1079 43.259 65.327 42.8806 64.4134C42.5022 63.4998 42.4031 62.4945 42.5961 61.5245C42.789 60.5546 43.2652 59.6637 43.9645 58.9645C44.6637 58.2652 45.5546 57.789 46.5245 57.5961C47.4945 57.4031 48.4998 57.5022 49.4134 57.8806C50.327 58.259 51.1079 58.8999 51.6573 59.7221C52.2068 60.5444 52.5 61.5111 52.5 62.5C52.5 63.8261 51.9732 65.0979 51.0355 66.0355C50.0979 66.9732 48.8261 67.5 47.5 67.5ZM65 67.5C64.0111 67.5 63.0444 67.2068 62.2221 66.6573C61.3999 66.1079 60.759 65.327 60.3806 64.4134C60.0022 63.4998 59.9031 62.4945 60.0961 61.5245C60.289 60.5546 60.7652 59.6637 61.4645 58.9645C62.1637 58.2652 63.0546 57.789 64.0245 57.5961C64.9945 57.4031 65.9998 57.5022 66.9134 57.8806C67.827 58.259 68.6079 58.8999 69.1573 59.7221C69.7068 60.5444 70 61.5111 70 62.5C70 63.8261 69.4732 65.0979 68.5355 66.0355C67.5979 66.9732 66.3261 67.5 65 67.5ZM74.5163 61.25H72.3913C72.0975 59.5031 71.1941 57.9169 69.8417 56.7729C68.4892 55.6289 66.7751 55.0012 65.0037 55.0012C63.2323 55.0012 61.5183 55.6289 60.1658 56.7729C58.8134 57.9169 57.91 59.5031 57.6162 61.25H54.8875C54.5937 59.5031 53.6904 57.9169 52.3379 56.7729C50.9855 55.6289 49.2714 55.0012 47.5 55.0012C45.7286 55.0012 44.0145 55.6289 42.6621 56.7729C41.3096 57.9169 40.4063 59.5031 40.1125 61.25H31.9237C32.8312 58.3722 32.6624 55.2627 31.4487 52.5H71.5987L74.5163 61.25ZM72.5 37.8512V43.3988L70 42.7738V38.4762L72.5 37.8512ZM48.75 16.25H57.5V18.75H48.75V16.25ZM51.25 21.25H55V30H51.25V21.25ZM50 32.5H65C65.3314 32.4885 65.6616 32.5453 65.9702 32.6668C66.2787 32.7884 66.5589 32.9721 66.7934 33.2066C67.0279 33.4411 67.2116 33.7213 67.3332 34.0298C67.4547 34.3384 67.5115 34.6686 67.5 35V50H35V32.5H50ZM5 10H35V12.5H5V10ZM7.5 15H32.5V50H29.9763C28.8169 48.448 27.3114 47.1879 25.5796 46.3199C23.8477 45.4519 21.9372 45 20 45C18.0628 45 16.1523 45.4519 14.4204 46.3199C12.6886 47.1879 11.1831 48.448 10.0238 50H7.5V15ZM5 61.25V52.5H8.55125C7.33756 55.2627 7.16876 58.3722 8.07625 61.25H5ZM20 67.5C18.0222 67.5 16.0888 66.9135 14.4443 65.8147C12.7998 64.7159 11.5181 63.1541 10.7612 61.3268C10.0043 59.4996 9.8063 57.4889 10.1921 55.5491C10.578 53.6093 11.5304 51.8275 12.9289 50.4289C14.3275 49.0304 16.1093 48.078 18.0491 47.6921C19.9889 47.3063 21.9996 47.5043 23.8268 48.2612C25.6541 49.0181 27.2159 50.2998 28.3147 51.9443C29.4135 53.5888 30 55.5222 30 57.5C29.997 60.1513 28.9425 62.6931 27.0678 64.5678C25.1931 66.4425 22.6513 67.497 20 67.5Z" fill="#005CCE"/>
<path d="M76.25 70H3.75C3.41848 70 3.10054 70.1317 2.86612 70.3661C2.6317 70.6005 2.5 70.9185 2.5 71.25C2.5 71.5815 2.6317 71.8995 2.86612 72.1339C3.10054 72.3683 3.41848 72.5 3.75 72.5H76.25C76.5815 72.5 76.8995 72.3683 77.1339 72.1339C77.3683 71.8995 77.5 71.5815 77.5 71.25C77.5 70.9185 77.3683 70.6005 77.1339 70.3661C76.8995 70.1317 76.5815 70 76.25 70ZM11.25 30H28.75C29.0815 30 29.3995 29.8683 29.6339 29.6339C29.8683 29.3995 30 29.0815 30 28.75V18.75C30 18.4185 29.8683 18.1005 29.6339 17.8661C29.3995 17.6317 29.0815 17.5 28.75 17.5H11.25C10.9185 17.5 10.6005 17.6317 10.3661 17.8661C10.1317 18.1005 10 18.4185 10 18.75V28.75C10 29.0815 10.1317 29.3995 10.3661 29.6339C10.6005 29.8683 10.9185 30 11.25 30ZM12.5 20H27.5V27.5H12.5V20ZM38.75 37.5H63.75C64.0815 37.5 64.3995 37.3683 64.6339 37.1339C64.8683 36.8995 65 36.5815 65 36.25C65 35.9185 64.8683 35.6005 64.6339 35.3661C64.3995 35.1317 64.0815 35 63.75 35H38.75C38.4185 35 38.1005 35.1317 37.8661 35.3661C37.6317 35.6005 37.5 35.9185 37.5 36.25C37.5 36.5815 37.6317 36.8995 37.8661 37.1339C38.1005 37.3683 38.4185 37.5 38.75 37.5Z" fill="#005CCE"/>
<path d="M47.5 65C48.8807 65 50 63.8807 50 62.5C50 61.1193 48.8807 60 47.5 60C46.1193 60 45 61.1193 45 62.5C45 63.8807 46.1193 65 47.5 65Z" fill="#005CCE"/>
<path d="M65 65C66.3807 65 67.5 63.8807 67.5 62.5C67.5 61.1193 66.3807 60 65 60C63.6193 60 62.5 61.1193 62.5 62.5C62.5 63.8807 63.6193 65 65 65Z" fill="#005CCE"/>
<path d="M20 50C18.5166 50 17.0666 50.4399 15.8332 51.264C14.5999 52.0881 13.6386 53.2594 13.0709 54.6299C12.5032 56.0003 12.3547 57.5083 12.6441 58.9632C12.9335 60.418 13.6478 61.7544 14.6967 62.8033C15.7456 63.8522 17.082 64.5665 18.5368 64.8559C19.9917 65.1453 21.4997 64.9968 22.8701 64.4291C24.2406 63.8614 25.4119 62.9001 26.236 61.6668C27.0601 60.4334 27.5 58.9834 27.5 57.5C27.498 55.5115 26.7072 53.605 25.3011 52.1989C23.895 50.7928 21.9885 50.002 20 50ZM20 62.5C19.0111 62.5 18.0444 62.2068 17.2222 61.6574C16.3999 61.1079 15.759 60.3271 15.3806 59.4134C15.0022 58.4998 14.9032 57.4945 15.0961 56.5246C15.289 55.5546 15.7652 54.6637 16.4645 53.9645C17.1637 53.2652 18.0546 52.789 19.0246 52.5961C19.9945 52.4031 20.9998 52.5022 21.9134 52.8806C22.8271 53.259 23.6079 53.8999 24.1574 54.7221C24.7068 55.5444 25 56.5111 25 57.5C25 58.8261 24.4732 60.0979 23.5355 61.0355C22.5979 61.9732 21.3261 62.5 20 62.5Z" fill="#005CCE"/>
</svg>
