<svg width="105" height="36" viewBox="0 0 105 36" fill="none" xmlns="http://www.w3.org/2000/svg">
    <path d="M53.08 26L49.576 19.64H48.592V26H44.488V9.152H51.376C52.704 9.152 53.832 9.384 54.76 9.848C55.704 10.312 56.408 10.952 56.872 11.768C57.336 12.568 57.568 13.464 57.568 14.456C57.568 15.576 57.248 16.576 56.608 17.456C55.984 18.336 55.056 18.96 53.824 19.328L57.712 26H53.08ZM48.592 16.736H51.136C51.888 16.736 52.448 16.552 52.816 16.184C53.2 15.816 53.392 15.296 53.392 14.624C53.392 13.984 53.2 13.48 52.816 13.112C52.448 12.744 51.888 12.56 51.136 12.56H48.592V16.736ZM70.6323 23.024H64.3443L63.3363 26H59.0403L65.1363 9.152H69.8883L75.9843 26H71.6403L70.6323 23.024ZM69.5763 19.856L67.4883 13.688L65.4243 19.856H69.5763ZM81.8716 9.152V19.232C81.8716 20.24 82.1196 21.016 82.6156 21.56C83.1116 22.104 83.8396 22.376 84.7996 22.376C85.7596 22.376 86.4956 22.104 87.0076 21.56C87.5196 21.016 87.7756 20.24 87.7756 19.232V9.152H91.8796V19.208C91.8796 20.712 91.5596 21.984 90.9196 23.024C90.2796 24.064 89.4156 24.848 88.3276 25.376C87.2556 25.904 86.0556 26.168 84.7276 26.168C83.3996 26.168 82.2076 25.912 81.1516 25.4C80.1116 24.872 79.2876 24.088 78.6796 23.048C78.0716 21.992 77.7676 20.712 77.7676 19.208V9.152H81.8716ZM98.8654 22.832H104.241V26H94.7614V9.152H98.8654V22.832Z" fill="white" />
    <g clip-path="url(#clip0_218_14)">
        <path d="M12.7489 6.22644L28.4781 21.5482V29.7736H21.1378V24.5051L9.71347 13.3766H7.34028V29.7736H0V6.22644H12.7489ZM21.1378 14.3981V6.22644H28.4781V14.3981H21.1378Z" fill="white" />
    </g>
    <defs>
        <clipPath id="clip0_218_14">
            <rect width="29" height="24" fill="white" transform="translate(0 6)" />
        </clipPath>
    </defs>
</svg>